<svg xmlns="http://www.w3.org/2000/svg" xmlns:xlink="http://www.w3.org/1999/xlink" viewBox="0 0 715.02 319.49"><defs><style>.cls-1{fill:none;}.cls-2{isolation:isolate;}.cls-3{clip-path:url(#clip-path);}.cls-4{fill:url(#radial-gradient);}.cls-5{fill:url(#Áåçûìÿííûé_ãðàäèåíò_266);}.cls-6{fill:#e6a1f0;}.cls-22,.cls-6{mix-blend-mode:multiply;}.cls-7{fill:#705718;}.cls-16,.cls-23,.cls-25,.cls-26,.cls-27,.cls-28,.cls-7{mix-blend-mode:screen;}.cls-8{fill:url(#linear-gradient);}.cls-9{fill:url(#Áåçûìÿííûé_ãðàäèåíò_574);}.cls-10{fill:url(#linear-gradient-2);}.cls-11{fill:url(#linear-gradient-3);}.cls-12{fill:url(#linear-gradient-4);}.cls-13{fill:url(#linear-gradient-5);}.cls-14{fill:url(#linear-gradient-6);}.cls-15{fill:url(#linear-gradient-7);}.cls-16,.cls-17{opacity:0.4;}.cls-16{fill:url(#Áåçûìÿííûé_ãðàäèåíò_581);}.cls-17{fill:url(#linear-gradient-8);}.cls-18{fill:#fcf7ea;}.cls-19{clip-path:url(#clip-path-2);}.cls-20{fill:#f5dbbc;}.cls-21{fill:url(#Áåçûìÿííûé_ãðàäèåíò_548);}.cls-22{fill:#a6e0d1;}.cls-23{fill:url(#Áåçûìÿííûé_ãðàäèåíò_581-2);}.cls-24{fill:url(#Áåçûìÿííûé_ãðàäèåíò_574-2);}.cls-25{fill:url(#Áåçûìÿííûé_ãðàäèåíò_581-3);}.cls-26{fill:url(#Áåçûìÿííûé_ãðàäèåíò_581-4);}.cls-27{fill:url(#Áåçûìÿííûé_ãðàäèåíò_581-5);}.cls-28{fill:url(#Áåçûìÿííûé_ãðàäèåíò_581-6);}.cls-29{fill:#095d5e;}.cls-30{fill:url(#linear-gradient-9);}</style><clipPath id="clip-path"><path class="cls-1" d="M358.46,161.59c0,24.64-2.22,54.76.89,73.9,2.32,14.25,3.53,19.84,13.8,28.05,3.31,2.64,1,7.16,5.35,10.68,15.95,13.06,57.79,7.89,65.88,6.24C501,268.86,544.92,230.88,544.92,170.8A124.32,124.32,0,0,0,420.6,46.48c-14,0-44.38-2.59-57.9,4.18-9.25,4.64-4.68,13.66-5,30.92C357.42,101.34,358.46,116.46,358.46,161.59Z"/></clipPath><radialGradient id="radial-gradient" cx="400.68" cy="99.2" r="203.93" gradientUnits="userSpaceOnUse"><stop offset="0" stop-color="#d92055"/><stop offset="0.68" stop-color="#6e084c"/><stop offset="0.76" stop-color="#77094f"/><stop offset="0.88" stop-color="#8e0d58"/><stop offset="1" stop-color="#ab1163"/></radialGradient><radialGradient id="Áåçûìÿííûé_ãðàäèåíò_266" cx="405.11" cy="99.61" r="207.24" gradientUnits="userSpaceOnUse"><stop offset="0" stop-color="#ffc23e"/><stop offset="0.1" stop-color="#f9b241"/><stop offset="0.29" stop-color="#e8884a"/><stop offset="0.55" stop-color="#ce4459"/><stop offset="0.73" stop-color="#bc1463"/><stop offset="0.76" stop-color="#bf1a63"/><stop offset="0.81" stop-color="#c62a63"/><stop offset="0.87" stop-color="#d34663"/><stop offset="0.93" stop-color="#e56c62"/><stop offset="1" stop-color="#fb9c62"/><stop offset="1" stop-color="#fc9e62"/></radialGradient><linearGradient id="linear-gradient" x1="70" y1="307.33" x2="17.15" y2="173.09" gradientUnits="userSpaceOnUse"><stop offset="0" stop-color="#14d8e0"/><stop offset="0.68" stop-color="#0c6d9e"/></linearGradient><radialGradient id="Áåçûìÿííûé_ãðàäèåíò_574" cx="57.35" cy="40.91" r="183.97" gradientUnits="userSpaceOnUse"><stop offset="0" stop-color="#cdd40f"/><stop offset="0.68" stop-color="#0e7446"/><stop offset="0.72" stop-color="#177842"/><stop offset="0.79" stop-color="#2e8537"/><stop offset="0.87" stop-color="#549824"/><stop offset="0.96" stop-color="#89b30b"/><stop offset="1" stop-color="#9fbf00"/></radialGradient><linearGradient id="linear-gradient-2" x1="129.85" y1="39.37" x2="77" y2="199.5" xlink:href="#Áåçûìÿííûé_ãðàäèåíò_574"/><linearGradient id="linear-gradient-3" x1="135.79" y1="281.43" x2="82.94" y2="147.19" xlink:href="#linear-gradient"/><linearGradient id="linear-gradient-4" x1="646.51" y1="16.36" x2="720.51" y2="202.36" gradientUnits="userSpaceOnUse"><stop offset="0" stop-color="#ffc21d"/><stop offset="0.1" stop-color="#f9b224"/><stop offset="0.29" stop-color="#e88835"/><stop offset="0.55" stop-color="#ce4450"/><stop offset="0.73" stop-color="#bc1463"/></linearGradient><linearGradient id="linear-gradient-5" x1="621.2" y1="239.96" x2="714.94" y2="239.96" gradientUnits="userSpaceOnUse"><stop offset="0" stop-color="#d92055"/><stop offset="0.68" stop-color="#6e084c"/></linearGradient><linearGradient id="linear-gradient-6" x1="570" y1="212.56" x2="646.46" y2="212.56" xlink:href="#linear-gradient-5"/><linearGradient id="linear-gradient-7" x1="580.75" y1="42.52" x2="654.75" y2="228.52" xlink:href="#linear-gradient-4"/><linearGradient id="Áåçûìÿííûé_ãðàäèåíò_581" x1="16.03" y1="200.66" x2="91.25" y2="331.95" gradientUnits="userSpaceOnUse"><stop offset="0" stop-color="#4db089"/><stop offset="1"/></linearGradient><linearGradient id="linear-gradient-8" x1="671.03" y1="197.66" x2="746.25" y2="328.95" gradientTransform="matrix(-1, 0, 0, 1, 1374.65, 0)" xlink:href="#linear-gradient-4"/><clipPath id="clip-path-2"><path class="cls-1" d="M358,158.05c0,24.63,3.9,55.1-.89,73.9-3.54,13.91-4.39,19.49-13.8,28-3.13,2.85-1,7.16-5.34,10.69-15.95,13.05-57.79,7.89-65.89,6.23-56.65-11.59-100.53-49.58-100.53-109.65A124.32,124.32,0,0,1,295.86,42.93c13.87,0,36.86-1,50.49,2.9,10.47,3,12.79,14.72,12.39,32.2C358.28,97.79,358,112.91,358,158.05Z"/></clipPath><radialGradient id="Áåçûìÿííûé_ãðàäèåíò_548" cx="400.11" cy="109.75" r="221.99" gradientTransform="translate(39.36 -112.14) rotate(24.21)" gradientUnits="userSpaceOnUse"><stop offset="0" stop-color="#14d8e0"/><stop offset="0.68" stop-color="#0c6d9e"/><stop offset="0.73" stop-color="#0c76a3"/><stop offset="0.82" stop-color="#0c8db2"/><stop offset="0.93" stop-color="#0bb3c9"/><stop offset="1" stop-color="#0bd1db"/></radialGradient><linearGradient id="Áåçûìÿííûé_ãðàäèåíò_581-2" x1="375.48" y1="99.21" x2="285.44" y2="210.77" xlink:href="#Áåçûìÿííûé_ãðàäèåíò_581"/><radialGradient id="Áåçûìÿííûé_ãðàäèåíò_574-2" cx="408.3" cy="106.11" r="269.96" gradientTransform="translate(-86.49 148.18) rotate(-20.79)" xlink:href="#Áåçûìÿííûé_ãðàäèåíò_574"/><linearGradient id="Áåçûìÿííûé_ãðàäèåíò_581-3" x1="394.96" y1="118.32" x2="364.04" y2="182.89" xlink:href="#Áåçûìÿííûé_ãðàäèåíò_581"/><linearGradient id="Áåçûìÿííûé_ãðàäèåíò_581-4" x1="383.44" y1="164.93" x2="365.56" y2="197.97" xlink:href="#Áåçûìÿííûé_ãðàäèåíò_581"/><linearGradient id="Áåçûìÿííûé_ãðàäèåíò_581-5" x1="308.45" y1="203.9" x2="318.76" y2="266.66" xlink:href="#Áåçûìÿííûé_ãðàäèåíò_581"/><linearGradient id="Áåçûìÿííûé_ãðàäèåíò_581-6" x1="179.86" y1="185.6" x2="220.48" y2="235.92" xlink:href="#Áåçûìÿííûé_ãðàäèåíò_581"/><linearGradient id="linear-gradient-9" x1="305.83" y1="190.66" x2="520.66" y2="190.66" xlink:href="#linear-gradient-4"/></defs><g class="cls-2"><g id="Capa_2" data-name="Capa 2"><g id="Capa_1-2" data-name="Capa 1"><g class="cls-3"><path class="cls-4" d="M326.64,79.11c34.59-45,97.43-60.84,150-42.83q5.53,1.9,10.88,4.29a118.29,118.29,0,0,1,33.42,22.19c16.43,15.7,30.55,30.17,38.3,52.47,12.15,34.92,6.51,77.19-8.58,110.12-6,13-13.47,25.51-23.73,35.39-21.83,21-53.38,27.84-83.39,29.55-34.54,2-70.66-3.43-98.53-25.7-13.15-10.5-22.43-26.45-30.55-41.18-5.39-9.76-12.24-21.86-14-33a153.07,153.07,0,0,1,5.54-72A133.65,133.65,0,0,1,326.64,79.11Z"/><path class="cls-5" d="M567.82,133.19c-.21-1.61-.5-3.22-.83-4.82a101.47,101.47,0,0,0-5.2-17.06,115.62,115.62,0,0,0-13-23.58c-1.62-2.31-3.3-4.57-5-6.79-11.49-14.86-25.32-28.33-42.14-36.69a53.28,53.28,0,0,0-10.48-3.67c-2.36-.6-4.76-1.15-7.19-1.76a150.93,150.93,0,0,1,38.71,45.57c6.2,11.26,11,23.41,19,33.54,4.51,5.75,9.89,10.71,14.89,16,3.2,3.41,6.79,7.52,8.5,12.12a15,15,0,0,1,.94,6.72,17.54,17.54,0,0,0,1.27-2.42C569.54,144.94,568.61,139.05,567.82,133.19Zm-1.36,34.53a27.54,27.54,0,0,0-1-2.75c-3.07-7.19-7.15-14-13.07-19.09-.2-.19-.41-.35-.61-.52-7.07-5.79-16.3-11-20.35-19.54-4.41-9.24-5.81-19.37-12-27.8-3.27-4.47-7.42-8.22-10.67-12.7s-5.41-10-8.23-14.93c-1.6-2.8-3.45-5.45-5.2-8.14a25.69,25.69,0,0,0-3.27-4.07c-.83-.84-3-2-3.51-3,.14.31.29.61.43.92a127.35,127.35,0,0,1,10.28,28.27,28.06,28.06,0,0,0,3.91,10.05c2.3,3.37,5.8,4.81,8.63,7.57,3.84,3.74,4.57,8.81,4.91,13.87.11,1.45.17,2.9.28,4.31.44,6.31,1.48,12.77,4.57,18.37s9,10.13,13.43,14.79a98.76,98.76,0,0,1,24.77,46.16,34.66,34.66,0,0,0,3.51-4.82A32.81,32.81,0,0,0,566.46,167.72ZM481.56,54.85a71.93,71.93,0,0,0-6-7.73,140.48,140.48,0,0,0-15.39-14.58,32.07,32.07,0,0,0-16.81-7.68c-5.39-.7-10.85-.26-16.26.19l-19.37,1.61a26.1,26.1,0,0,0-8.33,1.61,10.3,10.3,0,0,0-4.12,3.11A7.07,7.07,0,0,0,394,34.33c5.08-1.52,10.42-1,15.7-.43A2.2,2.2,0,0,0,410,34a229.12,229.12,0,0,1,23,3.8c15.52,3.35,28.84,12.78,42.07,21.16,5.09,3.22,10.31,6.6,13.64,11.61A51.1,51.1,0,0,0,481.56,54.85Zm72.69,163.49c-.07-.89-.14-1.78-.23-2.67a82.13,82.13,0,0,0-3.23-16.36,62.71,62.71,0,0,0-7-15.31,52,52,0,0,0-6.34-8.07c-5.49-5.71-12.58-9.52-18.34-14.93-5.48-5.15-10.86-10.93-13.17-18.26-1.93-6.1-1.52-12.68-2-19.07a70.85,70.85,0,0,0-2.28-13.23,84.87,84.87,0,0,0-13.37-27.38,99.75,99.75,0,0,0-10-11.74c-1.63-1.66-2.71-3.59-4.48-5.1a58.2,58.2,0,0,0-7-5.18c-11-6.92-23.72-11.66-36.15-15.25a175.31,175.31,0,0,0-33.3-6.21q-8.44-.75-16.94-.67c-4.9.05-10.48.1-15,2.16a16.16,16.16,0,0,0-6.16,4.85,12.47,12.47,0,0,0-2.31,4.86c.12-.57,5.91.51,6.5.65a42.51,42.51,0,0,1,5.18,2,44.83,44.83,0,0,1,10.09,5.42,46.69,46.69,0,0,1,10.22,9.92c2.46,3.28,5.15,6.24,3.65,10.6-.85,2.51-2.43,4.83-2.7,7.47-.33,3.37,1.51,6.54,3.43,9.33A102.63,102.63,0,0,0,420,123c6.54,4.44,13.79,8.19,21.64,9.08a34.71,34.71,0,0,0,23.23-6,24.74,24.74,0,0,0,7.87-8.19,15,15,0,0,0,1.61-11.06c-1-3.54-3.39-6.35-6.31-8.65a40.07,40.07,0,0,0-4.8-3.25A93.1,93.1,0,0,0,431.39,83.3c-2.33-.39-5-.6-6.79.89-1.64,1.35-2,3.55-1.68,5.74a12.57,12.57,0,0,0,.71,2.76,24,24,0,0,0,8.62,11,14.29,14.29,0,0,0,7.11,2.8,8,8,0,0,0,6.84-2.88,5.55,5.55,0,0,0-.32-7.08c3.15,3.09,6.4,6.31,7.94,10.43s.88,9.42-2.7,12a8.74,8.74,0,0,1-2.42,1.17,16.2,16.2,0,0,1-5.29.62,33.38,33.38,0,0,1-19.31-6.29,26,26,0,0,1-10.37-17.2c-.63-5.11.44-10.33-.37-15.41-1.07-6.59-5.25-12.3-10.1-16.88s-10.5-8.28-15.53-12.67q1.23.81,2.49,1.56c10.16,6,21.9,9.07,33.18,12.79,12.2,4,24.58,7.94,35.65,14.47a63.12,63.12,0,0,1,19.64,17.39c2.45,3.46,3.8,7.1,5.57,10.84,2.08,4.43,2.85,8.11,1.68,13s-3.36,9.37-3.91,14.28c-.91,8.33,3.25,16.57,9.12,22.53,6.28,6.37,14.39,10.81,22.31,14.75,5.8,2.88,12.18,4.68,17.43,8.47,7.34,5.32,11.32,13.7,13.53,22.27,2.3,8.86,4.47,19.36,2.23,28.37-.12.45-.24.91-.38,1.37.15-.51,1.85-1.54,2.9-2.27a6.19,6.19,0,0,0,.7-.56,17.59,17.59,0,0,0,2.88-3.93C554.51,224.43,554.51,221.89,554.25,218.34ZM376.12,81.82A29.38,29.38,0,0,0,354.31,52.7c-2.92-.83-7.39,1.25-9.91,2.92a12,12,0,0,0-4.23,5.26,7.2,7.2,0,0,0-.58,3.76c7.3,1.64,14.87.84,21.78,3.71s13.33,8.39,14.71,15.76C376.12,83.35,376.14,82.59,376.12,81.82Zm92,68.33a40.12,40.12,0,0,0-12.44-4.34c-7.12-1.4-14.06-1.32-21.24-.9a32.58,32.58,0,0,1-8.71-.28c-.86-.19-8-2.32-8-3.48a6.83,6.83,0,0,0-.16,1.91,7.27,7.27,0,0,0,1,3.51c3.65,6.06,12.7,8.3,19.14,9.09,6.64.82,13.36.45,20.05.67s13.46,1,19.42,4l.07,0A24.17,24.17,0,0,0,468.14,150.15Zm-65.23-18.61a49.61,49.61,0,0,0-.92-5.76,35.65,35.65,0,0,0-8.05-16c-4.48-5-10.3-8.73-14.74-13.79a14.33,14.33,0,0,0-.36,1.8,19.64,19.64,0,0,0,.79,9.35c1.21,3.61,3.53,5.61,5.64,8.56,1.78,2.47,3.71,4.83,5.59,7.21,4.95,6.26,9,12.6,10.28,20.59C403.3,141.1,403.39,136,402.91,131.54ZM541.64,232.05a50.8,50.8,0,0,0-1-7.75,62.06,62.06,0,0,0-4.93-14,67.88,67.88,0,0,0-5-8.56A70.31,70.31,0,0,0,517.2,187c-15.9-13-36.56-19.22-57.07-20.52-10.36-.66-20.82-.16-31.05-1.9s-20.27-6.24-26.4-14.6a18.91,18.91,0,0,0,.13,12.66,23.62,23.62,0,0,0,5.08,8.43c5.21,5.58,12.59,8.66,20.07,10.18a113,113,0,0,0,19.5,2.15c5.94.15,11.36-.38,16.91,2.45,3.11,1.6,5.83,4.38,6.45,7.84a.83.83,0,0,1,0,.54.27.27,0,0,1-.13.15.65.65,0,0,1-.53,0c-2.69-.79-5.41-1.87-8.16-2.42a14,14,0,0,0-7,.72c-3.7,1.18-7,3.27-10.56,5s-7.36,3.05-11.23,2.63c-4.37-.49-8.16-3.14-12.27-4.73-4.67-1.78-9.85-2.21-14.28-4.64s-6.95-7.66-8.54-12.38c-5.93-17.68-4.59-38.15-15.33-53.42-3.39-4.81-7.94-9-9.75-14.6-1.75-5.39-.71-11.29-1.76-16.86-1.8-9.53-9.78-17.09-18.91-20.34-8.41-3-20.65-4.44-27.77,2.14a34.53,34.53,0,0,0-5.85,7.85,143.29,143.29,0,0,0-10.35,21.47h0c-.26.68-.52,1.35-.77,2a25.92,25.92,0,0,0-1.7,5.08c-.23,1.81.31,4,.5,5.8,0-1.63,2.73-4.78,3.64-5.94a19.32,19.32,0,0,1,5.73-4.66c5.51-3,11.39-4.43,17.73-3.1,9.48,2,17.55,8.28,24.06,15.46a88.85,88.85,0,0,1,22.66,53.69c.18,2.94.6,6.05.5,9-.07,2.17-.63,4.15-.19,6.38.91,4.68,4.28,8.74,8.27,11.19,5.56,3.4,12.35,4.47,18.73,5.14a42.24,42.24,0,0,1,18.8,6.73c2.17,1.42,4.28,3.08,6.81,3.62a11.85,11.85,0,0,0,7.72-1.44,66.88,66.88,0,0,0,6.65-4.44,33.69,33.69,0,0,1,12.56-5.56c7.11-1.35,13.29,1.25,19.3,4.84a51.69,51.69,0,0,1,19.25,21,65.27,65.27,0,0,1,6.46,24.15c.62,7.79,1.53,16.08-5.77,20.87a26.91,26.91,0,0,1-13.95,4.64,18.84,18.84,0,0,1-13.58-5.09,14.6,14.6,0,0,1-4.11-13.62c.52-2.06,2.34-4.32,4.33-3.6,1.72.62,2,2.87,2.95,4.43,1.92,3.23,7,3.24,9.86.8s3.86-6.43,4.05-10.18a32.72,32.72,0,0,0-4.47-18.07h0a31.3,31.3,0,0,0-4.17-5.61c-3.19-3.4-7.44-6.21-12.1-6.16-5.39.06-10,3.87-13.41,8a43.35,43.35,0,0,0-9.07,19.6h0a35.28,35.28,0,0,0,.19,14,31.62,31.62,0,0,0,15,20.4,25.69,25.69,0,0,0,7.37,2.83c.6.14,1.21.25,1.82.33,6.89,1,13.43,1.21,20.17-.56,9.84-2.6,19.57-6.77,26.71-14a38.47,38.47,0,0,0,5.29-6.72c1.42-2.28.48-4.6.07-7.16l-.21-1.35c-.43-2.71-.87-5.42-1.37-8.13-2-11-4.89-21.83-10.16-31.67-.27-.51-.56-1-.84-1.51-3.59-6.32-8.17-12-11.82-18.33-.34-.61-.88-2.62-1.56-2.82l.2.06c9.45,2.72,17,10,23.63,17,4.19,4.43,8.48,9,10.77,14.69a49.21,49.21,0,0,1,3.41,14.8c.19,2.51,0,5,0,7.49a9.87,9.87,0,0,1-.38,3.18c-.07.2-.87,1.7-1.3,2.4-.14.21-.23.35-.27.35a2,2,0,0,0,2,.74,4.56,4.56,0,0,0,2-1c3.73-2.81,4.74-7.6,5.44-12.22A17.7,17.7,0,0,0,542,239C541.84,236.63,541.78,234.33,541.64,232.05ZM432.88,242.37c-.16-.58-.32-1.14-.5-1.72-1.84-6.3-4.35-12.52-8.7-17.41a35,35,0,0,0-15.23-9.66,69.68,69.68,0,0,0-18-3.24,22.34,22.34,0,0,0-8.41.69,10.29,10.29,0,0,0-2,.92c-4,2.36-5.75,7.23-6.09,11.83a27.26,27.26,0,0,0,2.44,13.45,25.27,25.27,0,0,0,3.87,6,23.61,23.61,0,0,0,18.59,8c5.24-.27,10.79-2.93,12.6-7.85,1.32-3.57.44-7.54-.44-11.25a17.67,17.67,0,0,1,6.58,10.62,15.82,15.82,0,0,1-2.72,12.12c-3.21,4.33-8.56,6.59-13.86,7.54a34.59,34.59,0,0,1-11.35.17,28.75,28.75,0,0,1-8.56-2.74c-9-4.59-13.51-13.19-16.68-22.3-1.8-5.17-2.5-11.05-3-16.5a52,52,0,0,1,.77-17.37c.15-.69.33-1.36.53-2a67.12,67.12,0,0,1,2.86-7.49c.85-2,1.7-3.88,2.46-5.84a34.88,34.88,0,0,0,1.72-6c1.9-9.32,0-18.74-4.9-27.21-.25-.44-.51-.88-.78-1.3v0a67.3,67.3,0,0,0-27.27-25.09c-4.87-2.41-10.32-4.27-15.68-3.3S310.77,131,311,136.4c.11,2.52,1.17,5.4-.42,7.35-1.34,1.62-4,1.55-5.76.43s-2.39-6.5-3.46-8.33c-4.37,3.56-5.21,5.68-6,8a33,33,0,0,0-1.72,7.18c-.6,4.44-1.2,9-.73,13.41,0,.15,0,.31.05.46.57,4.61,2.44,9.22,6,12.17,3.25,2.68,8.78-.21,12.11-2.8,4.48-3.49,7-9.48,12.3-11.55,3.63-1.42,7.45-.13,10.78,1.53a25,25,0,0,1,8.62,7.85,55.19,55.19,0,0,1,8.5,17.35c1.66,5.74,3,12.33,1.46,18.19-1.48,5.59-4.89,10.44-7.33,15.67A48.23,48.23,0,0,0,341,240c-.39,5.3-.43,11.56,1,16.69,2.33,8.33,9.15,14.63,16.25,19.58a82.48,82.48,0,0,0,26,12.45,56.18,56.18,0,0,0,28.64.33c6.1-1.64,12-4.6,16.11-9.38,4.25-4.94,6.27-11.51,6.58-18S434.62,248.65,432.88,242.37Zm-94.62-44A34.4,34.4,0,0,0,334.05,187c-1.91-3.33-5.25-6.86-8.94-5.83-2.59.73-4.07,3.42-4.88,6-1.68,5.23-2.57,9.91-8.33,12-3,1.06-5.72.75-7.88-1.6-1.13-1.25-3.27-6.25-3.78-8.21-4.13,11.88,0,21.61,6.38,30.87,1.13,1.62,2.31,3.22,3.54,4.82,3.65,4.75,5.75,10.21,8.3,15.45.48,1,1,2,1.5,2.91,1.62,3,5,5.52,7.7,7.54.95.71,4.56,3.47,7.52,4.21a147.74,147.74,0,0,1,1-34.72c.77-5.14,2.05-10.2,2.39-15.39A28.62,28.62,0,0,0,338.26,198.33Z"/><path class="cls-6" d="M338.57,205c-.34,5.19-1.62,10.25-2.39,15.39a147.74,147.74,0,0,0-1,34.72c-3-.74-6.57-3.5-7.52-4.21-2.67-2-6.08-4.54-7.7-7.54-.53-1-1-1.93-1.5-2.91-2.55-5.24-4.65-10.7-8.3-15.45-1.23-1.6-2.41-3.2-3.54-4.82a10.41,10.41,0,0,0,1.79.66,25.37,25.37,0,0,0,7.07.22c2.76-.18,5.6-.36,8.07-1.57,3.55-1.71,5.84-5.23,7.49-8.79s2.83-7.38,5-10.64a3.36,3.36,0,0,1,2.19-1.71A28.62,28.62,0,0,1,338.57,205Z"/><path class="cls-6" d="M435.58,261.64c-.31,6.51-2.33,13.08-6.58,18-4.11,4.78-10,7.74-16.11,9.38a56.18,56.18,0,0,1-28.64-.33,82.48,82.48,0,0,1-26-12.45c-7.1-4.95-13.92-11.25-16.25-19.58-1.42-5.13-1.38-11.39-1-16.69a48.23,48.23,0,0,1,4.36-16.68c2.44-5.23,5.85-10.08,7.33-15.67,1.54-5.86.2-12.45-1.46-18.19a55.19,55.19,0,0,0-8.5-17.35,25,25,0,0,0-8.62-7.85c-3.33-1.66-7.15-2.95-10.78-1.53-5.28,2.07-7.82,8.06-12.3,11.55-3.33,2.59-8.86,5.48-12.11,2.8-3.59-2.95-5.46-7.56-6-12.17,0-.15,0-.31-.05-.46a8.27,8.27,0,0,0,6.28,4.6c4.23.51,8.29-1.8,11.56-4.54s6.12-6,9.84-8.1c9.13-5.09,21.38-1.19,28.08,6.84s8.67,19.07,8.21,29.51-3.1,20.65-4.57,31-1.67,21.26,2.47,30.85c5.54,12.85,18.25,21.46,31.59,25.66,8.82,2.79,16.33,3.91,25.2.2a22,22,0,0,0,7.12-4.46c2.38-2.38,7.13-15.57-.52-13.84-2.73.61-5.27,2.09-8,2.71a32,32,0,0,1-20.42-2.27,34.59,34.59,0,0,0,11.35-.17c5.3-.95,10.65-3.21,13.86-7.54a15.82,15.82,0,0,0,2.72-12.12A17.67,17.67,0,0,0,411,232.14c.88,3.71,1.76,7.68.44,11.25-1.81,4.92-7.36,7.58-12.6,7.85a23.61,23.61,0,0,1-18.59-8,25.27,25.27,0,0,1-3.87-6,18.69,18.69,0,0,0,7.59,4.58,19.13,19.13,0,0,0,16.81-3c3.18-2.43,3.85-5.65,5.21-9.31a2.77,2.77,0,0,1,.87-1.4,2.73,2.73,0,0,1,2.63.15c4.12,1.77,7,3.81,9,8a63.25,63.25,0,0,1,3,8.55c.75,2.34,2.07,5.06,4.52,5.29,2.26.22,4.09-1.9,4.85-4.05.63-1.75.86-3.67,1.54-5.38.18.58.34,1.14.5,1.72C434.62,248.65,435.9,255.14,435.58,261.64Z"/><path class="cls-6" d="M520.66,249.34l-.1,0c-1.57.58-3.18-.86-4.85-.86-2.37,0-3.7,2.71-4.29,5-1.5,6-1.89,12.42-5.09,17.69s-8.9,8.69-14.92,10-12.3.63-18.26-.92a23.09,23.09,0,0,0-5.67-1.08,6.32,6.32,0,0,0-5.15,2.15,19.3,19.3,0,0,0-1.52,2.76,31.62,31.62,0,0,1-15-20.4,35.28,35.28,0,0,1-.19-14,34.66,34.66,0,0,0,2.65,7.27c1.34,2.69,3.47,5.42,6.47,5.74,3.72.39,4.29-1.81,5.86-4.29a24.39,24.39,0,0,1,8.28-7.62,5.38,5.38,0,0,1,3.92-.95c2.46.67,3.17,4.09,5.51,5.08,1.8.76,4-.28,5.08-1.89A11.24,11.24,0,0,0,485,247.5a57.58,57.58,0,0,0-.57-13.63,32.72,32.72,0,0,1,4.47,18.07c-.19,3.75-1.19,7.75-4.05,10.18s-7.94,2.43-9.86-.8c-.94-1.56-1.23-3.81-2.95-4.43-2-.72-3.81,1.54-4.33,3.6a14.6,14.6,0,0,0,4.11,13.62,18.84,18.84,0,0,0,13.58,5.09,26.91,26.91,0,0,0,13.95-4.64c7.3-4.79,6.39-13.08,5.77-20.87a65.27,65.27,0,0,0-6.46-24.15,51.69,51.69,0,0,0-19.25-21c-6-3.59-12.19-6.19-19.3-4.84a33.69,33.69,0,0,0-12.56,5.56,66.88,66.88,0,0,1-6.65,4.44,11.85,11.85,0,0,1-7.72,1.44c-2.53-.54-4.64-2.2-6.81-3.62a42.24,42.24,0,0,0-18.8-6.73c-6.38-.67-13.17-1.74-18.73-5.14-4-2.45-7.36-6.51-8.27-11.19-.44-2.23.12-4.21.19-6.38.1-2.93-.32-6-.5-9a88.85,88.85,0,0,0-22.66-53.69C351,112.27,343,106,333.49,104c-6.34-1.33-12.22.07-17.73,3.1a19.32,19.32,0,0,0-5.73,4.66c-.91,1.16-3.64,4.31-3.64,5.94-.19-1.84-.73-4-.5-5.8a25.92,25.92,0,0,1,1.7-5.08c.25-.69.51-1.36.77-2h0c4.24-2.93,8.43-5.45,14.16-6.67,9.28-2,20.64-.73,28.81,4.33,5.27,3.25,8.78,8.65,12.1,13.86,9.93,15.58,20.21,32.35,19.9,50.82-.22,12.87-2.78,30.09,14.28,32.08,5.16.6,10.48,0,15.51,1.31,5.64,1.47,10.42,5.2,15.9,7.17,6.32,2.27,10.28.08,15.93-2.3,5.35-2.26,11.47-4.74,17.2-5.79a27.15,27.15,0,0,1,24.5,8.3c3.41,3.75,5.74,8.47,9.52,11.84,4.7,4.19,13,5.39,14.33-2C515.77,227.51,518.62,238.37,520.66,249.34Z"/><path class="cls-6" d="M471,194.14a1.82,1.82,0,0,1-.17-.44,10.66,10.66,0,0,0-1.28-3.26,13.21,13.21,0,0,0-5.17-4.58c-5.55-2.83-11-2.3-16.91-2.45a113,113,0,0,1-19.5-2.15c-7.48-1.52-14.86-4.6-20.07-10.18a23.62,23.62,0,0,1-5.08-8.43c4,4.21,9.62,7,15.33,8.49,7.22,1.93,14.77,2.17,22.2,2.83,10.3.92,20.92,3.11,28.79,10.31a15.34,15.34,0,0,1,4.7,7.38,4.24,4.24,0,0,1,.14,1.9,1.88,1.88,0,0,1-1.15,1.43A1.51,1.51,0,0,1,471,194.14Z"/><path class="cls-6" d="M541.64,232.05a6.53,6.53,0,0,1-1.94.86,3.33,3.33,0,0,0-2.28,2.08,9.19,9.19,0,0,0-.36,2.81,53,53,0,0,1-2.68,15c-.28.85-.91,1.87-1.73,1.85.43-.7,1.23-2.2,1.3-2.4a9.87,9.87,0,0,0,.38-3.18c0-2.51.15-5,0-7.49a49.21,49.21,0,0,0-3.41-14.8c-2.29-5.68-6.58-10.26-10.77-14.69-6.6-7-14.18-14.28-23.63-17a8.12,8.12,0,0,1-2.89-2.72,17.19,17.19,0,0,1,8.43,1.78,54.91,54.91,0,0,1,9.58,6.28c4.19,3.14,8.29,6.54,13.1,8.69a3.76,3.76,0,0,0,2.46.43c1.48-.42,1.92-2.26,2-3.8s.25-3.24,1.51-4a67.88,67.88,0,0,1,5,8.56,62.06,62.06,0,0,1,4.93,14A50.8,50.8,0,0,1,541.64,232.05Z"/><path class="cls-6" d="M376.08,84.11c-1.38-7.37-7.79-12.88-14.71-15.76s-14.48-2.07-21.78-3.71a7.2,7.2,0,0,1,.58-3.76c1.43.27,2.85.72,4.27,1q3.78.66,7.5,1.53c2.79.65,5.57,1.39,8.32,2.22,4.16,1.26,8.47,2.86,11.24,6.21A23.28,23.28,0,0,1,375,78.56a33,33,0,0,1,1.13,3.26C376.14,82.59,376.12,83.35,376.08,84.11Z"/><path class="cls-6" d="M472.77,117.87a24.74,24.74,0,0,1-7.87,8.19,34.71,34.71,0,0,1-23.23,6c-7.85-.89-15.1-4.64-21.64-9.08a102.63,102.63,0,0,1-26.8-26.74c-1.92-2.79-3.76-6-3.43-9.33.27-2.64,1.85-5,2.7-7.47,1.5-4.36-1.19-7.32-3.65-10.6a46.69,46.69,0,0,0-10.22-9.92,44.83,44.83,0,0,0-10.09-5.42,42.51,42.51,0,0,0-5.18-2c-.59-.14-6.38-1.22-6.5-.65a12.47,12.47,0,0,1,2.31-4.86l.55.06a41.39,41.39,0,0,1,9.09,2.75,62.33,62.33,0,0,1,19.1,11.6A81,81,0,0,1,395.72,69c.19.23.4.47.59.71A29.64,29.64,0,0,1,402,79.66a8,8,0,0,1,.42,3.53A3.7,3.7,0,0,1,400.44,86c-1.66.74-3.91-.13-5.26,1.1s-.67,3.42.19,5c4.68,8.65,12.25,16.28,19.44,22.88,5.3,4.85,11.07,9.35,17.75,12s14.41,3.2,21,.29,11.57-9.73,11.14-16.89c-.13-2.26-.77-4.49-.66-6.75s1.26-4.7,3.42-5.37a3.83,3.83,0,0,1,.64-.13c2.92,2.3,5.34,5.11,6.31,8.65A15,15,0,0,1,472.77,117.87Z"/><path class="cls-6" d="M567.22,150.38q-1.1-5.77-2.16-11.54c-.37-1.94-1.88-5.73-1.24-7.63.44-1.29,2-2,3.17-2.84a101.47,101.47,0,0,0-5.2-17.06,115.62,115.62,0,0,0-13-23.58,50.16,50.16,0,0,1-.5,10c-.23,1.56-.63,3.26-1.88,4.23a4.54,4.54,0,0,1-5.14-.16,13.07,13.07,0,0,1-3.58-4.12q-1.8-2.8-3.62-5.61c-7.52-11.7-15.08-23.46-24.19-34A115.53,115.53,0,0,0,495.2,43.59c-1.31-1.07-2.69-2-4.06-3-2.36-.6-4.76-1.15-7.19-1.76a150.93,150.93,0,0,1,38.71,45.57c6.2,11.26,11,23.41,19,33.54,4.51,5.75,9.89,10.71,14.89,16,3.2,3.41,6.79,7.52,8.5,12.12a15,15,0,0,1,.94,6.72A17.54,17.54,0,0,0,567.22,150.38Zm-5.59,20.75c1.84-.93,3.9-1.45,4.83-3.41a27.54,27.54,0,0,0-1-2.75c-3.07-7.19-7.15-14-13.07-19.09.23,2.58.48,5.15.72,7.73.2,2.17.08,4.93-1.93,5.78-1.43.62-3.07-.15-4.39-1-5.9-3.63-10.38-8.92-15.22-13.78-8.35-8.4-11.34-18-12.48-29.53-.57-5.77-1.47-11.83-5.09-16.34s-9.56-7-12.47-12c-2.14-3.68-2.3-8.14-3.11-12.32A37.52,37.52,0,0,0,489,56.11a127.35,127.35,0,0,1,10.28,28.27,28.06,28.06,0,0,0,3.91,10.05c2.3,3.37,5.8,4.81,8.63,7.57,3.84,3.74,4.57,8.81,4.91,13.87.11,1.45.17,2.9.28,4.31.44,6.31,1.48,12.77,4.57,18.37s9,10.13,13.43,14.79a98.76,98.76,0,0,1,24.77,46.16,34.66,34.66,0,0,0,3.51-4.82c-.44-3.93-2.13-7.61-3.32-11.4C558.67,179.24,557.12,173.39,561.63,171.13ZM481.56,54.85a23.58,23.58,0,0,0-4.22-.25c-5.87-.28-10.88-4.09-15.78-7.34a97.55,97.55,0,0,0-16.66-8.81A101.13,101.13,0,0,0,412.42,31c-5.59-.33-11,.25-16.58.38h-.52A7.07,7.07,0,0,0,394,34.33c5.08-1.52,10.42-1,15.7-.43A2.2,2.2,0,0,0,410,34a229.12,229.12,0,0,1,23,3.8c15.52,3.35,28.84,12.78,42.07,21.16,5.09,3.22,10.31,6.6,13.64,11.61A51.1,51.1,0,0,0,481.56,54.85Zm69.23,144.46a62.71,62.71,0,0,0-7-15.31.85.85,0,0,0-.54-.06c-.36.08-.6.44-.87.71a3.57,3.57,0,0,1-3.68.63,10.82,10.82,0,0,1-3.3-2.12,146.32,146.32,0,0,0-22.79-15.29c-7.27-3.94-14.42-6.77-19.81-13.46a28.15,28.15,0,0,1-6.18-14.84c-.5-5.43-1.73-11.56,2.38-16.07a39.3,39.3,0,0,0,3.1-3.09c1.72-2.34,1.59-5.53,1.11-8.39-1.31-7.89-4.81-14.53-9.43-20.92-5.79-8-14.77-13.38-23.6-17.58a301,301,0,0,0-73.71-23.88,33.18,33.18,0,0,0,3.79,4.25c10.16,6,21.9,9.07,33.18,12.79,12.2,4,24.58,7.94,35.65,14.47a63.12,63.12,0,0,1,19.64,17.39c2.45,3.46,3.8,7.1,5.57,10.84,2.08,4.43,2.85,8.11,1.68,13s-3.36,9.37-3.91,14.28c-.91,8.33,3.25,16.57,9.12,22.53,6.28,6.37,14.39,10.81,22.31,14.75,5.8,2.88,12.18,4.68,17.43,8.47,7.34,5.32,11.32,13.7,13.53,22.27,2.3,8.86,4.47,19.36,2.23,28.37-.12.45-.24.91-.38,1.37.15-.51,1.85-1.54,2.9-2.27a10,10,0,0,0,.28-1.51c.38-3-.07-6.19.55-9.2a8.28,8.28,0,0,1,4-5.8A82.13,82.13,0,0,0,550.79,199.31ZM455,102.76a16.51,16.51,0,0,0-5.61-6.51,17,17,0,0,0-4-2c-.86-.29-2.65-.34-2.9-1.49.45,2.07,1.42,6.15.14,8.15-1.63,2.54-5.9,1.38-8.07.41A23.47,23.47,0,0,1,426.35,95a16.86,16.86,0,0,1-3.05-4.2l-.38-.83a12.57,12.57,0,0,0,.71,2.76,24,24,0,0,0,8.62,11,14.29,14.29,0,0,0,7.11,2.8,8,8,0,0,0,6.84-2.88,5.55,5.55,0,0,0-.32-7.08c3.15,3.09,6.4,6.31,7.94,10.43s.88,9.42-2.7,12a8.74,8.74,0,0,1-2.42,1.17,6.69,6.69,0,0,0,5.09-1.76C457.57,114.58,457.14,107.28,455,102.76Zm12.77,52.15c-5.7-1.92-11.81-2.25-17.83-2.4s-12.1-.11-18-1.36a28,28,0,0,1-9.75-3.72,18.31,18.31,0,0,1-3.66-3.26c-.18-.22-.54-.62-.94-1.11a7.27,7.27,0,0,0,1,3.51c3.65,6.06,12.7,8.3,19.14,9.09,6.64.82,13.36.45,20.05.67s13.46,1,19.42,4A26.56,26.56,0,0,0,467.76,154.91Zm-64.85-23.37a2.78,2.78,0,0,1-2.59.84,4.52,4.52,0,0,1-2.84-2.25A21.69,21.69,0,0,1,396,126.7c-2.17-5.47-6.36-9.84-10-14.43a33.4,33.4,0,0,1-6.18-10.67c-.25-.8-.3-2.86-1-3.83a19.64,19.64,0,0,0,.79,9.35c1.21,3.61,3.53,5.61,5.64,8.56,1.78,2.47,3.71,4.83,5.59,7.21,4.95,6.26,9,12.6,10.28,20.59C403.3,141.1,403.39,136,402.91,131.54Z"/><path class="cls-7" d="M319,129.8c2.66-.68,5.69.35,8.2.95a54,54,0,0,1,26,14.77c6.7,6.95,11.67,14.46,11.53,24.54,0,.88-.44,2.08-1.3,1.9a1.6,1.6,0,0,1-.85-.72c-3.2-4.45-6.16-9.47-9.95-13.42A97.61,97.61,0,0,0,340.3,146.6a38.74,38.74,0,0,0-16.43-7.42,24.55,24.55,0,0,1-4.89-1,5.33,5.33,0,0,1-3.41-3.39,3.31,3.31,0,0,1,.1-1.92A5,5,0,0,1,319,129.8ZM379.16,223a7.5,7.5,0,0,0,5.59,5.92c2.82.64,5.71-.41,8.4-1.45,1.57-.6,3.27-1.33,4-2.84a5.42,5.42,0,0,0-.17-4.21,11.63,11.63,0,0,0-6.09-6.67C385,211.25,378.06,216.5,379.16,223Zm21.1-4.41c.53,1.13,1.32,2.34,2.31,2.54s3.63,0,4-1.13a1.78,1.78,0,0,0-.45-1.52c-.71-1-6.25-5.06-6.58-2.37a2.59,2.59,0,0,0,.19,1.13A12.18,12.18,0,0,0,400.26,218.58Zm-97.73-72.05c-1.16-.69-2-2.24-2.81-3.29a1.52,1.52,0,0,0-.72-.61c-.66-.19-1.23.51-1.51,1.14-1.43,3.16-1.37,7.93,2.26,9.7,1.68.82,3.7.29,5.44-.43a6.2,6.2,0,0,0,1.92-1.1,2.52,2.52,0,0,0,.9-2,3,3,0,0,0-2.06-2.32C304.9,147.13,303.52,147.11,302.53,146.53Zm27.39,42.52a8.31,8.31,0,0,0-2.69-3.23c-4.31-2.68-8.43,6-6.93,9.35a3.48,3.48,0,0,0,2.64,1.88c2.25.38,6.38-.31,7.67-2.42C331.64,193,330.86,190.78,329.92,189.05Zm62.4-74.37a1.58,1.58,0,0,0,.94.4,1.1,1.1,0,0,0,.92-1,2.76,2.76,0,0,0-.31-1.4c-.66-1.53-5.64-8.73-7.83-7C383.6,107.64,391.1,113.8,392.32,114.68ZM338.66,75.45a3.64,3.64,0,0,0,.83,3.43,10.71,10.71,0,0,0,2.95,2.21l20.09,11.7a2.69,2.69,0,0,0,2.3.51c1.06-.45,1.07-1.94.77-3-1.33-4.88-5.2-8.74-9.62-11.18a43.69,43.69,0,0,0-9.77-3.7C344.27,74.84,339.69,72.55,338.66,75.45Zm-8,.55A3.92,3.92,0,0,0,329,78.5a2.39,2.39,0,0,0,1.31,2.57,2.65,2.65,0,0,0,2.73-.73,7.87,7.87,0,0,0,1.52-2.56,3.55,3.55,0,0,0,.42-1.84C334.64,73.68,331.7,75.3,330.7,76Zm56.1,76.59c.24.59.6,1.27,1.24,1.31a1.17,1.17,0,0,0,1.07-.75,3.48,3.48,0,0,0,.19-1.37,45.6,45.6,0,0,0-4.5-19.66c-1.12-2.38-2.9-6.81-5.44-8-1.82-.83-4.17-.92-4,1.7s3.14,5.39,4.43,7.71C382.84,139.71,384.22,146.21,386.8,152.59Zm2.8,9.4a1.51,1.51,0,0,0,1.4.78c.63-.14.9-.88,1-1.51.18-1.35.11-5.66-2.08-4.72C387.92,157.4,388.67,160.71,389.6,162ZM410,75.92a11.15,11.15,0,0,0-2.64-4.67c-1-1-3.23-2.33-2.69.3q1,5,2.05,10.08a12.33,12.33,0,0,1,.38,3.62,4.27,4.27,0,0,1-1.63,3.15c-1.14.78-2.75.79-3.71,1.78-1.27,1.32-.68,3.5.14,5.14,2.35,4.65,5.9,8.56,9.41,12.4,1.56,1.7,3.32,3.76,5.4,4.83.58.31,4.28,1.81,4.29.76a1,1,0,0,0-.42-.67,29.89,29.89,0,0,1-4.23-3.89,27,27,0,0,1-5.07-8.53c-1.53-4.9-.79-10-.53-15A27.49,27.49,0,0,0,410,75.92Zm-49.68-16a3.54,3.54,0,0,0,.85,1.41,12.55,12.55,0,0,0,4.16,3.3c.66.3,1.55.48,2-.06a1.74,1.74,0,0,0,0-1.87,8,8,0,0,0-3.75-3.61C362.53,58.53,359.74,57.49,360.34,59.88ZM426.76,90.7a13.16,13.16,0,0,0,2.65,2.57,4.47,4.47,0,0,0,3.52.77c1.81-.46,2.87-2.29,3.74-3.94a3.46,3.46,0,0,0,.55-1.95,2.94,2.94,0,0,0-1.26-1.8,8.58,8.58,0,0,0-8-1.67C424.73,85.8,424.52,88.07,426.76,90.7Zm22.59,58.73c.3-.1.65-.25.71-.56s-.45-.7-.88-.81c-1.63-.41-12.43-2.78-12.08,0C437.52,151.4,447.35,150,449.35,149.43Zm8.13,88.74a6.2,6.2,0,0,0,4.09,2.26,18.75,18.75,0,0,0,4.79-.1,20.66,20.66,0,0,0,7.06-1.62c2.18-1.08,4-3.15,4.15-5.57.26-5.48-7.67-9.13-12.21-7.2C461.26,227.67,453.6,232.86,457.48,238.17Zm-13.62-69c-5.51-3-12.05-1.87-18-2.93s-11-4.22-16.74-5.9c-.4-.12-.92-.18-1.14.17s.25.93.7,1.19a60.4,60.4,0,0,0,24.74,7.9A46.27,46.27,0,0,0,443.86,169.2ZM490.3,126a17.88,17.88,0,0,0-.62,12.93c.32.95.91,2,1.9,2.08a2,2,0,0,0,1.85-1.54,7.81,7.81,0,0,0,.06-2.6,14.36,14.36,0,0,1,1.13-6.41,14.34,14.34,0,0,0,1.59-4.3c.13-1.35-.68-3.36-2.25-3.48S490.89,124.74,490.3,126Zm-86-78.54c3.2,1,6.5,1.27,9.76,2.14,4.13,1.1,8.42,1.82,12.63,2.78a232.77,232.77,0,0,1,25.73,7.47c.55.2,1.33.3,1.55-.24,1.4-3.44-9.52-7-11.4-7.81a123.75,123.75,0,0,0-28.21-8.15c-4.11-.67-8.52-1.55-12.61-.31-.62.19-1.3.49-1.49,1.11a1.42,1.42,0,0,0,.4,1.37,3.71,3.71,0,0,0,1.26.78A21.92,21.92,0,0,0,404.34,47.5ZM442.5,28.34a2,2,0,0,0-.45,2.26,4,4,0,0,0,2,1.68q6.75,3.49,13.69,6.64a4.27,4.27,0,0,0,1.62.48,1.45,1.45,0,0,0,1.4-.77c.3-.68-.17-1.44-.63-2A24.37,24.37,0,0,0,452,30.17C450.08,29.19,444.5,26.47,442.5,28.34Zm17.57,37.15a8.3,8.3,0,0,0,1.15.82l11.8,7.2a4.12,4.12,0,0,0,1.47.65,1.42,1.42,0,0,0,1.43-.55c.49-.82-.27-1.79-1-2.43-2.48-2.23-5-5.06-7.88-6.74-1.6-.92-4.26-3.09-6.24-2.65a2.1,2.1,0,0,0-1.67,2.15A2.38,2.38,0,0,0,460.07,65.49Zm34.46,85.63a1.76,1.76,0,0,0,1.64.65c.62-.2.87-.93,1-1.57a8.65,8.65,0,0,0-.24-3.65,4.42,4.42,0,0,0-1.21-2.17,2.29,2.29,0,0,0-2.33-.51C490.54,145,493.26,149.88,494.53,151.12Zm3.87,29.18a2.39,2.39,0,0,0-1.78.43c-.86.79-.27,2.25.56,3.07,3.34,3.3,9,2.74,12.84,5.41.88.6,1.92,1.41,2.88,1a1.79,1.79,0,0,0,.61-2.37,4.63,4.63,0,0,0-2-1.81C507.11,183.44,503.82,180.54,498.4,180.3ZM527.78,75.15c.48.47,1.09,1,1.74.8.9-.22,1.05-1.44.93-2.36a19,19,0,0,0-10-13.81c-.55-.29-1.26-.54-1.75-.17s-.39,1.41-.07,2.1c.91,1.92,2.37,3.46,3.31,5.33A31.17,31.17,0,0,0,527.78,75.15Zm-25.6,3.14c-2.33-.13.53,6.25,1.31,7,.51.51,1.41.9,1.88.35a1.45,1.45,0,0,0,.09-1.32,20.72,20.72,0,0,0-2.14-5.12C503.05,78.81,502.7,78.33,502.18,78.29Zm22.4,49.48c.31.56.81,1.18,1.44,1.08s.89-.78,1-1.38c.63-3.17-.63-6.39-1.87-9.39a4.23,4.23,0,0,0-.89-1.52,1.45,1.45,0,0,0-1.62-.34,1.46,1.46,0,0,0-.68,1.18A20.81,20.81,0,0,0,524.58,127.77Z"/></g><path class="cls-8" d="M0,161.67c-.33,14.14,1.88,33.08,6.36,51.76A210.24,210.24,0,0,0,30.65,273,228.5,228.5,0,0,0,62.7,314.4c6,6.18,13.92,6.6,21.58,1.89,6.17-3.79,9.87-12.62,9.07-20.87-.61-6.39-3.85-10.88-7.61-15.2C78,271.28,70.27,262.3,63.82,252a166,166,0,0,1-21.24-50.82,181,181,0,0,1-4.81-41.72H.08C.06,160.44.05,160.86,0,161.67Z"/><path class="cls-9" d="M62.23,5.76c-5.75,6.16-11.42,12.45-16.71,19.1A203.4,203.4,0,0,0,13.49,83C5.21,106,.79,129.44.08,159.44H37.77a179,179,0,0,1,7.28-50.12,164,164,0,0,1,28.1-55.43c5-6.38,10.66-12.12,15.77-18.38,6.83-8.37,6.44-21.36-.61-29.19C81-1.81,69.67-2.21,62.23,5.76Z"/><path class="cls-10" d="M131.12,103.31c4.07-4.69,8.45-9.45,11.38-15,4.81-9.13,2.4-21.19-4.46-27.55-8.07-7.49-18.45-8-26.24-.83a131.06,131.06,0,0,0-31.62,43.75,140.32,140.32,0,0,0-11.62,48.68c.12,2.29.2,4.08.28,7.08h41.57C109.89,137.44,117,119.59,131.12,103.31Z"/><path class="cls-11" d="M83.22,218.72A130.06,130.06,0,0,0,99.1,242.57c4.5,5.42,9,10.94,14.13,15.56,7.51,6.78,18.47,5.78,25.84-1.5,6.82-6.72,9.2-18.72,4.52-27.62-2.82-5.37-6.85-10-10.81-14.51-9.92-11.19-17.58-23.57-20.61-39.29a97.56,97.56,0,0,1-1.76-15.77H68.84c.18,5,.35,9.44.87,14.21A128.43,128.43,0,0,0,83.22,218.72Z"/><path class="cls-12" d="M715,158c.33-14.15-1.88-33.18-6.36-51.86A210.43,210.43,0,0,0,684.37,46.5a228.72,228.72,0,0,0-32-41.4c-6-6.17-13.92-6.61-21.57-1.9-6.18,3.79-9.88,12.61-9.08,20.87.62,6.38,3.86,10.88,7.61,15.19,7.78,8.94,15.48,17.92,21.92,28.24a166.73,166.73,0,0,1,21.24,51,182.73,182.73,0,0,1,4.81,41.92h37.69C715,159.44,715,158.82,715,158Z"/><path class="cls-13" d="M652.79,313.71c5.75-6.15,11.42-12.45,16.71-19.09a202.25,202.25,0,0,0,32-58c8.27-22.94,12.69-46.2,13.4-76.2H677.25A177.56,177.56,0,0,1,670,210.36a163.6,163.6,0,0,1-28.09,55.33c-5,6.38-10.67,12.06-15.78,18.33-6.83,8.36-6.44,21.33.61,29.16C634,321.31,645.36,321.68,652.79,313.71Z"/><path class="cls-14" d="M583.9,216.37c-4.07,4.69-8.45,9.35-11.38,14.9-4.81,9.13-2.4,21.14,4.46,27.5,8.07,7.49,18.45,8,26.24.81a131.25,131.25,0,0,0,31.62-43.77,139.23,139.23,0,0,0,11.62-48.49c-.12-2.29-.2-3.88-.28-6.88H604.61C605.14,182.44,598,200.08,583.9,216.37Z"/><path class="cls-15" d="M631.8,100.76A130.14,130.14,0,0,0,615.92,76.9c-4.5-5.41-9-10.93-14.13-15.55-7.5-6.78-18.47-5.79-25.84,1.49-6.82,6.73-9.2,18.72-4.52,27.63,2.82,5.37,6.86,10,10.81,14.51,9.92,11.19,17.58,23.76,20.61,39.49a99.92,99.92,0,0,1,1.76,16h41.57c-.17-5-.35-9.64-.87-14.41A129.2,129.2,0,0,0,631.8,100.76Z"/><path class="cls-7" d="M328.29,61.82c.89.63,1.66,1.41,2.58,2a11.11,11.11,0,0,0,2.21,1c2.75.92,5.75,1.5,7.91,3.43.73.66,1.34,1.44,2,2.13a10.12,10.12,0,0,0,2.74,1.88,13.54,13.54,0,0,0-2.85-3.25,21.48,21.48,0,0,0-6.08-4.4c-1-.41-2-.66-3-1a14.28,14.28,0,0,1-2.72-1.33,33.17,33.17,0,0,1-3.88-3,20.91,20.91,0,0,1-3.15-2.88,13.39,13.39,0,0,0-3.58-3.3C321.87,57.11,324.88,59.41,328.29,61.82Z"/><path class="cls-7" d="M17.39,151.44S14.66,70.75,51.58,44.77s6.84,15,6.84,15L24.23,147.34Z"/><path class="cls-16" d="M21.49,185.63S9.18,169.22,9.18,182.9,40.64,292.3,72.1,303.25s-12.31-34.19-12.31-34.19Z"/><path class="cls-7" d="M702.26,148.44S705,67.75,668.07,41.77s-6.83,15-6.83,15l34.19,87.53Z"/><path class="cls-17" d="M698.16,182.63s12.31-16.41,12.31-2.73S679,289.3,647.56,300.25s12.31-34.19,12.31-34.19Z"/><path class="cls-18" d="M232.13,60.52c-2.18,1.55-4.92,2.85-5.66,5.42a18.17,18.17,0,0,0-.3,3.46c-.36,3.74-3.16,6.81-6.28,8.89s-6.67,3.47-9.74,5.62a2,2,0,0,0-.8.84,2.25,2.25,0,0,0,.34,1.7.93.93,0,0,0,.05.1c1.65,3.44,1,7.64-.71,11-2.29,4.47-5.71,9.23-11.21,8.56a8.81,8.81,0,0,1-5.87-3.32,10.51,10.51,0,0,1-2-8.09c.74-4.58,4-8.41,7.73-11.15l-.67-.28a11.64,11.64,0,0,1-3.88-2.94,8.86,8.86,0,0,1-2.28-6.5,12.21,12.21,0,0,1,7.26-9.69c2.19-1,4.59-1.37,6.85-2.17,6.13-2.19,9-5.48,16-3a.44.44,0,0,1,0-.15,7,7,0,0,1,.43-1.43c1.71-4.1,6.89-6.62,11.12-5.05a5.27,5.27,0,0,1,1.6.9,4.06,4.06,0,0,1,.49.52C236.23,55.94,234.32,59,232.13,60.52Z"/><g class="cls-19"><path class="cls-20" d="M425.48,179.42c-.42,5.72-1.32,11.66-4.61,16.35-1,1.43-2.4,2.82-4.15,2.95a3,3,0,0,1-2.41-1.09,2,2,0,0,1-.41-2.22c-.81-.26-1.63.5-1.83,1.32a8.27,8.27,0,0,0,.07,2.53c.27,4-3.11,9.57-4.81,13.14-1.07,2.26-2.58,3.82-3.25,6.36s-.71,4.9-1.23,7.31a19.13,19.13,0,0,1-.8,2.74c-1.22,3.46-3.37,7.4-5.71,9.52-2.7,2.44-7.07,3.3-8.39,6.69-1,2.43.11,5.21-.47,7.75-.89,3.89-5.13,5.87-8.85,7.3-1.77.67-3.72,1.34-5.51,1a5.53,5.53,0,0,1-.79-.24c-2-.82-2.89-4.08-1-5.11a29.48,29.48,0,0,1-9.82,1.9,2.56,2.56,0,0,1-2.33-.81,2.19,2.19,0,0,1-.22-1.47c.32-3.28,2.41-6.14,4.87-8.33s5.33-3.89,7.9-6a32.79,32.79,0,0,0,9.17-11.87c1.68-3.7,2.75-7.83,5.61-10.71,1.51-1.52,3.43-2.59,5-4.06,6.1-5.72,2-20.16.28-27.09-2.52-10-6.15-20-6-30.51.1-5.36,1.23-10.62,2-15.91.46-3.12-.31-5.71,1.31-8.47a16.82,16.82,0,0,1,7.93-6.51,13.94,13.94,0,0,1,1.54-.52,7.25,7.25,0,0,1,3.61-.15,7.77,7.77,0,0,1,4.57,3.86,17,17,0,0,1,2,8.9c-.09,5.79-1.81,12-1,17.81a4.13,4.13,0,0,0,.89,2.26c1.21,1.25,3.24.71,5,.6,4.54-.29,8.64,3.2,10.43,7.37S425.81,174.9,425.48,179.42Z"/><path class="cls-20" d="M215.93,261.68a3.12,3.12,0,0,1-1.5,1.08,25.61,25.61,0,0,1-10.63,2.16,18.42,18.42,0,0,1-10-3c-4.73-3.18-7.47-8.5-10-13.6a16.53,16.53,0,0,1-1.59-4.08c-.66-3.36.84-6.87.14-10.23-.64-3.07-3.09-6-2.12-9-8.12,1.37-17.37.27-23-5.77-4.21-4.55-5.58-11.32-4.22-17.37a27.76,27.76,0,0,1,10-15.22c.59-.48,1.26-1.13,1-1.85-.16-.46-.65-.7-1.07-1-2.65-1.6-3.6-5.16-3-8.2s2.29-5.74,4-8.34c-7.52-6.37-9.3-18.2-4.85-27a25.82,25.82,0,0,1,10.22-10.57,27.92,27.92,0,0,1,2.72-1.4c3.54-1.59,8.11-3.49,11.65-1,5.14,3.71,6.79,12.46,7.6,18.33a56.76,56.76,0,0,1-1.42,21.63c-1.59,6.27-4,12.35-5,18.76-1.4,9.6.65,19.46,4.5,28.36s9.46,16.92,15.4,24.58c4.86,6.27,10.18,12.78,11.26,20.66A3,3,0,0,1,215.93,261.68Z"/><path class="cls-18" d="M203.8,264.92a18.42,18.42,0,0,1-10-3c-4.73-3.18-7.47-8.5-10-13.6a16.53,16.53,0,0,1-1.59-4.08c-.66-3.36.84-6.87.14-10.23-.64-3.07-3.09-6-2.12-9-8.12,1.37-17.37.27-23-5.77-4.21-4.55-5.58-11.32-4.22-17.37a27.76,27.76,0,0,1,10-15.22c.59-.48,1.26-1.13,1-1.85-.16-.46-.65-.7-1.07-1-2.65-1.6-3.6-5.16-3-8.2s2.29-5.74,4-8.34c-7.52-6.37-9.3-18.2-4.85-27a25.82,25.82,0,0,1,10.22-10.57c2.09,7.73-.31,17.09-5.06,23.28-.72,1-1.55,2-1.39,3.18a4.91,4.91,0,0,0,1.29,2.23c6.14,7.81,2.37,19.68,6.58,28.67,1.9,4.1,5.53,8,4.54,12.43-1.07,4.79-7.25,7.5-7.39,12.4-.14,4.68,5.09,7.33,9.23,9.53,2.75,1.47,5.52,3.44,6.56,6.37.94,2.69.27,5.63.36,8.47a15.81,15.81,0,0,0,4.25,10.24c2.06,2.19,4.7,3.73,7.08,5.57,3.54,2.73,6.61,6.31,7.9,10.58A14.57,14.57,0,0,1,203.8,264.92Z"/><path class="cls-18" d="M254.7,35.78a18.82,18.82,0,0,0-12.86,5.57c-2.41,2.36-4,5.8-3.31,9.09-3.06.58-6.28,1.25-8.6,3.33s-3.19,6.1-1,8.28c-5.23,1.42-8.92,6-12.23,10.25a14.55,14.55,0,0,0-3.07,5.46c-.47,2,.17,4.52,2,5.52s4.36.15,6.37-.82c7.86-3.77,13.14-9.25,20.36-13.86a38.49,38.49,0,0,1,10.34-5.11c6.35-1.75,12.87-.28,19.29-1.12,5.57-.73,9.52-1.71,15.29-.32l12,2.87c4.33,1,8.94,2.08,13.18.69s7.67-6.21,5.92-10.31c-1.44-3.36-5.7-5-6.64-8.57a20.23,20.23,0,0,1-.34-3,11.16,11.16,0,1,0-22.18,2.42c-5.29.06-6.72-3.26-9.52-6.65s-7.46-2.82-11.56-2.54C263.52,37.26,259.26,35.75,254.7,35.78Z"/><circle class="cls-21" cx="290.68" cy="169.93" r="113.75" transform="translate(-35.02 255.31) rotate(-45)"/><path class="cls-22" d="M399.91,186.89l1.83-22.66c.21-2.62.86-5.45.69-8.08a36.91,36.91,0,0,0-.75-4.67c0-.11-.79-2.81-.95-2.45q-11.78,27.08-24.29,53.9a60.74,60.74,0,0,0-4.15,10.62A49.66,49.66,0,0,0,371,224.29,119.72,119.72,0,0,0,371.3,237c.23,2.92.67,6.07,2.76,8.12,5.06-2.35,8.68-7.05,11.14-12.06s3.95-10.44,6-15.63c2.28-5.78,5.29-11.31,6.86-17.32A76.24,76.24,0,0,0,399.91,186.89Z"/><path class="cls-22" d="M274.11,284.36c9.56,2.18,19.88,2,28.85-1.92a43.27,43.27,0,0,1-3.16-14.26c-.15-4.21.46-8.39.59-12.59.21-6.3-.64-12.58-1.49-18.83a4,4,0,0,0-.51-1.73c-.76-1.16-2.41-1.23-3.8-1.18-8.48.33-17,.7-25.46.06-4.29-.33-8.59-.92-12.88-.63-5,.33-9.88,1.85-14.88,2.26-6.18.52-12.37-.67-18.42-2-6.57-1.49-13.27-3.3-18.72-7.26-6.34-4.61-8.4-10.86-9.23-18.34,2.08-1,4.57-.3,6.6.78s3.84,2.57,6,3.37a20.88,20.88,0,0,0,6.54.94l16.32.59a37.12,37.12,0,0,0,6.15-.11,18.55,18.55,0,0,0,8.6-3.53c1.9-1.43,4.67-3.27,5-5.83a8.78,8.78,0,0,0-.68-3.83c-2-6.1-4.11-12.27-7.5-17.73-2.13-3.42-4.81-6.68-5.5-10.64-1.09-6.21,3.07-12.12,7.7-16.4,2.44-2.24,5.29-6,8.66-2.5,1.61,1.66,2.12,4.05,2.69,6.28a61.44,61.44,0,0,0,20.79,32.39c3.19,2.58,7.3,4.94,11.2,3.68,1.89-.62,3.67-2.06,5.62-1.7s3.07,2.32,4.27,3.89c4.75,6.16,13.2,7.78,20.89,9,4.45-11.45,16.3-17.94,24.58-27a77.25,77.25,0,0,0,10.87-16.21,163,163,0,0,0,14.75-39.6,34.24,34.24,0,0,0,1.2-10.73c-.62-7-4.9-13-7.92-19.29-2.85-6-5.16-13-11.1-15.9-3.08-1.5-6.63-1.56-10.05-1.55-23.53.09-47.2,2.71-69.63,9.8s-43.65,18.79-60.23,35.49c-5.33,5.37-10.23,11.34-13.23,18.29-2.91,6.75-3.92,14.14-6.14,21.14-3.51,11-10.08,21.41-10.29,33-.12,7.05,2.17,13.93,5.09,20.35a104.91,104.91,0,0,0,23.22,32.49c10.26,9.78,22.77,15.51,33.86,24C251.69,277.13,263.9,282,274.11,284.36Z"/><path class="cls-23" d="M382.67,123.05c16.22,31,19.42,75.31-11.86,95-12.52,7.87-28.44,8.82-42.87,5.59a82.29,82.29,0,0,1-63.84-89c.91-8.55,3.23-17.1,8-24.27,6.73-10.19,17.94-16.87,29.77-19.92C324.31,84.6,352.54,86,369.41,104A87.4,87.4,0,0,1,382.67,123.05Z"/><path class="cls-24" d="M402.16,147.69a109.27,109.27,0,0,1-4.29,19.75c-3.92,4.65-4.48,10.75-6.35,16.34A44.56,44.56,0,0,1,382.77,202c-1.73,3.28-5.13,5.4-5.63,9.35-3,7.31,1,14.56.33,22-.25,3.63,1.7,8.73-1,11.56,1,.27,2.38-.89,3.33-1.39,1.29-1.49,3.22-1.94,4.72-3.18,5.16-3.64,7.31-9.88,11.1-14.68,2.26-2.64,5.81-3,8.69-4.68,2.37-.95,4.45-2.84,6.48-4.16-1.28-6-2.4-12.27-4.17-18.13,1.67-3.36,2.47-7.45,5.32-10.1.24-.32,0-.76.09-1.11.92-8.1-2.37-15.29-5.55-22.44C405,159.32,403.67,153.22,402.16,147.69Zm-129.56-8c-4.94-1.09-11.35-.5-13.22,5a10.07,10.07,0,0,0-.59,1.87c-1.53,7.18,4.83,13.67,6.45,20.47,2.75,7.14,5.21,15.85,12.93,19,2.38,1.55,5.91,2.59,8.31.56a16.08,16.08,0,0,0,.29-6.95,14.57,14.57,0,0,1-1.75-5.23,21.55,21.55,0,0,1-.21-5.5v0c.36-5.19,1.7-10.42-.85-15.45C283.45,146.9,278.05,142.39,272.6,139.67Zm81.67-43.89c-.89-2.63.39-5.51.14-8.28A15.1,15.1,0,0,0,353,83l-4-9.29,1.45-.07a81.7,81.7,0,0,0-6.09-6.12,34.48,34.48,0,0,0-4-3.07c-2.88-1.89-6.46-2.44-9.18-4.62-3.52-2.83-7-5.74-10.57-8.48a.47.47,0,0,0-.27-.12.39.39,0,0,0-.27.15,13.82,13.82,0,0,0-2.48,3c-3.08-1.46-4.9-4.37-7.49-6.51-.8-.67-8.4-8.28-8.47-8.25-3.33,1.74-6.32,6.3-10.3,5.31a13.62,13.62,0,0,1-4.95-3c-.75-.6-3.68-2.16-4-2.92a6.84,6.84,0,0,0-4.33-3.84c-2.5-1.69-5.15-3.34-7.64-5a73.22,73.22,0,0,1-13.75,16.11c-1.9,1-4.08,1.84-5.43,3.59-.51.19-1.09-.32-1.49-.61-1-1-2.85-1.17-3.49-2.54-5.15,3.28-7.58,9.57-10.85,14.36C229.56,68.73,220.24,73,214,80.43c-5.85,6.58-11.68,15.09-20.21,17.88-1.33,3.3-2.34,7.36-6.24,8.41-3.43,3.84-7.78,6.28-12.15,8.86,2.25,1.45,3.36,15.68,2.13,17.53-.61,2-2,3.83-2.77,5.67a28.68,28.68,0,0,1,1.11,9.65,88.42,88.42,0,0,0-6.36,10.51c2.88,5.82,3.44,12.82,5.56,19-1.27,4.13,2,8.22,1.49,12.7,3.34,6.44-.78,11.52,0,17.77,3.81,9.42,7.81,18.91,14.82,26.11.6,2.76-3,9-.07,10.7,2.51,1.75,4.35,4.5,7.39,5.39,1.66,1.1,2.37,3.26,4.31,4.17,2.74,1,3.27,3.79,3.1,6.39,0,.55.16,2-.59,2.29,5,3.42,8.2,1.18,7.75,9,.1,1,0,2,1,2.33a25.55,25.55,0,0,0,8.28-.15c4.53.8,8.43,8.13,11.76,11.47,4.52-1.39,9.75-2.42,14.41-1.23.71-.29.73.49,1,.84a13,13,0,0,0,3.45,3.29A107.62,107.62,0,0,0,267,285c.67-.25,2.8-1.58,3.5-.86.63,2.48,4.28,1.87,6.21,2,6.39,1,13.44,1.39,19.42-1.23,1.14-.54,2.49-1.34,3.72-.79a8.26,8.26,0,0,1,2.49-1.55c-18.29-3.7-5.29-19.76-9.29-32.1-1.15-2.36,1.17-8.52-3.31-7.2-7.61.82-15.16,3.62-22.83,2.53-3.84-1.52-6-6.76-10.44-7.2-19.87,3.39-24.29,9.21-44.36-1.26-16.49-3.22-25.63-21.49-27-37,0,0,0,0,0-.07,2.77-2.7,6.79,1.3,9.23,2.64,13.08,6.44,37.56,3.19,50.78-2.27a25.52,25.52,0,0,1-3-5.77,65.19,65.19,0,0,0-2.69-6.34,27.29,27.29,0,0,0-3.06-2.44c-3.5-2.5-7.41-4.93-8-9.54.18-7.17,1.74-14.36.16-21.5,3.13-5.32,9.46-8.82,14.84-11.47,10,9.12,5.59-5.67,16.93-14.59,15.38-6.1,25.79,13.33,32.05,24.63,2.68,11.22-5.21,19.55,3.1,30,2,4.9,5.81,8.37,8.5,12.81,1.12,1.92,3.83,1.85,5.67,1.12,12.6-4.58,20.56-16.76,29.79-25.92,6.11-7.25,8.58-16.39,12-25,2.1-5.28,7.09-8.88,10.2-13.66l.26-.41a15.74,15.74,0,0,0,1.8-3.45,16.53,16.53,0,0,0,.71-4.71c.13-3.71-.81-7.64.07-11.23,1.09-4.49-6.17-11.31-8.64-14.77A10.88,10.88,0,0,1,354.27,95.78Z"/><path class="cls-7" d="M249.4,51a17.26,17.26,0,0,1-3.33-1.29c-.31-.17-.83-.26-.91.09a.54.54,0,0,0,0,.18c.19,1.74.91,4.74,2.71,5.45,1.45.56,2.52,1.8,3.86,2.59a7,7,0,0,0,4.15,1,13.84,13.84,0,0,0,3.86-1.1L264,56.25c1.8-.71,3.7-1.49,4.78-3.08-2.56-1.77-6.49-3.44-9.6-2.67-1.2.3-2.29.8-3.45,1.13a8.86,8.86,0,0,1-3.73-.09c-.56-.09-1.13-.18-1.69-.3C250,51.18,249.7,51.11,249.4,51Z"/><path class="cls-7" d="M275.67,39.31c1.05.87,2.25,1.55,3.29,2.42,1.28,1.07,2.31,2.39,3.53,3.52a15,15,0,0,0,3.67,2.48,5,5,0,0,0,3.43.58,6,6,0,0,0,2-1.17,9,9,0,0,0-3.83-3A39.2,39.2,0,0,1,283.32,42a5.15,5.15,0,0,1-1.51-1.39c-.31-.46-.5-1-.82-1.44a5.89,5.89,0,0,0-1.33-1.26l-2.37-1.83a26.43,26.43,0,0,0-6-3.93c.77,1.06.9,2.38,1.5,3.54A11.5,11.5,0,0,0,275.67,39.31Z"/><path class="cls-7" d="M254.44,65.07a14.07,14.07,0,0,1-2.74-2.71c-.39-.5-.94-.85-1.35-1.34-.2-.24-.6-1.33-.78-1.42,3.12,1.6,6.37,1.65,9.78,2.19a3.51,3.51,0,0,1,1.23.37,1.31,1.31,0,0,1,.69,1,1.84,1.84,0,0,1-.42,1.07c-.46.7-1,1.4-1.47,2.07a1.35,1.35,0,0,1-.51.47,1.22,1.22,0,0,1-.63,0A8.44,8.44,0,0,1,254.44,65.07Z"/><path class="cls-7" d="M305.3,49.7a1.3,1.3,0,0,1,.2.85,4,4,0,0,1-.26.56c-.21.59.23,1.22.7,1.64,1.71,1.54,4.09,2.23,5.72,3.87a1.26,1.26,0,0,0,.7.46,1.12,1.12,0,0,0,.67-.22L316.36,55a81.69,81.69,0,0,1-7.13-5.84c-2.61-2.5-4.89-5.35-7.66-7.67a12.69,12.69,0,0,1,.69,2c.23.52.45,1,.7,1.55C303.73,46.55,304.52,48.12,305.3,49.7Z"/><path class="cls-7" d="M329.29,61.82c.89.63,1.66,1.41,2.59,2a10.78,10.78,0,0,0,2.2,1c2.75.92,5.75,1.5,7.91,3.43.73.66,1.34,1.44,2,2.13a10.12,10.12,0,0,0,2.74,1.88,13.72,13.72,0,0,0-2.84-3.25,21.67,21.67,0,0,0-6.09-4.4c-1-.41-2-.66-3-1a14.58,14.58,0,0,1-2.72-1.33,33.17,33.17,0,0,1-3.88-3,20.37,20.37,0,0,1-3.14-2.88,13.58,13.58,0,0,0-3.59-3.3C322.87,57.11,325.88,59.41,329.29,61.82Z"/><path class="cls-7" d="M357.39,110.57a9.4,9.4,0,0,0-1.17-3c-3.12-5.87-6.77-12.22-13-14.43l6.21-.54c-1.36-3.8.3-8.27-1.38-11.94a12.39,12.39,0,0,0-3.41-4.05c-3.13-3.14-7.44-5.55-11.36-7.54-7.49-3.82-15.61-6.21-23.77-8.09a99.6,99.6,0,0,0-10.63-2.35c-1.34-1.31-2.71-2.59-4.12-3.82a3.62,3.62,0,0,0-.9-.62,3.9,3.9,0,0,0-1.92,0,10.83,10.83,0,0,1-2.46-.36,21.34,21.34,0,0,0-5.33-.62l2.11,4a.49.49,0,0,1,.09.28c0,.23-.25.36-.46.46a13.86,13.86,0,0,0-6.94,6.85,17.44,17.44,0,0,0,6,3.47,4.53,4.53,0,0,0,2.58,1.61c1.61.37,3.34.19,4.89.76a9.48,9.48,0,0,0,1.37,6.08,15.72,15.72,0,0,1-2.93.81c-1.36.46-2.6,1.29-4,1.77a24.17,24.17,0,0,1-8.67,1.38,15.08,15.08,0,0,0-3.08.06,10.39,10.39,0,0,0-2.15.7c-4.73,1.94-9.28,4.1-14.18,5.54l-17.62,5.17a25.38,25.38,0,0,0,1.2,12.28A122,122,0,0,1,259,98.91a49.7,49.7,0,0,0-10.22,8.69l2.56,4.65a12.48,12.48,0,0,1,5.45-1.39,12.82,12.82,0,0,0-5.13,8.58,38,38,0,0,0,8.32-2.13,1.83,1.83,0,0,0-.29,2.44,42.93,42.93,0,0,1,26.75,10.91,132.65,132.65,0,0,1,13.35-10.36c-1.9,3.9-3.61,7.89-5.14,11.94a3.25,3.25,0,0,0-.22,2.47c.44.91,1.59,1.21,2.25,2,1.14,1.31.43,3.33-.33,4.9a120.16,120.16,0,0,0,11.45,9.06,21.81,21.81,0,0,1,8.44-7.9,180.78,180.78,0,0,0-4,20.23q5.44.43,10.91.36a1.86,1.86,0,0,0,1.28-.33,1.89,1.89,0,0,0,.47-1.12c.49-2.77,1-5.54,1.48-8.31l2.29,4.07a45.11,45.11,0,0,0,11.84-9.4,5.41,5.41,0,0,0,1.31-2,5.79,5.79,0,0,0-.06-2.55L339.94,133c1,2.29,1.95,4.58,2.92,6.88,0-.09,3.14-4.9,3.39-5.59.82-2.25,1.25-3.63.72-6l-2-9a48.56,48.56,0,0,1,5.82,7.5c3.64-3.05,5-8,6.16-12.6A9.31,9.31,0,0,0,357.39,110.57Z"/><path class="cls-7" d="M258.33,75.69l-.18.28a2.37,2.37,0,0,1-.86.94,2.44,2.44,0,0,1-1.44,0,13.85,13.85,0,0,0-4.93-.11l4.5,2.08a10,10,0,0,0-3.62,4.38L247,81.69a4.89,4.89,0,0,1-2.38-1.33c-1.8,2.14-3.23,2.42-5.57,3.76s-4.78,3.21-7.5,4.16a34.48,34.48,0,0,0,2-5.83,12.73,12.73,0,0,0-3.49-.8c4.46-5.27,9.33-10.08,14.19-15a98,98,0,0,1,17.79,5.46C261.05,71.72,259,74.62,258.33,75.69Z"/><path class="cls-7" d="M262.92,143.77c1,1.38,1.8,2.82,2.72,4.23s2.31,2.66,3.08,4.37a17.07,17.07,0,0,1,5-3q-1.07,5.08-2.14,10.18a2.15,2.15,0,0,0-.05.94,2.35,2.35,0,0,0,.68.95,20.84,20.84,0,0,1,3.27,5,4.33,4.33,0,0,1,1.93-2.14,24.89,24.89,0,0,0,.85,6,1.64,1.64,0,0,1,2.22.15,4.87,4.87,0,0,1,1.11,2.18,20.23,20.23,0,0,0,1.21-11.32c-1.06-7.06-3.05-14.77-9.74-18.35C269.61,141,266.52,142.81,262.92,143.77Z"/><path class="cls-7" d="M408.36,178.85a1.52,1.52,0,0,1,.19,1.05,1.33,1.33,0,0,1-.38.56c-1.69,1.81-3.56,3.72-6,4.11-.73-2.1-1.45-4.21-2.17-6.31-.38-1.1-1.18-2.46-2.31-2.17.16,0,1.58-7.64,1.86-8.44.41-1.22,1.52-5.55,3.71-4.69,1.33.53,1.64,5.93,2,7.33A58.22,58.22,0,0,0,408.36,178.85Z"/><path class="cls-7" d="M389.94,196a13.38,13.38,0,0,1-1.32,2.14,19.3,19.3,0,0,0-1.93,2.32,4.08,4.08,0,0,0,3.23,6.07q1.54-2.72,3.07-5.43a4.94,4.94,0,0,0,.54-1.17,5.42,5.42,0,0,0,.09-1.45,47.81,47.81,0,0,1,.5-7.84c.47-3.17,2-6.15,2.29-9.34a9.59,9.59,0,0,0-3.16,6.29C392.86,190.43,391.26,193.39,389.94,196Z"/><path class="cls-7" d="M209.84,117.87c1.32,1.91,3.17,4,5.45,3.64l-3.13,5.14c2.61,1.65,6.27,1.62,8.25,4,1.39,1.65,1.54,4.06,2.86,5.77,1.6,2.07,4.44,2.61,7,3-1.69-2.18-3.37-4.37-5.05-6.55a7.23,7.23,0,0,1-1.8-3.5c-.17-1.68.77-3.59-.25-4.93s-2.88-1.05-4-2.06q3.52-7.19,7.06-14.38l-3.91,2.16c-2.1,0-4-.79-6.17-.49C222,112.46,212.25,116.85,209.84,117.87Z"/><path class="cls-25" d="M395.43,152.09c1.93-8.78-1.69-17.83-6.35-25.52a13.76,13.76,0,0,0-3.63-4.34c-4.29-3-10.26-.1-11.39,4.7-1,4.3.59,11.09,1.95,15.34C377.93,148.27,392.66,164.72,395.43,152.09Z"/><path class="cls-26" d="M373.14,190.93a4.41,4.41,0,0,0,5.32-.3,6.57,6.57,0,0,0,2.14-5.13,13.34,13.34,0,0,0-1.47-5.51,28.59,28.59,0,0,0-4.21-6.53,4.39,4.39,0,0,0-2.31-1.67,3.18,3.18,0,0,0-3.26,1.88C367.56,177.32,369.84,188.39,373.14,190.93Z"/><path class="cls-27" d="M309,237c-18.1,4.5-5.9,27.77,7.46,29.42,6.78.83,14.12-3.66,15.53-10.35a14.59,14.59,0,0,0-3.69-12.44,22.13,22.13,0,0,0-11.61-6.43A16.67,16.67,0,0,0,309,237Z"/><path class="cls-28" d="M215,235.25a5.49,5.49,0,0,0,3,.8c1.65-.16,2.83-1.61,3.81-2.93a4.73,4.73,0,0,0,1.05-2.05,4.33,4.33,0,0,0-.49-2.27,35.11,35.11,0,0,0-11.51-14.49c-2.85-2.1-11.83-8.11-14.63-3.45-2,3.33,2.93,9.86,4.73,12.36A39.08,39.08,0,0,0,215,235.25Z"/><path class="cls-29" d="M214.76,86.68c3.68-3.67,7.09-7.63,11-11.13,5.68-5.14,12.25-9.19,18.78-13.21a5.13,5.13,0,0,1,2.24-.93q-2.1-4.6-3.92-9.33a25,25,0,0,0-4.57,7.75c-1,2.8-3.14,4.68-5.46,6.62-1.62,1.35-3.4,2.51-5.07,3.8a61.21,61.21,0,0,0-6.87,6.41c-2.06,2.17-4.28,4.11-6.36,6.27-1.88,1.94-3.81,3.78-5.68,5.69-1,1-1.92,1.93-2.9,2.87l-.4.37c-.59.56-2.46,2.89-3.23,2.93C207.33,94.52,211.38,90.06,214.76,86.68Z"/><path class="cls-29" d="M194.43,105.24a4.09,4.09,0,0,0,.45-.56,3.11,3.11,0,0,1,1.85-1.17l-2.28-1.75a1.66,1.66,0,0,1-.7-1,8.09,8.09,0,0,1-.53,2.18,8.62,8.62,0,0,1-1.66,2.33c-.62.68-1.27,1.34-1.93,2a15.11,15.11,0,0,0,4.19-1.67A2.3,2.3,0,0,0,194.43,105.24Z"/><path class="cls-29" d="M294.35,51.65a34.25,34.25,0,0,1,3.82,2.65c.88.66,1.35,1.88,2.28,2.35a5.68,5.68,0,0,0,2,.46,31.43,31.43,0,0,1,7.46,1.83A17.73,17.73,0,0,1,301.7,52,5.65,5.65,0,0,1,304,50.27c-.72.33-2.47-2.77-2.68-3.26s-.59-4-.72-3.93l-2.36,1.36c-1.32.76-7.55,3.9-6.72,5.85C291.8,51,293.74,51.31,294.35,51.65Z"/><path class="cls-29" d="M326.28,60.93a40.38,40.38,0,0,1-6.17-7.73c-1.33,1.67-2.43,3.42-3.69,5.1,2.16.62,4.35,1,6.47,1.86A6.93,6.93,0,0,0,326.28,60.93Z"/><path class="cls-29" d="M179.29,132.51c1.17-.37,1.8-1.58,2.38-2.66,2.74-5.14,6.9-9.7,8-15.42-.15.78-4.24,1-4.86,1.1-2.55.36-4.92,1-7.49.23.34,2.84,1.54,5.35,1.85,8.19C179.29,124.84,180.12,132.25,179.29,132.51Z"/><path class="cls-29" d="M276.09,53.72a29.32,29.32,0,0,0-11.25,9.71A24.6,24.6,0,0,1,270,65.94a5,5,0,0,0-2.1,2.53,54.86,54.86,0,0,0,18.44,5.34,40.78,40.78,0,0,1-12.2-7.29,48.8,48.8,0,0,1,8.44-10.45,20,20,0,0,1-6.39-5.19c.74.91,4,.15,5,.19a39.8,39.8,0,0,1,5.73.85l-7-5.11c-1.09-.79-2.18-1.59-3.22-2.46A33.4,33.4,0,0,1,272,39.53c-.66-.84-1.28-1.71-1.87-2.59-.83-1.23-.6-1.54-1.76-.88-1.78,1-3.48,3.85-4.88,5.4-.68.74-3.88,5.28-4.75,5.24a22,22,0,0,1,10,2.92C271.16,51,274.2,51.72,276.09,53.72Z"/><path class="cls-29" d="M344.81,150c-2.8,4.58-4.9,9.55-7.49,14.26a78.88,78.88,0,0,1-26.67,28.43,5.63,5.63,0,0,1-2.67,1.07,5.06,5.06,0,0,1-3-1.23,24,24,0,0,1-9.29-14.27c-1.57-7.35.41-15.08-.87-22.49-1.86-10.79-10.17-19.15-18.06-26.75a14.47,14.47,0,0,0-3.14-2.49,10.86,10.86,0,0,0-6.2-.86,21.87,21.87,0,0,0-15.85,9.91c-1.34,2.14-2.86,4.86-5.39,4.79-.83,0-1.63-.36-2.45-.32a5.16,5.16,0,0,0-2.19.83l-8.37,4.66c-2.42,1.35-5,2.82-6.29,5.24-2,3.65-.65,8.13-.4,12.29.21,3.56-.45,7.14-.15,10.69.47,5.81,4.73,10.46,10.06,12.35-3.5-2.5-7.41-4.93-8-9.54.18-7.17,1.74-14.36.16-21.5,3.13-5.32,9.46-8.82,14.84-11.47,10,9.12,5.59-5.67,16.93-14.59,15.38-6.1,25.79,13.33,32.05,24.63,2.68,11.22-5.21,19.55,3.1,30,2,4.9,5.81,8.37,8.5,12.81,1.12,1.92,3.83,1.85,5.67,1.12,12.6-4.58,20.56-16.76,29.79-25.92,6.11-7.25,8.58-16.39,12-25,2.1-5.28,7.09-8.88,10.2-13.66l.26-.41A54.38,54.38,0,0,0,344.81,150Z"/><path class="cls-29" d="M405.86,216.42a27.65,27.65,0,0,1-6.09-10.83,40.75,40.75,0,0,0,4.3-4.61,3.21,3.21,0,0,0,.93-2c0-1.47-.86-2-.15-3.47a22,22,0,0,1,2.33-3c1.43-1.89,3.21-3.56,3.32-6.06-1.22,1.13-2.88,1.25-4.35,2-2,1-3.91,2.08-5.87,3.1a27.87,27.87,0,0,1-2.49-6c-1.38,7.08.13,14.48-1.17,21.57a38.23,38.23,0,0,1-9.92,6.14c-.77-2.79-1.53-5.59-2.3-8.39a16.73,16.73,0,0,0-3.53,7.56,32.91,32.91,0,0,0-.39,5.87l-.18,23.53c3.31-1.64,5.64-4.75,7.55-7.92s3.6-6.53,6.18-9.18c3.61-3.71,8.61-5.66,13.44-7.5C406.89,217.37,406.29,216.88,405.86,216.42Z"/><path class="cls-29" d="M283.46,174.31c-.5,2.38-.21,4.42-1.71,6.55a2.21,2.21,0,0,1-.68.68,2.28,2.28,0,0,1-1.63.08c-7.72-1.66-10.21-9.54-11.45-16.4a16.76,16.76,0,0,0-1.15-4.49,18,18,0,0,0-2.34-3.31,30.57,30.57,0,0,1-4.14-7c-.33-.8-.79-3.23-1.57-3.87-1.53,7.18,4.83,13.67,6.45,20.47,2.75,7.14,5.21,15.85,12.93,19,2.38,1.55,5.91,2.59,8.31.56a16.08,16.08,0,0,0,.29-6.95,14.57,14.57,0,0,1-1.75-5.23,21.55,21.55,0,0,1-.21-5.5C284.4,170.68,283.84,172.46,283.46,174.31Z"/><path class="cls-29" d="M290.64,274.82c-.71-3.64,0-7.39.41-11.08a65.46,65.46,0,0,0,.1-13.64,2.52,2.52,0,0,0-.6-1.68c-.68-.61-1.74-.34-2.6-.07-4.51,1.38-9.29,1.57-14,1.75-2.53.1-5.25.14-7.37-1.26s-4.79-1.38-7.29-1.76a58.84,58.84,0,0,0-7.25-.78,29.28,29.28,0,0,0-8,.95c-2.32.61-4.57,1.5-6.94,1.95a36.81,36.81,0,0,1-8.33.27c-3.5-.15-7.4-.33-10.4-2.33-1.58-1-3-2.29-4.62-3.31-1.83-1.11-3.63-2.24-5.47-3.33-3.4-2.06-6.93-4.26-9-7.69-1.33-2.26-3.81-3.34-5.32-5.5a36.81,36.81,0,0,1-3.08-5.66c-3-6.5-6.1-13.26-6.18-20.44,0-.32,0-.73.35-.82h0s0,0,0-.07c2.77-2.7,6.79,1.3,9.23,2.64,13.08,6.44,37.56,3.19,50.78-2.27a25.52,25.52,0,0,1-3-5.77c0,1,.1,2,.16,3a.66.66,0,0,1,0,.32.29.29,0,0,1-.09.12c-.42.21-1.58-1.28-2-1.43a9.48,9.48,0,0,0-6.07,0,32.65,32.65,0,0,0-4.93,2.59c-4.9,2.66-10.65,3.36-16.22,3.27a36,36,0,0,1-15.2-3.14c-2.87-1.4-5.46-3.34-8.27-4.86a3.71,3.71,0,0,0-1.57-.53,5.67,5.67,0,0,0-2,.63c-1.12.42-2.28,1.1-3.25.41a4.17,4.17,0,0,1-1.3-2.58l-3.24-14a10.87,10.87,0,0,1-.34-2,15.71,15.71,0,0,1,.42-3.12,42.09,42.09,0,0,0,.36-6.05c0-.82.07-1.63.11-2.45l.31.21c1.21.94,2,2.32,3.14,3.24,1.64-2.12,2.79-4.93,4.1-7.29.15-.26.37-.56.66-.49s.35.37.42.63a6.56,6.56,0,0,0,2.73,3.9,1.28,1.28,0,0,0,1.76,0c4.11-3,3.16-9.83,6.84-13.32-.28,1,1.09,1.9,2.12,1.59a4.68,4.68,0,0,0,2.27-2.21l11.91-18.85-9.31,11a2.84,2.84,0,0,1-3.57,1.25L197,143.5a20.56,20.56,0,0,0-2.5,9.55,1.56,1.56,0,0,1-1.22,1.94l-5.07,1.86a1.52,1.52,0,0,1-1,.13c-.25-.09-.45-.3-.71-.33a1.15,1.15,0,0,0-.9.48l-3.49,3.67-2.82-3.25c.19-1.34.41-2.68.67-4a31,31,0,0,1-9.6,5.54,69.53,69.53,0,0,1,5.37,20.83,67.42,67.42,0,0,0,1,7.38c.8,3.54,2.43,6.82,3.49,10.28a9.05,9.05,0,0,1,.5,3.29c-.15,1.83-1.26,3.41-2.16,5a5,5,0,0,0-.77,2.27,5.45,5.45,0,0,0,.46,1.94,78.52,78.52,0,0,0,14.07,23.64c.94,1.09.67,2.53.22,3.91s-1.13,2.75-.89,4.16,1.47,2.62,2.62,3.62a48.14,48.14,0,0,0,5,4,9.13,9.13,0,0,1,1.69,1.32c.45.5.74,1.1,1.18,1.61.87,1,2.23,1.54,3.29,2.38a6.33,6.33,0,0,1,2.35,4.72c0,.55,0,1.1,0,1.65a3.93,3.93,0,0,0,1.6,2.73c.84.59,1.88.84,2.75,1.38,2.75,1.7,2.72,4.75,2.8,7.59a3.74,3.74,0,0,1,1.56-.22l6.62-.07a3.43,3.43,0,0,1,1.8.33,14,14,0,0,1,3.76,4.06,45.16,45.16,0,0,0,5.91,6.74,53.25,53.25,0,0,0,7.35-.77,14.73,14.73,0,0,1,3-.35,14.41,14.41,0,0,1,2.25.35c1.46.32,4,.34,4.76,1.94.33.72.56,1.6,1.28,1.9a2.37,2.37,0,0,0,1.53-.06c1.68-.46,3.36-.92,5-1.36a43.65,43.65,0,0,0,5.54-1.79c2-.85,4.09-2.05,6.14-1.4.49,1.27,1.68,1.46,3,1.7a65.54,65.54,0,0,0,17.47.58,15,15,0,0,0,2.6-.44,8.35,8.35,0,0,0,3.14-1.7C294.06,281.77,291.35,278.47,290.64,274.82Zm-40.71-1.56a4.24,4.24,0,0,1-2.26.51c-2.33-.33-3.17-4-5.52-4A4.19,4.19,0,0,0,239.6,271L236,273.88q-2.28-5.38-4.55-10.77a1.42,1.42,0,0,0-.39-.59,1.34,1.34,0,0,0-.91-.16c-.91.06-5,.64-5.28-.17-.94-2.52-.33-6.28-2.71-8.31a56.47,56.47,0,0,0,37.13,13.35A37.49,37.49,0,0,1,249.93,273.26Z"/><path class="cls-29" d="M176.91,148.13a22.57,22.57,0,0,0,2.12-5.25c.36-1.26,1.71-3.51,1.58-4.79-.09-.94,0-.42-.78-.35-.57,0-1.16.26-1.75.31-1,.08-1.57-.11-1.72,1-.18,1.33.68,3.17.72,4.58C177.11,144.69,177.45,147.21,176.91,148.13Z"/><path class="cls-18" d="M382,109.93c-4.77,2.24-10.43,1.87-15.41.16a2.74,2.74,0,0,0-2.28-.13c-2,1.18-4.23,6.06-3.16,8.19a8.89,8.89,0,0,0,1.77,2.07,10.68,10.68,0,0,1-.91,15c-1.9,1.56-4.77,2.35-6.8,1-3.67,4.77-8,9.91-13.7,11.23a12.38,12.38,0,0,1-1.84.29c-2.83.23-6-.84-7.23-3.43-1.75-3.77.95-10.53,3.4-13.5a7.83,7.83,0,0,1,6.07-3.06c1.89.08,3.85,1.08,5.58.32a4.15,4.15,0,0,0,2.21-3.27,16.58,16.58,0,0,0-.15-4.1,10.6,10.6,0,0,1,.31-4.66c1-2.75,3.9-3.45,6.2-4.74,2.09-1.16,4-3.23,3.89-5.63a10,10,0,0,1-.08-1.89,4.47,4.47,0,0,1,.71-1.59c1.87-2.91,4.31-5.55,5.29-8.86s-.24-7.67-3.57-8.58a13.66,13.66,0,0,0-2.56-.29c-11-.79-17.59-14.1-14.13-24a4.58,4.58,0,0,0,.43-3c-.6-1.76-3-1.81-4.88-1.7a31.16,31.16,0,0,1-10.34-1.15,11.86,11.86,0,0,1-5.21-2.71,5.31,5.31,0,0,1-1.49-5.41c.8-2.2,3.22-3.41,6-3.79,4.16-.58,9.16.65,11,3.09,1.06,1.45,1.71,3.23,3.09,4.37,2.81,2.31,6.95.94,10.5.09,5.23-1.23,11.55-.24,16.74,1,2.45.56,5,1.43,6.64,3.3A9.9,9.9,0,0,1,380.18,62,29.85,29.85,0,0,1,378,69.66a10.82,10.82,0,0,1,8.58,11c-.22,3.06-2.14,6.26-.57,9.16.69,1.29,1.68,2.42,2.28,3.75C390.87,99.35,387.44,107.39,382,109.93Z"/><path class="cls-20" d="M382.77,104.87a14.47,14.47,0,0,1-4.48,3.85c-4.37,2-8.08-.85-12.34-1.19a7.61,7.61,0,0,0-6.08,1.93c-2.81,2.87-3.88,9.16-1.3,12.41.84,1.06,2,1.88,2.58,3.1,1.27,2.74-1.11,5.9-3.85,7.14s-5.89,1.39-8.6,2.69-4.9,3.79-6.91,6.17a3.53,3.53,0,0,0-.93,1.7,4.92,4.92,0,0,0,.52,2.09,5,5,0,0,1,.14,2.63,12.38,12.38,0,0,1-1.84.29c-2.83.23-6-.84-7.23-3.43-1.75-3.77.95-10.53,3.4-13.5a7.83,7.83,0,0,1,6.07-3.06c1.89.08,3.85,1.08,5.58.32a4.15,4.15,0,0,0,2.21-3.27,16.58,16.58,0,0,0-.15-4.1,10.6,10.6,0,0,1,.31-4.66c1-2.75,3.9-3.45,6.2-4.74,2.09-1.16,4-3.23,3.89-5.63a10,10,0,0,1-.08-1.89,4.47,4.47,0,0,1,.71-1.59c1.87-2.91,4.31-5.55,5.29-8.86s-.24-7.67-3.57-8.58a13.66,13.66,0,0,0-2.56-.29c-11-.79-17.59-14.1-14.13-24a4.58,4.58,0,0,0,.43-3c-.6-1.76-3-1.81-4.88-1.7a31.16,31.16,0,0,1-10.34-1.15,11.86,11.86,0,0,1-5.21-2.71,5.31,5.31,0,0,1-1.49-5.41c.8-2.2,3.22-3.41,6-3.79.09.24.19.49.27.75a11.62,11.62,0,0,0,11,7.74,3.84,3.84,0,0,1,2.69.45,6.24,6.24,0,0,1,1.11,2c.82,1.56,2.69,2.36,3.5,3.93,1.05,2,0,4.44-.49,6.67C345.9,75,358.72,86,368.9,81c-2.73-2.39-5.51-4.85-7.28-8s-2.36-7.24-.56-10.4a28.56,28.56,0,0,0,16.42,16.75A7.86,7.86,0,0,0,376,86.05a23.58,23.58,0,0,0,2.78,6.55,5.31,5.31,0,0,0-3.3,4.08c-.31,2.1.72,3.65,2.1,5.07C378.08,102.25,382,105.72,382.77,104.87Z"/><path class="cls-18" d="M226.81,44.6c-2.18,1.55-4.92,2.85-5.66,5.42a19,19,0,0,0-.31,3.46c-.35,3.74-3.16,6.81-6.27,8.89s-6.67,3.47-9.75,5.62a1.94,1.94,0,0,0-.79.84,2.21,2.21,0,0,0,.34,1.7,1,1,0,0,1,0,.1c1.65,3.44,1,7.64-.71,11-2.29,4.47-5.71,9.23-11.2,8.56a8.83,8.83,0,0,1-5.88-3.32,10.5,10.5,0,0,1-2-8.09c.74-4.58,4-8.41,7.73-11.15-.22-.09-.45-.18-.67-.29a11.48,11.48,0,0,1-3.88-2.93,8.86,8.86,0,0,1-2.28-6.5,12.21,12.21,0,0,1,7.26-9.69c2.19-1,4.59-1.37,6.84-2.17,6.14-2.19,9-5.48,16-3a.83.83,0,0,1,0-.15,7,7,0,0,1,.43-1.43c1.71-4.1,6.89-6.62,11.12-5a5.11,5.11,0,0,1,1.59.9,3,3,0,0,1,.49.52C230.91,40,229,43.05,226.81,44.6Z"/><path class="cls-20" d="M226.81,44.6c-2.18,1.55-4.92,2.85-5.66,5.42a19,19,0,0,0-.31,3.46c-.35,3.74-3.16,6.81-6.27,8.89s-6.67,3.47-9.75,5.62a1.94,1.94,0,0,0-.79.84,2.21,2.21,0,0,0,.34,1.7,1,1,0,0,1,0,.1c1.65,3.44,1,7.64-.71,11-2.29,4.47-5.71,9.23-11.2,8.56a8.83,8.83,0,0,1-5.88-3.32,6.74,6.74,0,0,0,1,.13,12,12,0,0,0,10.63-18.93,2.72,2.72,0,0,0-.71-.76,2.65,2.65,0,0,0-1.6-.24c-1.43.08-2.87.26-4.3.27a11.48,11.48,0,0,1-3.88-2.93c4.4.08,8.82-.24,12.63-2.33,4.36-2.38,7.23-6.72,9.92-10.9.88,1.39,3.06,1.33,4.36.32a9.29,9.29,0,0,0,2.51-4.17,8.32,8.32,0,0,1,2.63-4.06,6,6,0,0,1-4.15-.38,7,7,0,0,1,.43-1.43c1.26,0,2.53,0,3.8-.06,2,0,4.14-.1,5.9-1.1a9.34,9.34,0,0,0,3-3,3,3,0,0,1,.49.52C230.91,40,229,43.05,226.81,44.6Z"/><path class="cls-18" d="M354.64,241.2c-3.32,4-7.48,8.15-7.32,13.35.08,2.57,1.25,5,1.14,7.6-.14,3-2,5.64-3.91,8a91.92,91.92,0,0,1-10.83,11.14c-4.38,3.79-9.52,7.31-15.31,7.41-2.53,0-5-.58-7.56-.55s-5.28.9-6.55,3.09c-.55.94-.76,2.05-1.24,3-1.43,2.95-4.91,4.3-8.16,4.73-5.66.75-17.89,0-24.85-4.14a10.46,10.46,0,0,1-4.54-4.8c-3.18-7.64,13.06-16.42,18.84-10.88,1.89,1.82,2.53,4.64,4.34,6.54,1.17,1.22,6.48,3.8,7.81,1.91a2.93,2.93,0,0,0,.29-2.31,12,12,0,0,1-.42-2.35,6.13,6.13,0,0,1,.93-2.78,10.35,10.35,0,0,1,2.67-3.4,4.38,4.38,0,0,1,4.09-.76c-3.69-2.34-5.4-7.19-5.43-11.41A19.43,19.43,0,0,1,302.18,254c.05-.08.1-.16.16-.24a28.84,28.84,0,0,1,7.36-7.5c1.59-1.12,3.47-2.1,5.38-1.75a6.9,6.9,0,0,1,3.15,1.75A18.43,18.43,0,0,1,324.46,261c0,.87-.07,1.9.65,2.37a1.19,1.19,0,0,0,.25.13,6.38,6.38,0,0,0,1.17.23,2.89,2.89,0,0,1,2.24,2.54,41.59,41.59,0,0,0,8.56-27.92c-.38-5.84-2-11.81-.38-17.44a31.64,31.64,0,0,1,4.55-8.61c.69-1,1.4-2.08,2.15-3.12,3.13-4.33,6.84-8.36,11.92-9.59a5.45,5.45,0,0,1,2.86-.07c1.62.49,2.64,2.08,3.38,3.61C367.69,215.43,363.36,230.71,354.64,241.2Z"/><path class="cls-20" d="M311.5,271.22a11.42,11.42,0,0,1,1.33,4.22c.09,4-4.53,6.27-8.35,7.57a4.9,4.9,0,0,0-2,1.06c-1.5,1.57-.44,4.3-1.42,6.24-2.6,1.14-5,2.92-7.77,3.36-3.79.6-7.44-1.35-11.07-2.61s-8.27-1.61-10.72,1.35a13.14,13.14,0,0,0-1.43,2.43,10.46,10.46,0,0,1-4.54-4.8c-3.18-7.64,13.06-16.42,18.84-10.88,1.89,1.82,2.53,4.64,4.34,6.54,1.17,1.22,6.48,3.8,7.81,1.91a2.93,2.93,0,0,0,.29-2.31,12,12,0,0,1-.42-2.35,6.13,6.13,0,0,1,.93-2.78,10.35,10.35,0,0,1,2.67-3.4,4.38,4.38,0,0,1,4.09-.76c-3.69-2.34-5.4-7.19-5.43-11.41A19.43,19.43,0,0,1,302.18,254c.05-.08.1-.16.16-.24a16.8,16.8,0,0,0,3.44,8.7c1.28,1.64,2.87,3,3.94,4.83A34.4,34.4,0,0,1,311.5,271.22Z"/><path class="cls-20" d="M339.8,249.22a21.53,21.53,0,0,0-1,5.08c-.06,1.72.29,3.44.38,5.17.27,4.82-1.48,9.5-3.19,14A19.12,19.12,0,0,0,323.39,282q-.25-3.6-.52-7.22a18.12,18.12,0,0,1,.11-5,29.86,29.86,0,0,1,2-5.21c.15-.35.28-.71.4-1.05a6.38,6.38,0,0,0,1.17.23,2.89,2.89,0,0,1,2.24,2.54,41.59,41.59,0,0,0,8.56-27.92c-.38-5.84-2-11.81-.38-17.44a31.64,31.64,0,0,1,4.55-8.61c.69-1,1.4-2.08,2.15-3.12a32.06,32.06,0,0,0-2,15.92,25.86,25.86,0,0,0,4.27,11C342.51,239.62,341.09,244.53,339.8,249.22Z"/><path class="cls-18" d="M425.48,179.42c.33-4.52.41-9.23-1.38-13.41s-5.89-7.66-10.43-7.37c-1.72.11-3.75.65-5-.6a4.13,4.13,0,0,1-.89-2.26c-.84-5.81.88-12,1-17.81a17,17,0,0,0-2-8.9,7.77,7.77,0,0,0-4.57-3.86,7.25,7.25,0,0,0-3.61.15,44.08,44.08,0,0,0,2.46,6.7,54.5,54.5,0,0,1,4.59,18.21,45,45,0,0,0,.88,8,9.66,9.66,0,0,0,4.53,6.35c2.19,1.13,5.18,1.27,6.35,3.43a6.14,6.14,0,0,1,.4,3.53,56.67,56.67,0,0,1-2.15,11c-1.15,3.85-2.59,8.43,0,11.54a9.44,9.44,0,0,0-1.35,3.52,3,3,0,0,0,2.41,1.09,4.07,4.07,0,0,0,1.74-.57l0,.15a1.68,1.68,0,0,0,.2.88,1.64,1.64,0,0,0,.47.73,1.62,1.62,0,0,0,.73.47,1.73,1.73,0,0,0,.87.19,1.77,1.77,0,0,0,.88-.19,1.73,1.73,0,0,0,.73-.47l.35-.46a2.23,2.23,0,0,0,.31-1.15c0-.2-.05-.4-.08-.6a2.33,2.33,0,0,0-.58-1l-.46-.35a1.61,1.61,0,0,0-.85-.27,1.27,1.27,0,0,0-.34,0l.2-.27C424.16,191.08,425.06,185.14,425.48,179.42Z"/><path class="cls-18" d="M402.05,228.81c-1.22,3.46-3.37,7.4-5.71,9.52-2.7,2.44-7.07,3.3-8.39,6.69-1,2.43.11,5.21-.47,7.75-.89,3.89-5.13,5.87-8.85,7.3-1.77.67-3.72,1.34-5.51,1a10.31,10.31,0,0,1,1.54-3.39c1.71-2.47,4.11-4.45,5.61-7.07.88-1.55,1.44-3.33,2.69-4.61,1.45-1.48,3.62-2.06,5.21-3.39,3.35-2.82,3.39-8.16,6.44-11.29C397.14,228.67,399.76,228.11,402.05,228.81Z"/><path class="cls-18" d="M261.32,257.23c-3.39,2.37-7.77,2.93-11.87,2.39a13,13,0,0,1-5.72-1.95,17.51,17.51,0,0,0-3.07-2.12c-2.12-.87-4.55,0-6.46,1.32s-3.62,2.88-5.79,3.63c-6.18,2.14-10.74-2.6-13.36-8.1a27.84,27.84,0,0,1-2.38-7.73c-.27-1.9-.14-3.83-.35-5.74-.49-4.4-2.89-5.83-4.92-9.1-1.8-2.94-1.11-7.3.22-10.28,1.57-3.55,4.31-6.43,7.18-9.05-5.4-3.43-8.15-10.05-8.34-16.43a26,26,0,0,1,.1-3.31,52.05,52.05,0,0,1,4.16-15.25c2.11-5.18,5.54-11,11.13-11.34a8.1,8.1,0,0,1,2,.11c3.66.68,6.76,3.86,8.19,7.43,1.68,4.18,1.6,8.83,1.71,13.35s.44,9.36,1,14c.3,2.5.66,5.07,0,7.51-.57,2.18-1.89,4.12-2.36,6.33-.78,3.7.95,7.43,2.76,10.74,2,3.72,4.31,7.46,7.81,9.83,3.74,2.56,8.42,3.24,12.75,4.63,3.36,1.08,6.83,2.91,8.76,5.74a8.91,8.91,0,0,1,1.25,2.64C266.8,250.47,264.7,254.87,261.32,257.23Z"/><path class="cls-20" d="M261.32,257.23c-3.39,2.37-7.77,2.93-11.87,2.39a13,13,0,0,1-5.72-1.95,17.51,17.51,0,0,0-3.07-2.12c-2.12-.87-4.55,0-6.46,1.32s-3.62,2.88-5.79,3.63c-6.18,2.14-10.74-2.6-13.36-8.1a27.84,27.84,0,0,1-2.38-7.73c-.27-1.9-.14-3.83-.35-5.74-.49-4.4-2.89-5.83-4.92-9.1-1.8-2.94-1.11-7.3.22-10.28,1.57-3.55,4.31-6.43,7.18-9.05-5.4-3.43-8.15-10.05-8.34-16.43a26,26,0,0,1,.1-3.31,22.56,22.56,0,0,0,.69,2.18,28.14,28.14,0,0,0,5.45,9c.71.78,7.53,7.15,8.45,6.18-2.31,2.38-3.21,5.77-4,9l-1,4.09c-.87,3.5-1.62,7.58.67,10.36a14.68,14.68,0,0,1,1.7,2c.84,1.54.26,3.42,0,5.15A15.57,15.57,0,0,0,225,254a5.41,5.41,0,0,0,2.3,1c4.14.51,6.61-6.44,10.67-5.49,2,.47,3.08,2.73,4.95,3.6a7.88,7.88,0,0,0,3.59.44c4.93-.14,10.34-.46,13.95-3.83a22.48,22.48,0,0,0,4-5.82,8.91,8.91,0,0,1,1.25,2.64C266.8,250.47,264.7,254.87,261.32,257.23Z"/><path class="cls-18" d="M239,117.14c-1,2.38-2.39,4.74-2.34,7.33a30,30,0,0,0,.39,3.09c.26,2.42-1.39,6.8-3.9,10.13s-6.15,5.78-9.39,3.56a4.74,4.74,0,0,1-1.78-4.37,10.52,10.52,0,0,1,1.82-4.56,40.92,40.92,0,0,1,5.1-6.16c-5.31-3-5.67-8.93-2.65-13.28a12.18,12.18,0,0,1,4.76-4c2.57-1.24,6.09-1.33,7.86.9C240.51,111.78,240,114.74,239,117.14Z"/><path class="cls-20" d="M233.17,137.69c-2.61,3.47-6.15,5.78-9.39,3.56a4.74,4.74,0,0,1-1.78-4.37,10.52,10.52,0,0,1,1.82-4.56,40.92,40.92,0,0,1,5.1-6.16c-5.31-3-5.67-8.93-2.65-13.28.33,1.44.08,3.26.4,4.58a12.24,12.24,0,0,0,2.88,5.42c1.12,1.2,2.58,2.39,2.57,4s-1.74,2.94-2.92,4.26a8.22,8.22,0,0,0-2,4.92,2.15,2.15,0,0,0,.55,1.8c1.3,1.08,3.19-1.18,4.79-.63A1.57,1.57,0,0,1,233.17,137.69Z"/><path class="cls-18" d="M343.94,285.22c-2.72-.84-5.74.95-7.6,2.84s-4,4.94-2.5,7.49,5.58,2.09,7.72.64a7.75,7.75,0,0,0,3.14-4.33l.1-.07C347.21,290,347.12,286.19,343.94,285.22Z"/><path class="cls-18" d="M347.6,280.41a1.58,1.58,0,0,0-.35-.65,1.78,1.78,0,0,0-1.65-.37,1.74,1.74,0,0,0-1,.75,2.53,2.53,0,0,0-.19.48l-.1.31a1.43,1.43,0,0,0,1.74,1.74l.31-.1a2,2,0,0,0,.48-.19,1.69,1.69,0,0,0,.76-1A1.67,1.67,0,0,0,347.6,280.41Z"/><path class="cls-18" d="M330.8,293.82a3.38,3.38,0,0,0-.88-1.5l-.68-.53a3.5,3.5,0,0,0-1.72-.47,2.62,2.62,0,0,0-1.32.3,2.5,2.5,0,0,0-1.09.7,2.58,2.58,0,0,0-.71,1.1,2.55,2.55,0,0,0-.29,1.31l.12.9a3.45,3.45,0,0,0,.88,1.51l.69.53a3.33,3.33,0,0,0,1.72.46,2.57,2.57,0,0,0,1.31-.29,3.49,3.49,0,0,0,2.09-3.11Z"/><path class="cls-18" d="M171.61,233.61c-.9-1.65-2.46-3.37-4.49-3.25-4.25.26-4,6.72-1.35,8.73a5.76,5.76,0,0,0,4.07,2.5,2.36,2.36,0,0,0,2.94-2.24A10.57,10.57,0,0,0,171.61,233.61Z"/><path class="cls-18" d="M178.65,251.94l-.18-.44A1.42,1.42,0,0,0,178,251a1.28,1.28,0,0,0-.63-.33,1,1,0,0,0-.29-.05,1.44,1.44,0,0,0-.74,0l-.08,0-.18,0-.43.19a1.33,1.33,0,0,0-.51.46.94.94,0,0,0-.23.4,1.34,1.34,0,0,0-.15.69l.06.48.18.43a1.41,1.41,0,0,0,.47.5,1.24,1.24,0,0,0,.61.32,2.26,2.26,0,0,0,1.29.06l.44-.19a1.31,1.31,0,0,0,.52-.47.91.91,0,0,0,.24-.41,1.38,1.38,0,0,0,.16-.72C178.7,252.27,178.68,252.11,178.65,251.94Z"/><path class="cls-18" d="M161.82,125.4c0-1.3-1.38-2.66-2.79-2.12a8.36,8.36,0,0,0-3.67,2.34,5.69,5.69,0,0,0-.94,5.24A2.72,2.72,0,0,0,157,132.8l.22,0a2.66,2.66,0,0,0,2.55-1.94c-.15.63.06.05.16-.35a2,2,0,0,0,0-.24A6.82,6.82,0,0,0,161.82,125.4Z"/><path class="cls-18" d="M237.73,33.6l-.41-.54a1.89,1.89,0,0,0-.8-.51,2.2,2.2,0,0,0-1-.21,2.73,2.73,0,0,0-1.85.76,3.19,3.19,0,0,0-.71,1.22,2.79,2.79,0,0,0,0,1.49,2.49,2.49,0,0,0,.65,1.12,2.83,2.83,0,0,0,1.78.74,2.51,2.51,0,0,0,1.28-.35,2.37,2.37,0,0,0,1-1,2.93,2.93,0,0,0,.39-1.38A2.74,2.74,0,0,0,237.73,33.6Z"/><path class="cls-18" d="M180.68,97.79a1.42,1.42,0,0,0-1-.39,1.4,1.4,0,0,0-.95.39,1,1,0,0,0-.27.43,1,1,0,0,0-.12.52,1.38,1.38,0,0,0,.39,1,1.4,1.4,0,0,0,.95.39,1.42,1.42,0,0,0,1-.39,1,1,0,0,0,.27-.43,1,1,0,0,0,.12-.52A1.38,1.38,0,0,0,180.68,97.79Z"/><path class="cls-18" d="M400.5,102.38a3.15,3.15,0,0,0-.22-.29l-.1-.19a.84.84,0,0,0-.06-.14v0a3.19,3.19,0,0,0-.75-.85,1.53,1.53,0,0,0-.65-.38,3,3,0,0,0-1.54-.2,2.2,2.2,0,0,0-1.1.35,3.39,3.39,0,0,0-1.52,2.1,4.38,4.38,0,0,0-.12,1,5.55,5.55,0,0,0,.12.9,1.1,1.1,0,0,0,0,.16,3.29,3.29,0,0,0,2.26,2.26,3.38,3.38,0,0,0,1.73,0,3.59,3.59,0,0,0,1.93-1.49,3.12,3.12,0,0,0,.44-1.63A3.15,3.15,0,0,0,400.5,102.38Z"/><path class="cls-18" d="M336.71,154.41a1.05,1.05,0,0,0-.13-.49,1.53,1.53,0,0,0-.41-.63l-.39-.3-.47-.2a1.59,1.59,0,0,0-.78,0,1.44,1.44,0,0,0-.72.24l-.43.22a2.08,2.08,0,0,0-1,1.82v0a1.57,1.57,0,0,0,.18.8,1.46,1.46,0,0,0,.43.67l.42.32a2.11,2.11,0,0,0,1,.29h0a2.09,2.09,0,0,0,1.81-1l.23-.43c.06-.16.13-.31.19-.47A1.39,1.39,0,0,0,336.71,154.41Z"/><path class="cls-18" d="M420.27,206.06a1.74,1.74,0,0,0-.2-.87,1.65,1.65,0,0,0-.46-.73l-.46-.35a2.17,2.17,0,0,0-1.14-.31l-.2,0a2.64,2.64,0,0,0-1.26.34,2.53,2.53,0,0,0-.89.89,6.67,6.67,0,0,0-.32.8,2.49,2.49,0,0,0,0,1.27,2.38,2.38,0,0,0,1.66,1.65,2.25,2.25,0,0,0,1.26,0,4.61,4.61,0,0,0,.8-.32,2.45,2.45,0,0,0,.89-.89,2.4,2.4,0,0,0,.34-1.25Z"/><path class="cls-18" d="M367.74,264a1.52,1.52,0,0,0-.24-.77l-.2-.45-.35-.45a1.64,1.64,0,0,0-.72-.47,1.16,1.16,0,0,0-.57-.15,1.62,1.62,0,0,0-.9,0h0a2.25,2.25,0,0,0-1,.57,2.29,2.29,0,0,0-.58,1v0l-.08.6a1.73,1.73,0,0,0,.19.87,1.16,1.16,0,0,0,.29.49,1.63,1.63,0,0,0,.64.58l.44.2.5.2a1.52,1.52,0,0,0,.82,0,1,1,0,0,0,.52-.14,1.55,1.55,0,0,0,.67-.43l.32-.42.21-.49A1.53,1.53,0,0,0,367.74,264Z"/></g><path class="cls-18" d="M349.94,258.61c1.08-5.4,4.9-9.94,9.44-13.06.68-.47,1.45-1,1.52-1.85.23-2.39-2.47-7.32-4.94-7.74a9.37,9.37,0,0,0-2.83.2,11.16,11.16,0,0,1-12.05-10.06c-.13-2.57,1-5.47,3.41-6.32-1.73-6.06-3.37-12.88-.94-18.51a12.73,12.73,0,0,1,.89-1.72c1.57-2.53,4.46-4.56,7.38-4,4.26.87,8.28,7.33,9.25,11.24a8.13,8.13,0,0,1-1.19,7c-1.24,1.54-3.29,2.57-3.73,4.5a4.35,4.35,0,0,0,1.38,3.89,17.19,17.19,0,0,0,3.54,2.42,11,11,0,0,1,3.73,3.15c1.7,2.54.49,5.43.14,8.16-.32,2.49.25,5.36,2.33,6.78a11.45,11.45,0,0,1,1.64,1.1,4.53,4.53,0,0,1,.89,1.59c1.29,3.38,2,7.07,4.17,9.95s6.61,4.56,9.45,2.32a13.26,13.26,0,0,0,1.83-2c7.48-8.74,22.79-6,29,3,.6.88,1.21,1.89,2.24,2.21,1.85.58,3.4-1.42,4.46-3.06a32.66,32.66,0,0,1,7.39-8,12.39,12.39,0,0,1,5.51-2.7,5.58,5.58,0,0,1,5.49,2.1c1.35,2,.86,4.83-.55,7.42-2.1,3.86-6.24,7.31-9.41,7.3-1.88,0-3.77-.56-5.59-.11-3.69.93-5.11,5.27-6.6,8.78-2.2,5.17-7,9.87-11.19,13.5-2,1.71-4.29,3.29-6.91,3.54a10.33,10.33,0,0,1-7.61-2.88,31.06,31.06,0,0,1-5.12-6.59,11.31,11.31,0,0,1-14.61.37c-2.44-2.08-3.94-5.69-7.36-6.17-1.52-.22-3.07-.08-4.57-.41C353.35,272.64,348.71,264.76,349.94,258.61Z"/><path class="cls-20" d="M230.13,57.52c-2.18,1.54-4.92,2.84-5.66,5.42a18.1,18.1,0,0,0-.3,3.46c-.36,3.74-3.16,6.81-6.28,8.89s-6.67,3.47-9.74,5.62a2,2,0,0,0-.8.84,2.21,2.21,0,0,0,.34,1.7.41.41,0,0,0,.05.09c1.64,3.45,1,7.65-.72,11-2.28,4.47-5.7,9.23-11.2,8.56a8.8,8.8,0,0,1-5.88-3.33,7,7,0,0,0,1,.14A12,12,0,0,0,201.6,81a2.68,2.68,0,0,0-.71-.75,2.64,2.64,0,0,0-1.6-.24c-1.43.08-2.86.26-4.3.27a11.39,11.39,0,0,1-3.88-2.94c4.4.08,8.83-.23,12.64-2.32,4.35-2.39,7.22-6.72,9.91-10.9.88,1.39,3.06,1.33,4.36.32a9.21,9.21,0,0,0,2.51-4.17,8.46,8.46,0,0,1,2.63-4.07,6,6,0,0,1-4.15-.37,7,7,0,0,1,.43-1.43l3.8-.07c2,0,4.14-.09,5.9-1.09a9.34,9.34,0,0,0,3-3,3,3,0,0,1,.49.52C234.23,52.94,232.31,56,230.13,57.52Z"/><path class="cls-18" d="M366.67,109.67c-5,2.34-10.9,2-16.11.16a2.88,2.88,0,0,0-2.39-.13c-2.06,1.23-4.43,6.33-3.3,8.56a9.47,9.47,0,0,0,1.84,2.17,11.14,11.14,0,0,1-.95,15.66c-2,1.63-5,2.46-7.1,1-3.85,5-8.37,10.36-14.34,11.74a13.48,13.48,0,0,1-1.92.31c-3,.23-6.31-.88-7.56-3.59-1.84-3.94,1-11,3.56-14.12a8.14,8.14,0,0,1,6.34-3.2c2,.08,4,1.13,5.84.34a4.39,4.39,0,0,0,2.31-3.42,17.22,17.22,0,0,0-.16-4.3,11.1,11.1,0,0,1,.33-4.87c1-2.88,4.08-3.61,6.48-4.95,2.19-1.22,4.16-3.38,4.07-5.9a10.87,10.87,0,0,1-.08-2,4.6,4.6,0,0,1,.74-1.66c2-3.05,4.51-5.8,5.54-9.27s-.26-8-3.74-9a14.1,14.1,0,0,0-2.68-.3c-11.48-.83-18.4-14.75-14.77-25.09a4.81,4.81,0,0,0,.44-3.11c-.63-1.84-3.15-1.89-5.1-1.78a32.46,32.46,0,0,1-10.82-1.2A12.31,12.31,0,0,1,307.7,49a5.57,5.57,0,0,1-1.57-5.67c.84-2.3,3.37-3.55,6.3-4,4.35-.61,9.58.68,11.45,3.23,1.11,1.52,1.79,3.37,3.24,4.56,2.94,2.42,7.27,1,11,.1,5.46-1.29,12.08-.25,17.51,1,2.56.59,5.19,1.5,6.95,3.46a10.33,10.33,0,0,1,2.2,7.83,31.14,31.14,0,0,1-2.27,8,11.31,11.31,0,0,1,9,11.54c-.22,3.2-2.23,6.55-.59,9.58.72,1.35,1.76,2.53,2.38,3.93C375.94,98.59,372.36,107,366.67,109.67Z"/><path class="cls-30" d="M520.66,249.34l-.1,0c-1.57.58-3.18-.86-4.85-.86-2.37,0-3.7,2.71-4.29,5-1.5,6-1.89,12.42-5.09,17.69s-8.9,8.69-14.92,10-12.3.63-18.26-.92a23.09,23.09,0,0,0-5.67-1.08,6.32,6.32,0,0,0-5.15,2.15,19.3,19.3,0,0,0-1.52,2.76,31.62,31.62,0,0,1-15-20.4,35.28,35.28,0,0,1-.19-14,34.66,34.66,0,0,0,2.65,7.27c1.34,2.69,3.47,5.42,6.47,5.74,3.72.39,4.29-1.81,5.86-4.29a24.39,24.39,0,0,1,8.28-7.62,5.38,5.38,0,0,1,3.92-.95c2.46.67,3.17,4.09,5.51,5.08,1.8.76,4-.28,5.08-1.89A11.24,11.24,0,0,0,485,247.5a57.58,57.58,0,0,0-.57-13.63,32.72,32.72,0,0,1,4.47,18.07c-.19,3.75-1.19,7.75-4.05,10.18s-7.94,2.43-9.86-.8c-.94-1.56-1.23-3.81-2.95-4.43-2-.72-3.81,1.54-4.33,3.6a14.6,14.6,0,0,0,4.11,13.62,18.84,18.84,0,0,0,13.58,5.09,26.91,26.91,0,0,0,13.95-4.64c7.3-4.79,6.39-13.08,5.77-20.87a65.27,65.27,0,0,0-6.46-24.15,51.69,51.69,0,0,0-19.25-21c-6-3.59-12.19-6.19-19.3-4.84a33.69,33.69,0,0,0-12.56,5.56,66.88,66.88,0,0,1-6.65,4.44,11.85,11.85,0,0,1-7.72,1.44c-2.53-.54-4.64-2.2-6.81-3.62a42.24,42.24,0,0,0-18.8-6.73c-6.38-.67-13.17-1.74-18.73-5.14-4-2.45-7.36-6.51-8.27-11.19-.44-2.23.12-4.21.19-6.38.1-2.93-.32-6-.5-9a88.85,88.85,0,0,0-22.66-53.69C351,112.27,343,106,333.49,104c-6.34-1.33-12.22.07-17.73,3.1a19.32,19.32,0,0,0-5.73,4.66c-.91,1.16-3.64,4.31-3.64,5.94-.19-1.84-.73-4-.5-5.8a25.92,25.92,0,0,1,1.7-5.08c.25-.69.51-1.36.77-2h0c4.24-2.93,8.43-5.45,14.16-6.67,9.28-2,20.64-.73,28.81,4.33,5.27,3.25,8.78,8.65,12.1,13.86,9.93,15.58,20.21,32.35,19.9,50.82-.22,12.87-2.78,30.09,14.28,32.08,5.16.6,10.48,0,15.51,1.31,5.64,1.47,10.42,5.2,15.9,7.17,6.32,2.27,10.28.08,15.93-2.3,5.35-2.26,11.47-4.74,17.2-5.79a27.15,27.15,0,0,1,24.5,8.3c3.41,3.75,5.74,8.47,9.52,11.84,4.7,4.19,13,5.39,14.33-2C515.77,227.51,518.62,238.37,520.66,249.34Z"/></g></g></g></svg>