<svg xmlns="http://www.w3.org/2000/svg" xmlns:xlink="http://www.w3.org/1999/xlink" viewBox="0 0 482.59 36.8"><defs><style>.cls-1{fill:url(#linear-gradient);}.cls-2{fill:url(#linear-gradient-2);}.cls-3{fill:url(#linear-gradient-3);}.cls-4{fill:url(#linear-gradient-4);}.cls-5{fill:url(#linear-gradient-5);}.cls-6{fill:url(#linear-gradient-6);}.cls-7{fill:url(#linear-gradient-7);}.cls-8{fill:url(#linear-gradient-8);}.cls-9{fill:url(#linear-gradient-9);}.cls-10{fill:url(#linear-gradient-10);}.cls-11{fill:url(#linear-gradient-11);}.cls-12{fill:url(#linear-gradient-12);}</style><linearGradient id="linear-gradient" x1="20.42" y1="60.73" x2="20.42" y2="2.23" gradientUnits="userSpaceOnUse"><stop offset="0" stop-color="#14d8e0"/><stop offset="0.68" stop-color="#0c6d9e"/></linearGradient><linearGradient id="linear-gradient-2" x1="60.7" y1="60.73" x2="60.7" y2="2.23" xlink:href="#linear-gradient"/><linearGradient id="linear-gradient-3" x1="97.1" y1="60.73" x2="97.1" y2="2.23" xlink:href="#linear-gradient"/><linearGradient id="linear-gradient-4" x1="141.76" y1="60.73" x2="141.76" y2="2.23" xlink:href="#linear-gradient"/><linearGradient id="linear-gradient-5" x1="181.23" y1="60.73" x2="181.23" y2="2.23" xlink:href="#linear-gradient"/><linearGradient id="linear-gradient-6" x1="216.66" y1="60.73" x2="216.66" y2="2.23" xlink:href="#linear-gradient"/><linearGradient id="linear-gradient-7" x1="255.39" y1="60.73" x2="255.39" y2="2.23" xlink:href="#linear-gradient"/><linearGradient id="linear-gradient-8" x1="306.53" y1="60.73" x2="306.53" y2="2.23" xlink:href="#linear-gradient"/><linearGradient id="linear-gradient-9" x1="344.81" y1="60.73" x2="344.81" y2="2.23" xlink:href="#linear-gradient"/><linearGradient id="linear-gradient-10" x1="381.55" y1="60.73" x2="381.55" y2="2.23" xlink:href="#linear-gradient"/><linearGradient id="linear-gradient-11" x1="427.45" y1="60.73" x2="427.45" y2="2.23" xlink:href="#linear-gradient"/><linearGradient id="linear-gradient-12" x1="465.14" y1="60.73" x2="465.14" y2="2.23" xlink:href="#linear-gradient"/></defs><g id="Capa_2" data-name="Capa 2"><g id="Capa_1-2" data-name="Capa 1"><path class="cls-1" d="M40.84.8,34,36H24.41L14.52,19.61,11.32,36H0L6.89.8h9.55l9.89,16.4L29.53.8Z"/><path class="cls-2" d="M59.79,9.75,59,13.88H73.57L71.9,22.42H57.28l-.88,4.63H73.67L71.9,36H43.26L50.15.8h28l-1.77,9Z"/><path class="cls-3" d="M105.17,29.87H92L88.58,36H76.33L98.28.8h11.41L117.86,36H106.3Zm-1.63-8.55-1.67-9-5.07,9Z"/><path class="cls-4" d="M150.79,25.74,156.55,36H144.49l-4.87-8.85h-2.86L135,36H123.43L130.32.8h15.45c9.1,0,14.32,4.28,14.32,11.57A13.79,13.79,0,0,1,150.79,25.74ZM144,10h-3.89l-1.62,8.24h4.77c3.2,0,5.07-1.71,5.07-4.68C148.33,11,146.65,10,144,10Z"/><path class="cls-5" d="M180.32,9.75l-.79,4.13H194.1l-1.68,8.54H177.81l-.89,4.63h17.27l-1.77,9H163.78L170.67.8h28l-1.77,9Z"/><path class="cls-6" d="M199.36,33.23l4.48-8.74a22.69,22.69,0,0,0,11.62,3.26c3,0,4.57-.8,4.57-2.06,0-3.72-16.38-1.56-16.38-12.47,0-8,6.54-13.22,17.42-13.22,5.11,0,9.69,1.06,12.89,3l-4.18,8.65a17.66,17.66,0,0,0-9.45-2.62c-3.4,0-5.07,1.16-5.07,2.36,0,3.87,16.44,1.41,16.44,12.27,0,7.84-6.7,13.12-17.42,13.12C208.12,36.8,202.66,35.3,199.36,33.23Z"/><path class="cls-7" d="M248.68,10H238.59L240.41.8H272.2L270.38,10H260.29l-5.07,26H243.61Z"/><path class="cls-8" d="M289.23,33.23l4.48-8.74a22.63,22.63,0,0,0,11.61,3.26c3,0,4.58-.8,4.58-2.06,0-3.72-16.39-1.56-16.39-12.47,0-8,6.54-13.22,17.42-13.22,5.12,0,9.69,1.06,12.89,3l-4.18,8.65a17.64,17.64,0,0,0-9.45-2.62c-3.39,0-5.07,1.16-5.07,2.36,0,3.87,16.44,1.41,16.44,12.27,0,7.84-6.69,13.12-17.42,13.12C298,36.8,292.53,35.3,289.23,33.23Z"/><path class="cls-9" d="M363.15,12.47c0,8.9-6.84,14.88-17.42,14.88h-6L338.1,36H326.48L333.37.8h15.31C357.93.8,363.15,5.13,363.15,12.47Zm-11.77,1c0-2.51-1.67-3.56-4.33-3.56h-3.88l-1.63,8.24h4.78C349.51,18.2,351.38,16.49,351.38,13.52Z"/><path class="cls-10" d="M389.62,29.87H376.48L373,36H360.79L382.73.8h11.42L402.32,36H390.75ZM388,21.32l-1.67-9-5.07,9Z"/><path class="cls-11" d="M409.31,21.07c0-12.37,9-21.07,21.75-21.07,6.6,0,12,2.51,14.52,7l-8.37,6.69a7.5,7.5,0,0,0-6.89-4.13c-5.46,0-9.3,4.43-9.3,10.71,0,4.13,2.81,6.89,7.09,6.89,2.71,0,5.31-1.16,7.68-4.07l6.84,6.68c-4.19,5.23-9.3,7-15.65,7C416.3,36.8,409.31,30.42,409.31,21.07Z"/><path class="cls-12" d="M464.23,9.75l-.78,4.13H478l-1.67,8.54H461.72l-.88,4.63h17.27l-1.77,9H447.7L454.59.8h28l-1.77,9Z"/></g></g></svg>