<svg xmlns="http://www.w3.org/2000/svg" xmlns:xlink="http://www.w3.org/1999/xlink" viewBox="0 0 468.82 26.43"><defs><style>.cls-1{fill:url(#linear-gradient);}.cls-2{fill:url(#linear-gradient-2);}.cls-3{fill:url(#linear-gradient-3);}.cls-4{fill:url(#linear-gradient-4);}.cls-5{fill:url(#linear-gradient-5);}.cls-6{fill:url(#linear-gradient-6);}.cls-7{fill:url(#linear-gradient-7);}.cls-8{fill:url(#linear-gradient-8);}.cls-9{fill:url(#linear-gradient-9);}.cls-10{fill:url(#linear-gradient-10);}.cls-11{fill:url(#linear-gradient-11);}.cls-12{fill:url(#linear-gradient-12);}.cls-13{fill:url(#linear-gradient-13);}.cls-14{fill:url(#linear-gradient-14);}.cls-15{fill:url(#linear-gradient-15);}.cls-16{fill:url(#linear-gradient-16);}.cls-17{fill:url(#linear-gradient-17);}.cls-18{fill:url(#linear-gradient-18);}.cls-19{fill:url(#linear-gradient-19);}.cls-20{fill:url(#linear-gradient-20);}.cls-21{fill:url(#linear-gradient-21);}.cls-22{fill:url(#linear-gradient-22);}.cls-23{fill:url(#linear-gradient-23);}.cls-24{fill:url(#linear-gradient-24);}</style><linearGradient id="linear-gradient" x1="8.05" y1="1.62" x2="8.05" y2="30.16" gradientUnits="userSpaceOnUse"><stop offset="0" stop-color="#ffc21d"/><stop offset="0.1" stop-color="#f9b224"/><stop offset="0.29" stop-color="#e88835"/><stop offset="0.55" stop-color="#ce4450"/><stop offset="0.73" stop-color="#bc1463"/></linearGradient><linearGradient id="linear-gradient-2" x1="27.85" y1="1.62" x2="27.85" y2="30.16" xlink:href="#linear-gradient"/><linearGradient id="linear-gradient-3" x1="45.96" y1="1.62" x2="45.96" y2="30.16" xlink:href="#linear-gradient"/><linearGradient id="linear-gradient-4" x1="63.46" y1="1.62" x2="63.46" y2="30.16" xlink:href="#linear-gradient"/><linearGradient id="linear-gradient-5" x1="93.16" y1="1.62" x2="93.16" y2="30.16" xlink:href="#linear-gradient"/><linearGradient id="linear-gradient-6" x1="112.66" y1="1.62" x2="112.66" y2="30.16" xlink:href="#linear-gradient"/><linearGradient id="linear-gradient-7" x1="131.88" y1="1.62" x2="131.88" y2="30.16" xlink:href="#linear-gradient"/><linearGradient id="linear-gradient-8" x1="146.01" y1="1.62" x2="146.01" y2="30.16" xlink:href="#linear-gradient"/><linearGradient id="linear-gradient-9" x1="162.6" y1="1.62" x2="162.6" y2="30.16" xlink:href="#linear-gradient"/><linearGradient id="linear-gradient-10" x1="184.06" y1="1.62" x2="184.06" y2="30.16" xlink:href="#linear-gradient"/><linearGradient id="linear-gradient-11" x1="201.43" y1="1.62" x2="201.43" y2="30.16" xlink:href="#linear-gradient"/><linearGradient id="linear-gradient-12" x1="211.69" y1="1.62" x2="211.69" y2="30.16" xlink:href="#linear-gradient"/><linearGradient id="linear-gradient-13" x1="239.13" y1="1.62" x2="239.13" y2="30.16" xlink:href="#linear-gradient"/><linearGradient id="linear-gradient-14" x1="260.04" y1="1.62" x2="260.04" y2="30.16" xlink:href="#linear-gradient"/><linearGradient id="linear-gradient-15" x1="277.01" y1="1.62" x2="277.01" y2="30.16" xlink:href="#linear-gradient"/><linearGradient id="linear-gradient-16" x1="303.75" y1="1.62" x2="303.75" y2="30.16" xlink:href="#linear-gradient"/><linearGradient id="linear-gradient-17" x1="322.76" y1="1.62" x2="322.76" y2="30.16" xlink:href="#linear-gradient"/><linearGradient id="linear-gradient-18" x1="343.09" y1="1.62" x2="343.09" y2="30.16" xlink:href="#linear-gradient"/><linearGradient id="linear-gradient-19" x1="364.34" y1="1.62" x2="364.34" y2="30.16" xlink:href="#linear-gradient"/><linearGradient id="linear-gradient-20" x1="385.81" y1="1.62" x2="385.81" y2="30.16" xlink:href="#linear-gradient"/><linearGradient id="linear-gradient-21" x1="405.38" y1="1.62" x2="405.38" y2="30.16" xlink:href="#linear-gradient"/><linearGradient id="linear-gradient-22" x1="421.62" y1="1.62" x2="421.62" y2="30.16" xlink:href="#linear-gradient"/><linearGradient id="linear-gradient-23" x1="437.74" y1="1.62" x2="437.74" y2="30.16" xlink:href="#linear-gradient"/><linearGradient id="linear-gradient-24" x1="458.94" y1="1.62" x2="458.94" y2="30.16" xlink:href="#linear-gradient"/></defs><g id="Capa_2" data-name="Capa 2"><g id="Capa_1-2" data-name="Capa 1"><path class="cls-1" d="M3.83,1.17h6.45L7.46,15.62h8.65l-1,5.11H0Z"/><path class="cls-2" d="M36.29,12c0,.33,0,.69-.06,1.06l-10.58,2c.41.92,1.34,1.28,2.79,1.28a5.23,5.23,0,0,0,3.17-1.06l2.57,3.83A11,11,0,0,1,27.67,21c-4.94,0-8.25-2.74-8.25-7.07,0-5,3.69-8.77,9.32-8.77C33,5.17,36.29,7.49,36.29,12ZM25.6,12l5-1a2,2,0,0,0-2.16-1.57A2.85,2.85,0,0,0,25.6,12Z"/><path class="cls-3" d="M38,19.61l2.14-4.3a10.42,10.42,0,0,0,5.19,1.4c1.37,0,1.83-.31,1.83-.73,0-1.31-7.54.08-7.54-5,0-3.94,3.74-5.78,8.42-5.78A14.42,14.42,0,0,1,53.9,6.31l-2.13,4.31a8.66,8.66,0,0,0-4.46-1.15c-1.42,0-1.89.39-1.89.76,0,1.39,7.52-.06,7.52,5,0,3.83-3.77,5.73-8.36,5.73A14.21,14.21,0,0,1,38,19.61Z"/><path class="cls-4" d="M55.52,19.61l2.13-4.3a10.47,10.47,0,0,0,5.19,1.4c1.37,0,1.84-.31,1.84-.73,0-1.31-7.55.08-7.55-5,0-3.94,3.75-5.78,8.42-5.78A14.42,14.42,0,0,1,71.4,6.31l-2.13,4.31a8.66,8.66,0,0,0-4.46-1.15c-1.42,0-1.88.39-1.88.76,0,1.39,7.52-.06,7.52,5,0,3.83-3.78,5.73-8.37,5.73A14.13,14.13,0,0,1,55.52,19.61Z"/><path class="cls-5" d="M92.35,9.14l-.08.36h6.78l-1,5H91.31l-1.23,6.26H83.63L85.87,9.28C87,3.66,90.55.73,96.89.73A12.59,12.59,0,0,1,102.69,2L99.93,6.9a6.58,6.58,0,0,0-3.34-.84C94.27,6.06,92.76,7,92.35,9.14Z"/><path class="cls-6" d="M122,16l-.66,4.61a9.57,9.57,0,0,1-2.73.39c-2.63,0-4.22-1.09-4.82-2.63A6.51,6.51,0,0,1,108.62,21c-3.11,0-5.3-1.73-5.3-5.2a10.47,10.47,0,0,1,.19-1.92l1.64-8.44h6.18l-1.5,7.68a5.78,5.78,0,0,0-.11.95c0,1.06.52,1.62,1.5,1.62,1.37,0,2.33-.92,2.71-2.9l1.45-7.35h6.18l-1.81,9.27a2.61,2.61,0,0,0,0,.4c0,.83.49,1.11,1.2,1.11A2.62,2.62,0,0,0,122,16Z"/><path class="cls-7" d="M138.76,5.17l-1.09,5.59a7.31,7.31,0,0,0-1.34-.12,3.38,3.38,0,0,0-3.75,3l-1.39,7.07H125l3-15.28h5.82L133.51,7A7.21,7.21,0,0,1,138.76,5.17Z"/><path class="cls-8" d="M146.83,14.72a2.66,2.66,0,0,0-.06.45c0,.73.44,1.06,1.15,1.06a3,3,0,0,0,1.37-.36l.71,4.25A8.44,8.44,0,0,1,146,21c-3.33,0-5.46-1.7-5.46-4.75a7.47,7.47,0,0,1,.16-1.51L143.14,2h6.18l-.85,4.28h3.06l-.9,4.61h-3.06Z"/><path class="cls-9" d="M171.77,10.42a9.72,9.72,0,0,1-.19,1.87l-1.64,8.44h-6.18l1.5-7.68a5.56,5.56,0,0,0,.11-.93c0-1.08-.52-1.64-1.56-1.64-1.39,0-2.38.92-2.76,2.9l-1.45,7.35h-6.18L157.47,0h6.18l-1.29,6.62a6.42,6.42,0,0,1,4-1.45C169.47,5.17,171.77,6.93,171.77,10.42Z"/><path class="cls-10" d="M192.5,12c0,.33,0,.69-.06,1.06l-10.58,2c.41.92,1.34,1.28,2.79,1.28a5.23,5.23,0,0,0,3.17-1.06l2.57,3.83a11,11,0,0,1-6.5,1.9c-4.95,0-8.26-2.74-8.26-7.07,0-5,3.69-8.77,9.32-8.77C189.19,5.17,192.5,7.49,192.5,12Zm-10.69,0,5-1a2,2,0,0,0-2.16-1.57A2.85,2.85,0,0,0,181.81,12Z"/><path class="cls-11" d="M208.31,5.17l-1.1,5.59a7.31,7.31,0,0,0-1.34-.12,3.37,3.37,0,0,0-3.74,3l-1.4,7.07h-6.18l3-15.28h5.83L203.06,7A7.17,7.17,0,0,1,208.31,5.17Z"/><path class="cls-12" d="M215.86,17.13a5.46,5.46,0,0,1-1.29,3.24l-3.23,4.83h-3.82l2.38-4.86a3.15,3.15,0,0,1-1.29-2.65,3.75,3.75,0,0,1,3.88-3.89A3.17,3.17,0,0,1,215.86,17.13Z"/><path class="cls-13" d="M249.14,5.45l-2.38,12.21c-1.21,6.23-4.84,8.77-10.23,8.77a13.11,13.11,0,0,1-7.41-1.9l2.63-4.3a8.43,8.43,0,0,0,4.89,1.51c2.41,0,3.36-1.09,3.72-2.91l.08-.39a5.29,5.29,0,0,1-3.77,1.45,6.38,6.38,0,0,1-6.46-6.59,8,8,0,0,1,8-8.13c2.08,0,3.8.7,4.57,2.6l.44-2.32ZM238.64,15a2.6,2.6,0,0,0,2.65-2.85,1.93,1.93,0,0,0-2.16-2A2.61,2.61,0,0,0,236.45,13,2,2,0,0,0,238.64,15Z"/><path class="cls-14" d="M268.47,12c0,.33,0,.69-.05,1.06l-10.59,2c.42.92,1.34,1.28,2.79,1.28a5.28,5.28,0,0,0,3.18-1.06l2.57,3.83a11,11,0,0,1-6.51,1.9c-5,0-8.26-2.74-8.26-7.07,0-5,3.69-8.77,9.32-8.77C265.16,5.17,268.47,7.49,268.47,12Zm-10.69,0,5-1a2,2,0,0,0-2.16-1.57A2.86,2.86,0,0,0,257.78,12Z"/><path class="cls-15" d="M277.83,14.72a2.66,2.66,0,0,0-.06.45c0,.73.44,1.06,1.15,1.06a3.11,3.11,0,0,0,1.37-.36l.71,4.25A8.44,8.44,0,0,1,277,21c-3.33,0-5.47-1.7-5.47-4.75a7.51,7.51,0,0,1,.17-1.51L274.13,2h6.18l-.84,4.28h3.06l-.9,4.61h-3.07Z"/><path class="cls-16" d="M295.33,13.94c0-5,3.91-8.77,9.43-8.77,3.56,0,6.35,1.7,7.41,4.47l-5.25,2.46a2.53,2.53,0,0,0-2.46-2c-1.67,0-2.87,1.37-2.87,3.41A2.25,2.25,0,0,0,303.94,16a2.91,2.91,0,0,0,2.79-2l4.51,2.68A8.41,8.41,0,0,1,303.48,21C298.56,21,295.33,18.22,295.33,13.94Z"/><path class="cls-17" d="M314,13.94c0-5,3.88-8.77,9.32-8.77,4.95,0,8.12,2.79,8.12,7.07,0,5-3.88,8.77-9.32,8.77C317.21,21,314,18.22,314,13.94Zm11.18-1.4a2.16,2.16,0,0,0-2.22-2.4c-1.61,0-2.7,1.37-2.7,3.49A2.16,2.16,0,0,0,322.51,16C324.13,16,325.22,14.67,325.22,12.54Z"/><path class="cls-18" d="M352.27,10.37a9.79,9.79,0,0,1-.2,1.92l-1.64,8.44h-6.18l1.51-7.68a6.85,6.85,0,0,0,.11-.93c0-1.08-.52-1.64-1.56-1.64-1.4,0-2.38.92-2.76,2.9l-1.45,7.35h-6.18l3-15.28h5.82L342.42,7a6.52,6.52,0,0,1,4.49-1.81C350.05,5.17,352.27,6.9,352.27,10.37Z"/><path class="cls-19" d="M373.52,10.37a9.79,9.79,0,0,1-.2,1.92l-1.64,8.44H365.5L367,13.05a6.85,6.85,0,0,0,.11-.93c0-1.08-.52-1.64-1.56-1.64-1.4,0-2.38.92-2.76,2.9l-1.45,7.35h-6.18l3-15.28H364L363.67,7a6.5,6.5,0,0,1,4.49-1.81C371.3,5.17,373.52,6.9,373.52,10.37Z"/><path class="cls-20" d="M394.25,12c0,.33,0,.69-.06,1.06l-10.58,2c.41.92,1.34,1.28,2.79,1.28a5.27,5.27,0,0,0,3.17-1.06l2.57,3.83a11,11,0,0,1-6.51,1.9c-4.95,0-8.26-2.74-8.26-7.07,0-5,3.7-8.77,9.33-8.77C390.94,5.17,394.25,7.49,394.25,12Zm-10.7,0,5-1a2,2,0,0,0-2.16-1.57A2.87,2.87,0,0,0,383.55,12Z"/><path class="cls-21" d="M397,13.94c0-5,3.91-8.77,9.43-8.77,3.55,0,6.34,1.7,7.41,4.47l-5.25,2.46a2.53,2.53,0,0,0-2.46-2c-1.67,0-2.87,1.37-2.87,3.41A2.25,2.25,0,0,0,405.57,16a2.92,2.92,0,0,0,2.79-2l4.51,2.68A8.43,8.43,0,0,1,405.1,21C400.18,21,397,18.22,397,13.94Z"/><path class="cls-22" d="M422.44,14.72a4.12,4.12,0,0,0-.05.45c0,.73.44,1.06,1.15,1.06a3,3,0,0,0,1.36-.36l.71,4.25a8.37,8.37,0,0,1-4,.89c-3.34,0-5.47-1.7-5.47-4.75a7.47,7.47,0,0,1,.16-1.51L418.75,2h6.18l-.85,4.28h3.07l-.91,4.61h-3.06Z"/><path class="cls-23" d="M446.18,12c0,.33,0,.69-.06,1.06l-10.58,2c.41.92,1.34,1.28,2.79,1.28a5.23,5.23,0,0,0,3.17-1.06l2.57,3.83a11,11,0,0,1-6.5,1.9c-4.95,0-8.26-2.74-8.26-7.07,0-5,3.69-8.77,9.32-8.77C442.87,5.17,446.18,7.49,446.18,12Zm-10.69,0,5-1a2,2,0,0,0-2.16-1.57A2.85,2.85,0,0,0,435.49,12Z"/><path class="cls-24" d="M465.92,15.06a1.07,1.07,0,0,0,1.21,1.17,2.57,2.57,0,0,0,1.06-.22l-.65,4.61a9.64,9.64,0,0,1-2.74.39c-2.51,0-4.07-1-4.64-2.77a5.92,5.92,0,0,1-5,2.77c-3,0-6.16-2.51-6.16-7.07,0-5,3.67-8.77,8-8.77a4.76,4.76,0,0,1,4.38,2L462.64,0h6.18L466,14.53A3.9,3.9,0,0,0,465.92,15.06Zm-5.68-2.52a2.16,2.16,0,0,0-2.22-2.4c-1.61,0-2.7,1.37-2.7,3.49A2.16,2.16,0,0,0,457.53,16C459.14,16,460.24,14.67,460.24,12.54Z"/></g></g></svg>