<svg xmlns="http://www.w3.org/2000/svg" xmlns:xlink="http://www.w3.org/1999/xlink" viewBox="0 0 416.12 274.75"><defs><style>.cls-1{fill:none;}.cls-2{isolation:isolate;}.cls-3{clip-path:url(#clip-path);}.cls-4{fill:url(#radial-gradient);}.cls-5{fill:url(#Áåçûìÿííûé_ãðàäèåíò_266);}.cls-6{fill:#e6a1f0;}.cls-12,.cls-6{mix-blend-mode:multiply;}.cls-7{fill:#705718;}.cls-13,.cls-15,.cls-16,.cls-17,.cls-18,.cls-7{mix-blend-mode:screen;}.cls-8{clip-path:url(#clip-path-2);}.cls-9{fill:#f5dbbc;}.cls-10{fill:#fcf7ea;}.cls-11{fill:url(#Áåçûìÿííûé_ãðàäèåíò_548);}.cls-12{fill:#a6e0d1;}.cls-13{fill:url(#Áåçûìÿííûé_ãðàäèåíò_581);}.cls-14{fill:url(#Áåçûìÿííûé_ãðàäèåíò_574);}.cls-15{fill:url(#Áåçûìÿííûé_ãðàäèåíò_581-2);}.cls-16{fill:url(#Áåçûìÿííûé_ãðàäèåíò_581-3);}.cls-17{fill:url(#Áåçûìÿííûé_ãðàäèåíò_581-4);}.cls-18{fill:url(#Áåçûìÿííûé_ãðàäèåíò_581-5);}.cls-19{fill:#095d5e;}.cls-20{fill:url(#linear-gradient);}</style><clipPath id="clip-path" transform="translate(18.96 14.69)"><path class="cls-1" d="M186.93,122.42c0,24.63-2.23,54.75.89,73.89,2.32,14.25,3.53,19.84,13.8,28.05,3.31,2.65,1,7.16,5.34,10.69,15.95,13,57.79,7.88,65.89,6.23,56.65-11.6,100.53-49.58,100.53-109.66A124.32,124.32,0,0,0,249.06,7.3c-14,0-44.37-2.59-57.89,4.18-9.26,4.64-4.69,13.67-5,30.92C185.88,62.16,186.93,77.28,186.93,122.42Z"/></clipPath><radialGradient id="radial-gradient" cx="229.14" cy="60.02" r="203.93" gradientUnits="userSpaceOnUse"><stop offset="0" stop-color="#d92055"/><stop offset="0.68" stop-color="#6e084c"/><stop offset="0.76" stop-color="#77094f"/><stop offset="0.88" stop-color="#8e0d58"/><stop offset="1" stop-color="#ab1163"/></radialGradient><radialGradient id="Áåçûìÿííûé_ãðàäèåíò_266" cx="233.57" cy="60.43" r="207.24" gradientUnits="userSpaceOnUse"><stop offset="0" stop-color="#ffc23e"/><stop offset="0.1" stop-color="#f9b241"/><stop offset="0.29" stop-color="#e8884a"/><stop offset="0.55" stop-color="#ce4459"/><stop offset="0.73" stop-color="#bc1463"/><stop offset="0.76" stop-color="#bf1a63"/><stop offset="0.81" stop-color="#c62a63"/><stop offset="0.87" stop-color="#d34663"/><stop offset="0.93" stop-color="#e56c62"/><stop offset="1" stop-color="#fb9c62"/><stop offset="1" stop-color="#fc9e62"/></radialGradient><clipPath id="clip-path-2" transform="translate(18.96 14.69)"><path class="cls-1" d="M186.46,118.87c0,24.63,3.89,55.11-.89,73.9-3.55,13.91-4.39,19.5-13.81,28-3.13,2.84-1,7.15-5.34,10.68-15.95,13.05-57.79,7.89-65.88,6.23C43.89,226.14,0,188.16,0,128.08A124.32,124.32,0,0,1,124.32,3.76c13.88,0,36.87-1,50.49,2.89,10.48,3,12.8,14.72,12.39,32.2C186.75,58.61,186.46,73.73,186.46,118.87Z"/></clipPath><radialGradient id="Áåçûìÿííûé_ãðàäèåíò_548" cx="228.57" cy="70.57" r="221.99" gradientTransform="translate(8.21 -45.26) rotate(24.21)" gradientUnits="userSpaceOnUse"><stop offset="0" stop-color="#14d8e0"/><stop offset="0.68" stop-color="#0c6d9e"/><stop offset="0.73" stop-color="#0c76a3"/><stop offset="0.82" stop-color="#0c8db2"/><stop offset="0.93" stop-color="#0bb3c9"/><stop offset="1" stop-color="#0bd1db"/></radialGradient><linearGradient id="Áåçûìÿííûé_ãðàäèåíò_581" x1="203.94" y1="60.03" x2="113.9" y2="171.59" gradientUnits="userSpaceOnUse"><stop offset="0" stop-color="#4db089"/><stop offset="1"/></linearGradient><radialGradient id="Áåçûìÿííûé_ãðàäèåíò_574" cx="236.76" cy="66.93" r="269.96" gradientTransform="translate(-83.76 84.73) rotate(-20.79)" gradientUnits="userSpaceOnUse"><stop offset="0" stop-color="#cdd40f"/><stop offset="0.68" stop-color="#0e7446"/><stop offset="0.72" stop-color="#177842"/><stop offset="0.79" stop-color="#2e8537"/><stop offset="0.87" stop-color="#549824"/><stop offset="0.96" stop-color="#89b30b"/><stop offset="1" stop-color="#9fbf00"/></radialGradient><linearGradient id="Áåçûìÿííûé_ãðàäèåíò_581-2" x1="223.43" y1="79.14" x2="192.51" y2="143.72" xlink:href="#Áåçûìÿííûé_ãðàäèåíò_581"/><linearGradient id="Áåçûìÿííûé_ãðàäèåíò_581-3" x1="211.91" y1="125.75" x2="194.02" y2="158.79" xlink:href="#Áåçûìÿííûé_ãðàäèåíò_581"/><linearGradient id="Áåçûìÿííûé_ãðàäèåíò_581-4" x1="136.91" y1="164.73" x2="147.22" y2="227.48" xlink:href="#Áåçûìÿííûé_ãðàäèåíò_581"/><linearGradient id="Áåçûìÿííûé_ãðàäèåíò_581-5" x1="8.32" y1="146.42" x2="48.95" y2="196.75" xlink:href="#Áåçûìÿííûé_ãðàäèåíò_581"/><linearGradient id="linear-gradient" x1="134.3" y1="151.48" x2="349.12" y2="151.48" gradientUnits="userSpaceOnUse"><stop offset="0" stop-color="#ffc21d"/><stop offset="0.1" stop-color="#f9b224"/><stop offset="0.29" stop-color="#e88835"/><stop offset="0.55" stop-color="#ce4450"/><stop offset="0.73" stop-color="#bc1463"/></linearGradient></defs><g class="cls-2"><g id="Capa_2" data-name="Capa 2"><g id="Capa_1-2" data-name="Capa 1"><g class="cls-3"><path class="cls-4" d="M155.1,39.93c34.59-45,97.44-60.84,150-42.83Q310.6-1,316,1.39a118.15,118.15,0,0,1,33.42,22.19c16.43,15.7,30.55,30.18,38.31,52.47,12.15,34.93,6.5,77.19-8.58,110.12-6,13-13.48,25.52-23.74,35.39-21.82,21-53.37,27.84-83.39,29.56-34.53,2-70.65-3.43-98.53-25.7C160.29,214.91,151,199,142.89,184.24c-5.39-9.76-12.23-21.87-14-33.05a152.94,152.94,0,0,1,5.54-72A133.38,133.38,0,0,1,155.1,39.93Z" transform="translate(18.96 14.69)"/><path class="cls-5" d="M396.28,94c-.21-1.61-.49-3.22-.82-4.82a102.69,102.69,0,0,0-5.2-17.06,115.66,115.66,0,0,0-13-23.58c-1.62-2.3-3.3-4.57-5-6.79C360.74,26.9,346.91,13.43,330.08,5.08A52.46,52.46,0,0,0,319.6,1.4c-2.35-.6-4.76-1.14-7.18-1.76a150.68,150.68,0,0,1,38.7,45.58c6.21,11.26,11,23.41,19,33.53,4.51,5.75,9.9,10.71,14.9,16,3.19,3.41,6.78,7.52,8.5,12.13a14.93,14.93,0,0,1,.93,6.71,16,16,0,0,0,1.27-2.42C398,105.76,397.08,99.87,396.28,94Zm-1.36,34.53a26.07,26.07,0,0,0-1-2.75c-3.06-7.18-7.15-14-13.07-19.08-.2-.19-.4-.36-.6-.53-7.07-5.79-16.31-11-20.36-19.53-4.4-9.25-5.81-19.37-12-27.81-3.27-4.47-7.41-8.21-10.67-12.7s-5.41-10-8.23-14.93c-1.6-2.8-3.44-5.45-5.2-8.14A25.52,25.52,0,0,0,320.53,19c-.83-.84-3-2-3.52-3,.14.3.3.6.44.91A127.53,127.53,0,0,1,327.73,45.2a28,28,0,0,0,3.9,10.06c2.3,3.36,5.81,4.8,8.63,7.56,3.84,3.74,4.58,8.81,4.92,13.87.11,1.45.16,2.9.27,4.31.44,6.31,1.48,12.77,4.57,18.38s9,10.12,13.43,14.78a98.67,98.67,0,0,1,24.77,46.16,33.93,33.93,0,0,0,3.52-4.82A32.81,32.81,0,0,0,394.92,128.54ZM310,15.67a73.15,73.15,0,0,0-5.95-7.73,140.58,140.58,0,0,0-15.4-14.58,32.07,32.07,0,0,0-16.81-7.68c-5.39-.7-10.85-.26-16.26.19l-19.37,1.61a26.54,26.54,0,0,0-8.32,1.61,10.33,10.33,0,0,0-4.12,3.11,7.09,7.09,0,0,0-1.38,3c5.08-1.51,10.42-1,15.7-.42l.37,0a231,231,0,0,1,23,3.8C277,1.93,290.3,11.35,303.52,19.73c5.09,3.22,10.32,6.6,13.64,11.61A51.1,51.1,0,0,0,310,15.67Zm72.69,163.49c-.07-.89-.14-1.78-.22-2.67a83.57,83.57,0,0,0-3.23-16.36,63.08,63.08,0,0,0-7.05-15.31,51.43,51.43,0,0,0-6.33-8.06c-5.5-5.72-12.59-9.52-18.34-14.93-5.49-5.15-10.86-10.93-13.17-18.26-1.93-6.11-1.53-12.68-2-19.08a70.62,70.62,0,0,0-2.29-13.22,84.61,84.61,0,0,0-13.37-27.39,97.88,97.88,0,0,0-10-11.74c-1.63-1.65-2.71-3.58-4.47-5.1a58.23,58.23,0,0,0-7-5.17c-11-6.93-23.71-11.67-36.15-15.26A176,176,0,0,0,225.78.4q-8.46-.75-16.95-.67c-4.9.05-10.48.1-15,2.16a16.06,16.06,0,0,0-6.15,4.85,12.47,12.47,0,0,0-2.31,4.86c.12-.57,5.91.51,6.5.65a43,43,0,0,1,5.17,2,44.41,44.41,0,0,1,10.09,5.42,46.69,46.69,0,0,1,10.22,9.92c2.46,3.28,5.15,6.24,3.66,10.6-.85,2.51-2.44,4.83-2.7,7.47-.33,3.38,1.5,6.54,3.42,9.33A102.82,102.82,0,0,0,248.5,83.77c6.53,4.44,13.78,8.19,21.63,9.08a34.7,34.7,0,0,0,23.23-6,24.67,24.67,0,0,0,7.88-8.19,15,15,0,0,0,1.61-11.06c-1-3.54-3.4-6.35-6.31-8.64a40.26,40.26,0,0,0-4.81-3.26,92.93,92.93,0,0,0-31.88-11.6c-2.33-.39-5-.61-6.78.88-1.65,1.35-2,3.56-1.68,5.75a12.86,12.86,0,0,0,.71,2.76,23.89,23.89,0,0,0,8.62,11,14.25,14.25,0,0,0,7.1,2.8,8,8,0,0,0,6.85-2.88,5.55,5.55,0,0,0-.32-7.08c3.15,3.09,6.39,6.31,7.93,10.43s.89,9.43-2.7,12A8.85,8.85,0,0,1,277.17,81a16.5,16.5,0,0,1-5.3.61,33.4,33.4,0,0,1-19.31-6.28A26,26,0,0,1,242.2,58.11c-.64-5.1.44-10.32-.38-15.4-1.07-6.6-5.25-12.31-10.1-16.89s-10.49-8.28-15.52-12.67c.81.55,1.64,1.07,2.48,1.56,10.16,6.05,21.91,9.07,33.18,12.79,12.21,4,24.58,8,35.65,14.47a63.18,63.18,0,0,1,19.65,17.4c2.45,3.45,3.8,7.09,5.56,10.83,2.09,4.43,2.86,8.11,1.68,13S311,92.6,310.5,97.52c-.91,8.32,3.24,16.56,9.11,22.52,6.28,6.37,14.39,10.81,22.31,14.75,5.8,2.88,12.19,4.68,17.43,8.47,7.34,5.33,11.32,13.7,13.54,22.27,2.29,8.86,4.46,19.36,2.22,28.37-.12.45-.23.91-.38,1.37.16-.5,1.85-1.53,2.9-2.27a4.54,4.54,0,0,0,.7-.56,17.36,17.36,0,0,0,2.88-3.93C383,185.26,383,182.71,382.71,179.16ZM204.58,42.65c-.06-6.18-1.7-12.57-5.26-17.53a30.76,30.76,0,0,0-16.55-11.6c-2.91-.83-7.39,1.25-9.91,2.92a12.11,12.11,0,0,0-4.23,5.26,7.22,7.22,0,0,0-.58,3.77c7.31,1.63,14.87.84,21.79,3.7s13.32,8.4,14.71,15.76C204.58,44.17,204.6,43.42,204.58,42.65Zm92,68.32a40.7,40.7,0,0,0-12.45-4.34c-7.11-1.39-14.05-1.32-21.24-.9a32.11,32.11,0,0,1-8.7-.28c-.87-.19-8-2.32-8-3.48a6.55,6.55,0,0,0-.17,1.92,7.34,7.34,0,0,0,1,3.5c3.66,6.06,12.7,8.3,19.15,9.1,6.64.81,13.35.45,20,.66s13.47,1,19.42,4l.07,0A24.21,24.21,0,0,0,296.61,111Zm-65.23-18.6a51.8,51.8,0,0,0-.93-5.77,35.55,35.55,0,0,0-8-16c-4.47-5-10.3-8.73-14.74-13.78a17.91,17.91,0,0,0-.36,1.8,19.61,19.61,0,0,0,.8,9.34c1.21,3.61,3.53,5.61,5.63,8.56,1.78,2.47,3.71,4.83,5.59,7.21,5,6.26,9,12.6,10.28,20.59C231.77,101.92,231.85,96.81,231.38,92.37ZM370.1,192.87a49.27,49.27,0,0,0-1-7.74,62.23,62.23,0,0,0-4.94-14,67.3,67.3,0,0,0-5-8.57,70,70,0,0,0-13.49-14.7c-15.9-13-36.56-19.22-57.07-20.52-10.36-.65-20.81-.16-31-1.9s-20.28-6.24-26.41-14.6a19,19,0,0,0,.13,12.66,23.68,23.68,0,0,0,5.08,8.43c5.21,5.58,12.6,8.66,20.07,10.19a114.2,114.2,0,0,0,19.5,2.14c5.95.15,11.37-.38,16.91,2.45,3.11,1.6,5.84,4.38,6.45,7.84a.82.82,0,0,1,0,.54.4.4,0,0,1-.13.16.75.75,0,0,1-.53,0c-2.69-.8-5.42-1.88-8.16-2.43a14,14,0,0,0-7,.72c-3.71,1.18-7.06,3.27-10.56,5s-7.37,3.06-11.24,2.63c-4.37-.49-8.16-3.14-12.27-4.72-4.66-1.79-9.85-2.22-14.28-4.65s-7-7.66-8.53-12.38c-5.94-17.68-4.6-38.15-15.34-53.42-3.38-4.8-7.93-9-9.74-14.6-1.76-5.38-.71-11.29-1.77-16.86-1.8-9.53-9.78-17.08-18.91-20.34-8.4-3-20.65-4.44-27.76,2.14a34.46,34.46,0,0,0-5.85,7.85,142.79,142.79,0,0,0-10.35,21.47h0c-.26.68-.52,1.35-.77,2a25.53,25.53,0,0,0-1.71,5.08c-.22,1.81.31,4,.5,5.8,0-1.63,2.74-4.78,3.65-5.94a19.07,19.07,0,0,1,5.73-4.66c5.5-3,11.39-4.42,17.72-3.1,9.49,2,17.55,8.28,24.06,15.47A88.83,88.83,0,0,1,208.68,134c.18,2.94.59,6,.5,9-.08,2.18-.63,4.15-.19,6.38.91,4.68,4.27,8.74,8.26,11.19,5.57,3.4,12.35,4.48,18.73,5.14a42.17,42.17,0,0,1,18.81,6.74c2.16,1.42,4.27,3.07,6.8,3.61a11.77,11.77,0,0,0,7.72-1.44,67,67,0,0,0,6.66-4.44,33.64,33.64,0,0,1,12.55-5.56c7.12-1.35,13.3,1.25,19.3,4.84a51.69,51.69,0,0,1,19.25,21,65.33,65.33,0,0,1,6.47,24.16c.62,7.79,1.53,16.08-5.78,20.86A26.91,26.91,0,0,1,313.81,240a18.84,18.84,0,0,1-13.58-5.09,14.6,14.6,0,0,1-4.11-13.62c.52-2.06,2.35-4.32,4.34-3.6,1.71.62,2,2.87,2.94,4.43,1.92,3.23,7,3.25,9.87.81s3.86-6.43,4.05-10.19a32.67,32.67,0,0,0-4.48-18.07h0a31.18,31.18,0,0,0-4.17-5.61c-3.18-3.4-7.43-6.2-12.1-6.16-5.39.06-10,3.87-13.4,8.05a43.14,43.14,0,0,0-9.07,19.6h0a35.28,35.28,0,0,0,.19,14,31.62,31.62,0,0,0,15,20.4,25.63,25.63,0,0,0,7.36,2.83c.61.15,1.21.25,1.83.34,6.89.94,13.42,1.2,20.16-.57,9.84-2.6,19.57-6.76,26.71-14a38.83,38.83,0,0,0,5.3-6.71c1.42-2.29.47-4.61.07-7.17l-.21-1.35c-.43-2.71-.88-5.42-1.38-8.13-2-11-4.89-21.82-10.16-31.66-.27-.51-.55-1-.84-1.52-3.59-6.32-8.17-12-11.82-18.33-.34-.6-.87-2.62-1.56-2.82l.2.06c9.45,2.73,17,10,23.64,17,4.19,4.42,8.48,9,10.76,14.68a48.91,48.91,0,0,1,3.41,14.8c.19,2.51.05,5,.05,7.49a10.15,10.15,0,0,1-.38,3.18c-.07.2-.88,1.7-1.3,2.4-.15.21-.24.36-.28.36a2,2,0,0,0,2,.73,4.54,4.54,0,0,0,2-1c3.73-2.81,4.74-7.6,5.43-12.22a17.64,17.64,0,0,0,.18-3.56C370.31,197.45,370.25,195.16,370.1,192.87ZM261.35,203.2c-.17-.58-.32-1.15-.5-1.73-1.85-6.3-4.36-12.52-8.7-17.41a35.14,35.14,0,0,0-15.23-9.66,69.32,69.32,0,0,0-18-3.23,22.14,22.14,0,0,0-8.41.68,10.41,10.41,0,0,0-2,.93c-4,2.35-5.74,7.22-6.08,11.83a27.08,27.08,0,0,0,2.44,13.45,24.6,24.6,0,0,0,3.87,6,23.58,23.58,0,0,0,18.59,8c5.23-.27,10.78-2.93,12.6-7.85,1.31-3.57.43-7.54-.44-11.24a17.67,17.67,0,0,1,6.57,10.62,15.79,15.79,0,0,1-2.71,12.11c-3.21,4.33-8.56,6.6-13.87,7.54a34.26,34.26,0,0,1-11.34.17,28.18,28.18,0,0,1-8.56-2.74c-9-4.59-13.51-13.19-16.69-22.29-1.8-5.18-2.49-11.06-3-16.51a52.23,52.23,0,0,1,.77-17.37c.15-.69.33-1.36.53-2A65.28,65.28,0,0,1,194,155c.84-1.94,1.69-3.87,2.45-5.84a34.92,34.92,0,0,0,1.73-6c1.89-9.32,0-18.74-4.9-27.21-.25-.44-.51-.88-.78-1.3h0a67.22,67.22,0,0,0-27.27-25.09c-4.87-2.42-10.33-4.28-15.68-3.31s-10.34,5.57-10.11,11c.1,2.52,1.17,5.4-.43,7.35-1.34,1.63-4,1.55-5.75.43s-2.4-6.5-3.46-8.32c-4.37,3.55-5.21,5.67-6,8a32.94,32.94,0,0,0-1.73,7.19c-.59,4.44-1.2,9-.72,13.4a3.59,3.59,0,0,0,0,.46c.56,4.61,2.43,9.23,6,12.17,3.26,2.68,8.79-.21,12.12-2.8,4.47-3.48,7-9.48,12.3-11.55,3.62-1.42,7.45-.13,10.77,1.53a25,25,0,0,1,8.62,7.85,55.22,55.22,0,0,1,8.51,17.35c1.65,5.74,3,12.34,1.45,18.2-1.48,5.59-4.89,10.43-7.33,15.66a48.22,48.22,0,0,0-4.36,16.69c-.39,5.29-.42,11.55,1,16.68,2.32,8.34,9.14,14.64,16.24,19.58a82.53,82.53,0,0,0,26,12.45,56.18,56.18,0,0,0,28.64.33c6.1-1.63,12-4.59,16.1-9.38s6.28-11.51,6.59-18S263.09,209.47,261.35,203.2Zm-94.62-44a34.68,34.68,0,0,0-4.22-11.33c-1.91-3.34-5.25-6.87-8.94-5.84-2.58.73-4.06,3.42-4.88,6-1.68,5.23-2.57,9.91-8.32,12-3,1.06-5.72.76-7.89-1.6-1.12-1.24-3.27-6.25-3.78-8.21-4.13,11.88,0,21.61,6.39,30.87,1.12,1.62,2.31,3.22,3.54,4.82,3.64,4.75,5.74,10.21,8.3,15.45.47,1,1,2,1.49,2.92,1.62,3,5,5.51,7.71,7.53,1,.71,4.56,3.47,7.52,4.21a148.2,148.2,0,0,1,1-34.71c.77-5.14,2.05-10.21,2.39-15.4A28.63,28.63,0,0,0,166.73,159.15Z" transform="translate(18.96 14.69)"/><path class="cls-6" d="M167,165.8c-.34,5.19-1.62,10.26-2.39,15.4a148.2,148.2,0,0,0-1,34.71c-3-.74-6.57-3.5-7.52-4.21-2.68-2-6.09-4.54-7.71-7.53-.52-1-1-1.93-1.49-2.92-2.56-5.24-4.66-10.7-8.3-15.45-1.23-1.6-2.42-3.2-3.54-4.82a11.06,11.06,0,0,0,1.79.67,25.29,25.29,0,0,0,7.06.21c2.76-.18,5.6-.36,8.08-1.56,3.54-1.72,5.84-5.24,7.48-8.8s2.83-7.38,5-10.63a3.33,3.33,0,0,1,2.19-1.72A28.63,28.63,0,0,1,167,165.8Z" transform="translate(18.96 14.69)"/><path class="cls-6" d="M264.05,222.46c-.31,6.51-2.34,13.09-6.59,18s-10,7.75-16.1,9.38a56.18,56.18,0,0,1-28.64-.33,82.53,82.53,0,0,1-26-12.45c-7.1-4.94-13.92-11.24-16.24-19.58-1.42-5.13-1.39-11.39-1-16.68a48.22,48.22,0,0,1,4.36-16.69c2.44-5.23,5.85-10.07,7.33-15.66,1.54-5.86.2-12.46-1.45-18.2a55.22,55.22,0,0,0-8.51-17.35,25,25,0,0,0-8.62-7.85c-3.32-1.66-7.15-2.95-10.77-1.53-5.28,2.07-7.83,8.07-12.3,11.55-3.33,2.59-8.86,5.48-12.12,2.8-3.59-2.94-5.46-7.56-6-12.17a3.59,3.59,0,0,1,0-.46,8.29,8.29,0,0,0,6.27,4.61c4.23.5,8.29-1.8,11.56-4.55s6.12-6,9.84-8.1c9.13-5.09,21.38-1.18,28.09,6.84s8.66,19.07,8.2,29.51-3.1,20.65-4.57,31-1.67,21.26,2.48,30.86c5.54,12.84,18.24,21.45,31.59,25.65,8.82,2.79,16.33,3.91,25.2.21a22,22,0,0,0,7.11-4.47c2.38-2.38,7.13-15.57-.52-13.84-2.72.62-5.27,2.1-8,2.71a32,32,0,0,1-20.41-2.27,34.26,34.26,0,0,0,11.34-.17c5.31-.94,10.66-3.21,13.87-7.54a15.79,15.79,0,0,0,2.71-12.11A17.67,17.67,0,0,0,239.49,193c.87,3.7,1.75,7.67.44,11.24-1.82,4.92-7.37,7.58-12.6,7.85a23.58,23.58,0,0,1-18.59-8,24.6,24.6,0,0,1-3.87-6,18.65,18.65,0,0,0,7.59,4.57,19.11,19.11,0,0,0,16.81-3c3.17-2.43,3.85-5.65,5.21-9.31a2.11,2.11,0,0,1,3.49-1.25c4.12,1.77,7,3.81,9,8a64.61,64.61,0,0,1,3,8.55c.76,2.35,2.07,5.06,4.52,5.29,2.27.22,4.09-1.9,4.86-4.05.63-1.75.85-3.67,1.54-5.38.18.58.33,1.15.5,1.73C263.09,209.47,264.37,216,264.05,222.46Z" transform="translate(18.96 14.69)"/><path class="cls-6" d="M349.12,210.16l-.09,0c-1.58.58-3.19-.86-4.86-.86-2.37,0-3.69,2.71-4.28,5-1.51,6-1.9,12.42-5.1,17.69s-8.9,8.69-14.91,10-12.31.63-18.26-.92a23.17,23.17,0,0,0-5.68-1.08,6.34,6.34,0,0,0-5.15,2.16,18.62,18.62,0,0,0-1.51,2.75,31.62,31.62,0,0,1-15-20.4,35.28,35.28,0,0,1-.19-14,33.39,33.39,0,0,0,2.65,7.27c1.34,2.69,3.47,5.43,6.46,5.75,3.72.39,4.29-1.82,5.87-4.3a24.35,24.35,0,0,1,8.27-7.62,5.38,5.38,0,0,1,3.92-.94c2.46.66,3.17,4.08,5.52,5.08,1.8.75,4-.29,5.08-1.9a11.2,11.2,0,0,0,1.55-5.59,56.56,56.56,0,0,0-.57-13.63,32.67,32.67,0,0,1,4.48,18.07c-.19,3.76-1.2,7.75-4.05,10.19s-7.95,2.42-9.87-.81c-.93-1.56-1.23-3.81-2.94-4.43-2-.72-3.82,1.54-4.34,3.6a14.6,14.6,0,0,0,4.11,13.62A18.84,18.84,0,0,0,313.81,240a26.91,26.91,0,0,0,13.95-4.64c7.31-4.78,6.4-13.07,5.78-20.86a65.33,65.33,0,0,0-6.47-24.16,51.69,51.69,0,0,0-19.25-21c-6-3.59-12.18-6.19-19.3-4.84A33.64,33.64,0,0,0,276,170.12a67,67,0,0,1-6.66,4.44,11.77,11.77,0,0,1-7.72,1.44c-2.53-.54-4.64-2.19-6.8-3.61A42.17,42.17,0,0,0,236,165.65c-6.38-.66-13.16-1.74-18.73-5.14-4-2.45-7.35-6.51-8.26-11.19-.44-2.23.11-4.2.19-6.38.09-2.93-.32-6-.5-9A88.83,88.83,0,0,0,186,80.28C179.5,73.09,171.44,66.83,162,64.81c-6.33-1.32-12.22.07-17.72,3.1a19.07,19.07,0,0,0-5.73,4.66c-.91,1.16-3.65,4.31-3.65,5.94-.19-1.83-.72-4-.5-5.8a25.53,25.53,0,0,1,1.71-5.08c.25-.69.51-1.36.77-2h0c4.24-2.92,8.43-5.44,14.16-6.66,9.27-2,20.64-.74,28.81,4.32,5.27,3.25,8.77,8.65,12.1,13.86,9.92,15.59,20.2,32.35,19.89,50.82C211.58,140.79,209,158,226.07,160c5.16.6,10.48,0,15.51,1.32,5.64,1.46,10.42,5.19,15.91,7.16,6.32,2.27,10.27.08,15.92-2.3,5.35-2.26,11.48-4.73,17.21-5.79a27.19,27.19,0,0,1,24.5,8.3c3.41,3.76,5.74,8.47,9.51,11.84,4.71,4.19,13,5.39,14.33-2C344.23,188.34,347.09,199.19,349.12,210.16Z" transform="translate(18.96 14.69)"/><path class="cls-6" d="M299.45,155a2.35,2.35,0,0,1-.17-.44,10.41,10.41,0,0,0-1.28-3.26,13.14,13.14,0,0,0-5.17-4.58c-5.54-2.83-11-2.3-16.91-2.45a114.2,114.2,0,0,1-19.5-2.14c-7.47-1.53-14.86-4.61-20.07-10.19a23.68,23.68,0,0,1-5.08-8.43c4,4.22,9.63,7,15.33,8.49,7.23,1.93,14.77,2.17,22.21,2.83,10.29.92,20.91,3.11,28.79,10.31a15.44,15.44,0,0,1,4.69,7.38,4.28,4.28,0,0,1,.14,1.91,1.87,1.87,0,0,1-1.15,1.42A1.5,1.5,0,0,1,299.45,155Z" transform="translate(18.96 14.69)"/><path class="cls-6" d="M370.1,192.87a6.33,6.33,0,0,1-1.94.87,3.26,3.26,0,0,0-2.27,2.07,9.54,9.54,0,0,0-.37,2.82,52.6,52.6,0,0,1-2.67,15c-.29.86-.92,1.87-1.73,1.85.42-.7,1.23-2.2,1.3-2.4a10.15,10.15,0,0,0,.38-3.18c0-2.51.14-5-.05-7.49a48.91,48.91,0,0,0-3.41-14.8c-2.28-5.67-6.57-10.26-10.76-14.68-6.61-7-14.19-14.28-23.64-17a8.2,8.2,0,0,1-2.89-2.72,17.31,17.31,0,0,1,8.43,1.79,53.93,53.93,0,0,1,9.58,6.27c4.2,3.14,8.29,6.54,13.1,8.69a3.65,3.65,0,0,0,2.46.43c1.48-.42,1.92-2.26,2-3.8s.25-3.23,1.5-4a67.3,67.3,0,0,1,5,8.57,62.23,62.23,0,0,1,4.94,14A49.27,49.27,0,0,1,370.1,192.87Z" transform="translate(18.96 14.69)"/><path class="cls-6" d="M204.55,44.93c-1.39-7.36-7.8-12.88-14.71-15.76s-14.48-2.07-21.79-3.7a7.22,7.22,0,0,1,.58-3.77c1.43.27,2.86.72,4.28,1q3.78.66,7.49,1.53c2.8.65,5.58,1.4,8.33,2.22,4.15,1.26,8.46,2.86,11.23,6.21a23.06,23.06,0,0,1,3.5,6.75c.41,1.06.81,2.15,1.12,3.27C204.6,43.42,204.58,44.17,204.55,44.93Z" transform="translate(18.96 14.69)"/><path class="cls-6" d="M301.24,78.69a24.67,24.67,0,0,1-7.88,8.19,34.7,34.7,0,0,1-23.23,6c-7.85-.89-15.1-4.64-21.63-9.08A102.82,102.82,0,0,1,221.69,57c-1.92-2.79-3.75-6-3.42-9.33.26-2.64,1.85-5,2.7-7.47,1.49-4.36-1.2-7.32-3.66-10.6a46.69,46.69,0,0,0-10.22-9.92A44.41,44.41,0,0,0,197,14.29a43,43,0,0,0-5.17-2c-.59-.14-6.38-1.22-6.5-.65a12.47,12.47,0,0,1,2.31-4.86l.54.06a41.31,41.31,0,0,1,9.1,2.75,62.43,62.43,0,0,1,19.09,11.61,79.91,79.91,0,0,1,7.82,8.7l.58.71a29.47,29.47,0,0,1,5.66,9.91,8.17,8.17,0,0,1,.43,3.53,3.71,3.71,0,0,1-2,2.84c-1.66.75-3.91-.13-5.26,1.1s-.67,3.42.19,5c4.68,8.66,12.26,16.28,19.45,22.88,5.29,4.85,11.07,9.35,17.75,12s14.41,3.2,21,.3,11.56-9.74,11.14-16.9c-.13-2.26-.77-4.49-.66-6.75s1.25-4.7,3.42-5.36a2.8,2.8,0,0,1,.64-.13c2.91,2.29,5.34,5.1,6.31,8.64A15,15,0,0,1,301.24,78.69Z" transform="translate(18.96 14.69)"/><path class="cls-6" d="M395.68,111.2q-1.08-5.76-2.15-11.54c-.37-1.94-1.89-5.73-1.25-7.63.44-1.29,2-2,3.18-2.84a102.69,102.69,0,0,0-5.2-17.06,115.66,115.66,0,0,0-13-23.58,50.92,50.92,0,0,1-.49,10c-.24,1.56-.63,3.26-1.89,4.23a4.53,4.53,0,0,1-5.13-.16,12.94,12.94,0,0,1-3.58-4.12q-1.81-2.81-3.62-5.61c-7.52-11.7-15.09-23.46-24.2-34A116.22,116.22,0,0,0,323.66,4.41c-1.31-1.06-2.68-2-4.06-3-2.35-.6-4.76-1.14-7.18-1.76a150.68,150.68,0,0,1,38.7,45.58c6.21,11.26,11,23.41,19,33.53,4.51,5.75,9.9,10.71,14.9,16,3.19,3.41,6.78,7.52,8.5,12.13a14.93,14.93,0,0,1,.93,6.71A16,16,0,0,0,395.68,111.2ZM390.09,132c1.85-.92,3.91-1.44,4.83-3.41a26.07,26.07,0,0,0-1-2.75c-3.06-7.18-7.15-14-13.07-19.08.24,2.58.49,5.15.72,7.73.21,2.16.09,4.92-1.93,5.78-1.43.61-3.06-.16-4.39-1-5.9-3.63-10.37-8.91-15.21-13.78-8.35-8.4-11.35-18-12.48-29.53-.57-5.77-1.47-11.83-5.1-16.34S332.89,52.63,330,47.63c-2.15-3.68-2.3-8.13-3.12-12.31a37.58,37.58,0,0,0-9.41-18.39A127.53,127.53,0,0,1,327.73,45.2a28,28,0,0,0,3.9,10.06c2.3,3.36,5.81,4.8,8.63,7.56,3.84,3.74,4.58,8.81,4.92,13.87.11,1.45.16,2.9.27,4.31.44,6.31,1.48,12.77,4.57,18.38s9,10.12,13.43,14.78a98.67,98.67,0,0,1,24.77,46.16,33.93,33.93,0,0,0,3.52-4.82c-.44-3.93-2.13-7.61-3.33-11.4C387.13,140.06,385.58,134.21,390.09,132ZM310,15.67a24.43,24.43,0,0,0-4.21-.25c-5.87-.28-10.88-4.09-15.79-7.34A97.51,97.51,0,0,0,273.36-.73a100.8,100.8,0,0,0-32.47-7.43c-5.59-.33-11,.25-16.58.38a4.43,4.43,0,0,1-.52,0,7.09,7.09,0,0,0-1.38,3c5.08-1.51,10.42-1,15.7-.42l.37,0a231,231,0,0,1,23,3.8C277,1.93,290.3,11.35,303.52,19.73c5.09,3.22,10.32,6.6,13.64,11.61A51.1,51.1,0,0,0,310,15.67Zm69.24,144.46a63.08,63.08,0,0,0-7.05-15.31.82.82,0,0,0-.53-.06c-.37.08-.61.44-.88.71a3.55,3.55,0,0,1-3.68.63,10.71,10.71,0,0,1-3.29-2.12A145.94,145.94,0,0,0,341,128.69c-7.27-3.94-14.42-6.77-19.81-13.46A28.16,28.16,0,0,1,315,100.39c-.49-5.43-1.72-11.55,2.38-16.06a43.19,43.19,0,0,0,3.11-3.09c1.71-2.35,1.58-5.53,1.11-8.4-1.31-7.89-4.82-14.53-9.44-20.92-5.79-8-14.76-13.38-23.6-17.57a300.47,300.47,0,0,0-73.71-23.89,34,34,0,0,0,3.79,4.25c10.16,6.05,21.91,9.07,33.18,12.79,12.21,4,24.58,8,35.65,14.47a63.18,63.18,0,0,1,19.65,17.4c2.45,3.45,3.8,7.09,5.56,10.83,2.09,4.43,2.86,8.11,1.68,13S311,92.6,310.5,97.52c-.91,8.32,3.24,16.56,9.11,22.52,6.28,6.37,14.39,10.81,22.31,14.75,5.8,2.88,12.19,4.68,17.43,8.47,7.34,5.33,11.32,13.7,13.54,22.27,2.29,8.86,4.46,19.36,2.22,28.37-.12.45-.23.91-.38,1.37.16-.5,1.85-1.53,2.9-2.27a11.65,11.65,0,0,0,.29-1.5c.38-3.06-.07-6.2.54-9.2a8.31,8.31,0,0,1,4-5.81A83.57,83.57,0,0,0,379.26,160.13ZM283.45,63.58a16.51,16.51,0,0,0-5.61-6.51,16.31,16.31,0,0,0-4-2c-.87-.3-2.65-.35-2.9-1.5.45,2.08,1.42,6.15.14,8.15-1.63,2.55-5.91,1.39-8.08.41a23.53,23.53,0,0,1-8.19-6.34,16.77,16.77,0,0,1-3-4.19c-.07-.16-.22-.45-.38-.83a12.86,12.86,0,0,0,.71,2.76,23.89,23.89,0,0,0,8.62,11,14.25,14.25,0,0,0,7.1,2.8,8,8,0,0,0,6.85-2.88,5.55,5.55,0,0,0-.32-7.08c3.15,3.09,6.39,6.31,7.93,10.43s.89,9.43-2.7,12A8.85,8.85,0,0,1,277.17,81a6.76,6.76,0,0,0,5.09-1.77C286,75.4,285.61,68.1,283.45,63.58Zm12.78,52.15c-5.71-1.92-11.82-2.25-17.83-2.39s-12.1-.12-18-1.37a27.91,27.91,0,0,1-9.74-3.71A18.12,18.12,0,0,1,247,105c-.18-.21-.55-.62-.95-1.1a7.34,7.34,0,0,0,1,3.5c3.66,6.06,12.7,8.3,19.15,9.1,6.64.81,13.35.45,20,.66s13.47,1,19.42,4A26.43,26.43,0,0,0,296.23,115.73ZM231.38,92.37a2.83,2.83,0,0,1-2.6.84A4.58,4.58,0,0,1,225.94,91a22.16,22.16,0,0,1-1.45-3.44c-2.17-5.47-6.36-9.84-10-14.43a33.11,33.11,0,0,1-6.18-10.67c-.25-.79-.3-2.85-1-3.82a19.61,19.61,0,0,0,.8,9.34c1.21,3.61,3.53,5.61,5.63,8.56,1.78,2.47,3.71,4.83,5.59,7.21,5,6.26,9,12.6,10.28,20.59C231.77,101.92,231.85,96.81,231.38,92.37Z" transform="translate(18.96 14.69)"/><path class="cls-7" d="M147.44,90.62c2.67-.68,5.69.35,8.2.95a54.12,54.12,0,0,1,26,14.77c6.69,7,11.66,14.46,11.53,24.54,0,.89-.44,2.09-1.31,1.9a1.57,1.57,0,0,1-.84-.71c-3.2-4.45-6.17-9.48-10-13.43a97.68,97.68,0,0,0-12.31-11.22A38.75,38.75,0,0,0,152.34,100a25,25,0,0,1-4.89-1A5.35,5.35,0,0,1,144,95.61a3.3,3.3,0,0,1,.11-1.92A5,5,0,0,1,147.44,90.62Zm60.18,93.19a7.51,7.51,0,0,0,5.6,5.92c2.81.64,5.7-.41,8.4-1.45,1.56-.6,3.27-1.33,4-2.84a5.44,5.44,0,0,0-.18-4.2,11.61,11.61,0,0,0-6.08-6.68C213.47,172.07,206.52,177.32,207.62,183.81Zm21.1-4.41c.53,1.13,1.32,2.34,2.31,2.55s3.63,0,4-1.14a1.82,1.82,0,0,0-.44-1.52c-.72-1-6.25-5-6.58-2.37a2.45,2.45,0,0,0,.18,1.13A13.49,13.49,0,0,0,228.72,179.4ZM131,107.35c-1.16-.69-2-2.23-2.8-3.29a1.66,1.66,0,0,0-.73-.61c-.66-.19-1.22.51-1.51,1.14-1.43,3.16-1.37,7.93,2.26,9.7,1.69.82,3.71.29,5.44-.43a6.36,6.36,0,0,0,1.93-1.1,2.56,2.56,0,0,0,.9-2,3,3,0,0,0-2.07-2.32C133.37,108,132,107.93,131,107.35Zm27.39,42.53a8.33,8.33,0,0,0-2.68-3.24c-4.31-2.68-8.43,6-6.94,9.35a3.5,3.5,0,0,0,2.64,1.88c2.25.38,6.38-.3,7.67-2.42C160.1,153.78,159.32,151.6,158.38,149.88Zm62.4-74.38a1.55,1.55,0,0,0,.95.4,1.08,1.08,0,0,0,.91-1,2.75,2.75,0,0,0-.3-1.4c-.67-1.52-5.65-8.72-7.84-7C212.06,68.47,219.57,74.62,220.78,75.5ZM167.13,36.28a3.64,3.64,0,0,0,.83,3.43,10.83,10.83,0,0,0,2.94,2.2L191,53.61a2.7,2.7,0,0,0,2.3.52c1.06-.46,1.07-2,.77-3.06-1.32-4.88-5.2-8.74-9.62-11.18a43.61,43.61,0,0,0-9.76-3.7C172.74,35.67,168.16,33.37,167.13,36.28Zm-8,.54a4,4,0,0,0-1.71,2.5,2.41,2.41,0,0,0,1.31,2.57,2.63,2.63,0,0,0,2.73-.73A7.53,7.53,0,0,0,163,38.6a3.42,3.42,0,0,0,.42-1.83C163.1,34.51,160.17,36.12,159.16,36.82Zm56.1,76.59c.24.59.61,1.28,1.24,1.32a1.17,1.17,0,0,0,1.07-.76,3.31,3.31,0,0,0,.19-1.37,45.49,45.49,0,0,0-4.5-19.66c-1.12-2.38-2.89-6.81-5.44-8-1.81-.83-4.17-.93-4,1.7s3.14,5.39,4.43,7.7C211.31,100.53,212.68,107,215.26,113.41Zm2.8,9.41a1.53,1.53,0,0,0,1.41.77c.62-.13.89-.87,1-1.51.17-1.35.1-5.66-2.08-4.72C216.39,118.22,217.14,121.54,218.06,122.82Zm20.42-86.07a11.27,11.27,0,0,0-2.63-4.68c-1-1.05-3.23-2.33-2.7.3q1,5,2.06,10.08a12.75,12.75,0,0,1,.38,3.63A4.29,4.29,0,0,1,234,49.22c-1.14.78-2.74.79-3.7,1.78-1.28,1.32-.69,3.5.14,5.14,2.34,4.65,5.9,8.56,9.41,12.41,1.55,1.7,3.31,3.75,5.39,4.82.59.31,4.29,1.82,4.3.76a1,1,0,0,0-.42-.67,29.94,29.94,0,0,1-4.24-3.88c-2.09-2.65-4-5.28-5.06-8.54-1.54-4.9-.8-9.95-.53-14.95A27.44,27.44,0,0,0,238.48,36.75Zm-49.68-16a3.67,3.67,0,0,0,.86,1.42,12.48,12.48,0,0,0,4.15,3.29c.67.3,1.56.48,2-.06a1.74,1.74,0,0,0,0-1.86,8,8,0,0,0-3.75-3.61C191,19.35,188.2,18.32,188.8,20.7Zm66.42,30.82a13.48,13.48,0,0,0,2.66,2.57,4.46,4.46,0,0,0,3.52.77c1.81-.46,2.87-2.28,3.73-3.94a3.39,3.39,0,0,0,.55-2,2.9,2.9,0,0,0-1.26-1.8,8.53,8.53,0,0,0-8-1.66C253.19,46.63,253,48.89,255.22,51.52Zm22.59,58.73c.31-.09.66-.25.71-.56s-.45-.7-.87-.8c-1.64-.41-12.43-2.78-12.08,0C266,112.22,275.81,110.85,277.81,110.25ZM285.94,199a6.24,6.24,0,0,0,4.1,2.26,18.67,18.67,0,0,0,4.78-.1,20.71,20.71,0,0,0,7.07-1.61c2.17-1.09,4-3.16,4.14-5.58.26-5.48-7.66-9.13-12.21-7.2C289.73,188.5,282.07,193.69,285.94,199Zm-13.62-69c-5.51-3-12.05-1.88-18-2.93s-11-4.23-16.75-5.91c-.4-.11-.92-.18-1.13.17s.24.93.69,1.19a60.45,60.45,0,0,0,24.74,7.9A46.24,46.24,0,0,0,272.32,130Zm46.45-43.17a17.85,17.85,0,0,0-.62,12.94c.32.94.9,2,1.9,2.08a2,2,0,0,0,1.84-1.55,7.81,7.81,0,0,0,.07-2.6,14.11,14.11,0,0,1,1.13-6.41,14.9,14.9,0,0,0,1.59-4.3c.12-1.34-.69-3.36-2.26-3.47S319.35,85.56,318.77,86.86Zm-86-78.53c3.2,1,6.5,1.27,9.75,2.13,4.13,1.11,8.43,1.82,12.63,2.78a232.14,232.14,0,0,1,25.73,7.47c.55.2,1.33.3,1.55-.24,1.4-3.43-9.51-7-11.39-7.8a121.87,121.87,0,0,0-14.84-5.19,119.91,119.91,0,0,0-13.37-3c-4.11-.68-8.53-1.56-12.62-.31a2,2,0,0,0-1.49,1.1,1.44,1.44,0,0,0,.4,1.37,3.92,3.92,0,0,0,1.26.78A22.16,22.16,0,0,0,232.81,8.33ZM271-10.83a2.06,2.06,0,0,0-.45,2.26,4,4,0,0,0,2,1.67q6.75,3.51,13.69,6.64a4.23,4.23,0,0,0,1.62.49,1.48,1.48,0,0,0,1.4-.78c.29-.68-.17-1.44-.64-2A24.49,24.49,0,0,0,280.5-9C278.54-10,273-12.7,271-10.83Zm17.57,37.14a8.3,8.3,0,0,0,1.15.82l11.8,7.2A4.09,4.09,0,0,0,303,35a1.41,1.41,0,0,0,1.43-.55c.49-.81-.28-1.79-1-2.43-2.47-2.22-5-5.05-7.88-6.74-1.59-.92-4.26-3.09-6.24-2.65a2.12,2.12,0,0,0-1.67,2.15A2.44,2.44,0,0,0,288.53,26.31ZM323,112a1.74,1.74,0,0,0,1.63.64c.62-.2.88-.93,1-1.57a9,9,0,0,0-.24-3.65,4.55,4.55,0,0,0-1.21-2.16,2.3,2.3,0,0,0-2.33-.52C319,105.85,321.72,110.7,323,112Zm3.86,29.17a2.39,2.39,0,0,0-1.78.43c-.86.79-.27,2.25.57,3.07,3.33,3.3,9,2.74,12.84,5.41.87.6,1.91,1.41,2.87,1a1.78,1.78,0,0,0,.62-2.37,4.58,4.58,0,0,0-2-1.8C335.57,144.26,332.28,141.36,326.86,141.12ZM356.24,36c.48.47,1.1,1,1.75.8.9-.22,1-1.43.92-2.35a18.94,18.94,0,0,0-10-13.82c-.56-.29-1.26-.54-1.76-.16s-.38,1.4-.06,2.09c.9,1.92,2.36,3.46,3.31,5.33A30.74,30.74,0,0,0,356.24,36Zm-25.59,3.15c-2.34-.14.52,6.25,1.31,7,.5.51,1.41.9,1.87.35a1.48,1.48,0,0,0,.1-1.32,20.75,20.75,0,0,0-2.15-5.12C331.52,39.63,331.16,39.15,330.65,39.12ZM353,88.59c.31.56.81,1.18,1.44,1.08s.9-.78,1-1.37c.64-3.18-.62-6.4-1.86-9.39a4.21,4.21,0,0,0-.89-1.52,1.46,1.46,0,0,0-1.63-.34,1.4,1.4,0,0,0-.67,1.17C350.18,81.46,351.49,85.79,353,88.59Z" transform="translate(18.96 14.69)"/></g><g class="cls-8"><path class="cls-9" d="M254,140.24c-.43,5.72-1.33,11.66-4.62,16.35-1,1.44-2.39,2.83-4.15,2.95a3,3,0,0,1-2.41-1.09,2.06,2.06,0,0,1-.41-2.22c-.81-.26-1.63.51-1.82,1.32a7.69,7.69,0,0,0,.07,2.53c.26,4-3.12,9.58-4.81,13.14-1.08,2.26-2.58,3.82-3.25,6.37-.63,2.38-.71,4.89-1.23,7.31a22.5,22.5,0,0,1-.8,2.73c-1.22,3.47-3.38,7.4-5.72,9.52-2.7,2.44-7.06,3.3-8.39,6.69-.95,2.43.12,5.22-.46,7.75-.89,3.9-5.13,5.87-8.85,7.3-1.78.68-3.73,1.34-5.52,1a4,4,0,0,1-.79-.24c-2-.82-2.88-4.08-1-5.1A29.61,29.61,0,0,1,190,218.4a2.58,2.58,0,0,1-2.34-.81,2.3,2.3,0,0,1-.22-1.47c.32-3.27,2.42-6.14,4.87-8.33s5.34-3.88,7.9-6A32.7,32.7,0,0,0,209.39,190c1.69-3.69,2.76-7.83,5.61-10.7,1.52-1.53,3.43-2.59,5-4.06,6.1-5.73,2-20.17.29-27.1-2.52-10-6.16-20-6-30.51.1-5.36,1.23-10.62,2-15.91.46-3.11-.3-5.7,1.31-8.47a16.72,16.72,0,0,1,7.94-6.5,11.18,11.18,0,0,1,1.54-.53,7.1,7.1,0,0,1,3.6-.14,7.69,7.69,0,0,1,4.57,3.85,16.93,16.93,0,0,1,2,8.9c-.09,5.79-1.81,12-1,17.81a4,4,0,0,0,.89,2.26c1.2,1.25,3.23.71,5,.6,4.53-.29,8.64,3.2,10.43,7.37S254.28,135.72,254,140.24Z" transform="translate(18.96 14.69)"/><path class="cls-9" d="M44.39,222.5a3.09,3.09,0,0,1-1.49,1.08,25.65,25.65,0,0,1-10.64,2.16,18.52,18.52,0,0,1-10-3c-4.73-3.18-7.46-8.51-10-13.61a16.53,16.53,0,0,1-1.59-4.08c-.65-3.36.84-6.87.15-10.22-.64-3.08-3.09-6-2.12-9-8.12,1.37-17.38.27-23-5.77-4.2-4.55-5.57-11.32-4.22-17.36a27.72,27.72,0,0,1,10-15.23c.59-.47,1.25-1.13,1-1.84-.16-.47-.65-.71-1.07-1-2.65-1.6-3.59-5.15-3-8.2s2.29-5.74,4-8.33c-7.53-6.38-9.31-18.21-4.86-27A25.93,25.93,0,0,1-2.15,90.59a29,29,0,0,1,2.71-1.4c3.55-1.59,8.11-3.49,11.66-.94C17.36,92,19,100.7,19.81,106.57a56.74,56.74,0,0,1-1.42,21.63c-1.59,6.27-4,12.35-5,18.76-1.41,9.6.64,19.46,4.5,28.36s9.45,16.92,15.39,24.58c4.86,6.28,10.18,12.79,11.27,20.66A3,3,0,0,1,44.39,222.5Z" transform="translate(18.96 14.69)"/><path class="cls-10" d="M32.26,225.74a18.52,18.52,0,0,1-10-3c-4.73-3.18-7.46-8.51-10-13.61a16.53,16.53,0,0,1-1.59-4.08c-.65-3.36.84-6.87.15-10.22-.64-3.08-3.09-6-2.12-9-8.12,1.37-17.38.27-23-5.77-4.2-4.55-5.57-11.32-4.22-17.36a27.72,27.72,0,0,1,10-15.23c.59-.47,1.25-1.13,1-1.84-.16-.47-.65-.71-1.07-1-2.65-1.6-3.59-5.15-3-8.2s2.29-5.74,4-8.33c-7.53-6.38-9.31-18.21-4.86-27A25.93,25.93,0,0,1-2.15,90.59c2.09,7.73-.32,17.1-5.06,23.28-.72,1-1.55,2-1.39,3.18a4.89,4.89,0,0,0,1.28,2.23C-1.17,127.09-4.94,139-.74,148c1.91,4.1,5.53,8,4.54,12.43-1.07,4.79-7.25,7.5-7.39,12.4-.14,4.69,5.1,7.33,9.24,9.53,2.75,1.47,5.52,3.44,6.55,6.38.94,2.68.28,5.63.37,8.47a15.73,15.73,0,0,0,4.24,10.23c2.06,2.19,4.71,3.73,7.08,5.57,3.55,2.74,6.61,6.31,7.9,10.58A12.48,12.48,0,0,1,32.26,225.74Z" transform="translate(18.96 14.69)"/><path class="cls-10" d="M83.17-3.39A18.85,18.85,0,0,0,70.3,2.17c-2.4,2.36-4,5.8-3.3,9.09-3.06.58-6.29,1.25-8.6,3.33s-3.19,6.1-1,8.28c-5.24,1.42-8.92,6-12.23,10.25a14.71,14.71,0,0,0-3.08,5.46c-.47,2.05.17,4.52,2,5.52s4.36.15,6.36-.82C58.38,39.51,63.67,34,70.89,29.42a38.43,38.43,0,0,1,10.33-5.11c6.35-1.75,12.87-.27,19.29-1.12,5.58-.73,9.53-1.71,15.3-.32l11.94,2.87c4.34,1,8.94,2.08,13.18.69s7.68-6.21,5.92-10.31c-1.44-3.36-5.69-5-6.64-8.57a20.23,20.23,0,0,1-.34-3,11.6,11.6,0,0,0-12.3-9.91A11.6,11.6,0,0,0,117.69,7C112.4,7,111,3.7,108.17.31s-7.45-2.83-11.55-2.55C92-1.92,87.73-3.42,83.17-3.39Z" transform="translate(18.96 14.69)"/><circle class="cls-11" cx="119.14" cy="130.76" r="113.75" transform="translate(-38.6 137.23) rotate(-45)"/><path class="cls-12" d="M228.37,147.71l1.83-22.65c.22-2.63.86-5.46.69-8.09a35.2,35.2,0,0,0-.75-4.67c0-.11-.79-2.8-.95-2.44q-11.77,27.06-24.29,53.89a60.22,60.22,0,0,0-4.14,10.62,49.67,49.67,0,0,0-1.29,10.74,117.37,117.37,0,0,0,.3,12.72c.22,2.91.67,6.07,2.75,8.11,5.07-2.34,8.69-7.05,11.15-12.06s3.94-10.44,6-15.63c2.29-5.78,5.29-11.31,6.87-17.32A77.2,77.2,0,0,0,228.37,147.71Z" transform="translate(18.96 14.69)"/><path class="cls-12" d="M102.57,245.18c9.56,2.19,19.89,2,28.86-1.92A43,43,0,0,1,128.26,229c-.15-4.2.46-8.39.6-12.59.21-6.3-.65-12.58-1.5-18.83a4.13,4.13,0,0,0-.5-1.73c-.77-1.16-2.41-1.23-3.8-1.18-8.49.33-17,.71-25.47.06-4.29-.33-8.59-.92-12.88-.63-5,.33-9.88,1.85-14.88,2.26-6.18.52-12.37-.66-18.42-2-6.57-1.49-13.26-3.29-18.72-7.26-6.33-4.6-8.39-10.86-9.23-18.33,2.09-1,4.57-.31,6.6.77s3.85,2.57,6,3.37a20.77,20.77,0,0,0,6.53.94l16.32.6a37.24,37.24,0,0,0,6.16-.12,18.41,18.41,0,0,0,8.59-3.53c1.91-1.43,4.67-3.27,5-5.83A9.08,9.08,0,0,0,78,161.1c-2-6.1-4.11-12.27-7.51-17.73-2.12-3.42-4.81-6.67-5.5-10.63-1.08-6.22,3.07-12.13,7.71-16.4,2.43-2.25,5.28-6,8.66-2.5,1.6,1.65,2.11,4,2.68,6.28a61.53,61.53,0,0,0,20.79,32.38c3.2,2.58,7.31,4.95,11.21,3.68,1.89-.61,3.66-2.06,5.62-1.69s3.06,2.31,4.27,3.88c4.74,6.16,13.2,7.79,20.88,9,4.45-11.45,16.3-17.94,24.58-27a77.29,77.29,0,0,0,10.88-16.21A163.12,163.12,0,0,0,197,84.52a34.53,34.53,0,0,0,1.19-10.73c-.62-7-4.9-13-7.92-19.29-2.84-6-5.16-13-11.1-15.9-3.08-1.49-6.63-1.56-10.05-1.55-23.53.09-47.19,2.71-69.63,9.8S55.82,65.64,39.25,82.34C33.91,87.71,29,93.68,26,100.64c-2.91,6.74-3.92,14.13-6.14,21.13-3.5,11-10.08,21.41-10.28,33-.13,7.05,2.17,13.93,5.08,20.35A105.08,105.08,0,0,0,37.89,207.6c10.26,9.78,22.78,15.51,33.86,24C80.15,238,92.37,242.84,102.57,245.18Z" transform="translate(18.96 14.69)"/><path class="cls-13" d="M211.13,83.87c16.22,31,19.43,75.31-11.85,95-12.52,7.87-28.44,8.82-42.87,5.59a82.29,82.29,0,0,1-63.85-89c.91-8.55,3.24-17.09,8-24.27C107.27,61,118.48,54.28,130.3,51.23c22.48-5.8,50.7-4.46,67.57,13.58A87.4,87.4,0,0,1,211.13,83.87Z" transform="translate(18.96 14.69)"/><path class="cls-14" d="M230.63,108.51a110.13,110.13,0,0,1-4.29,19.75c-3.92,4.66-4.48,10.76-6.36,16.35a44.51,44.51,0,0,1-8.74,18.16c-1.74,3.29-5.13,5.4-5.63,9.36-3,7.3,1,14.56.33,22-.25,3.63,1.7,8.74-1,11.57,1,.26,2.37-.9,3.32-1.4,1.29-1.49,3.23-1.94,4.72-3.17,5.16-3.65,7.31-9.89,11.1-14.69,2.26-2.64,5.82-3,8.7-4.68,2.37-.95,4.44-2.84,6.48-4.16-1.28-6-2.41-12.27-4.18-18.13,1.67-3.36,2.47-7.45,5.32-10.1.24-.32.06-.76.1-1.11.91-8.1-2.37-15.29-5.56-22.44C233.46,120.14,232.13,114,230.63,108.51Zm-129.57-8c-4.93-1.08-11.35-.49-13.22,5a10.66,10.66,0,0,0-.58,1.88c-1.53,7.17,4.83,13.66,6.45,20.47,2.75,7.14,5.21,15.84,12.93,19,2.38,1.54,5.91,2.58,8.31.56a16,16,0,0,0,.28-7,14.72,14.72,0,0,1-1.75-5.22,21.63,21.63,0,0,1-.21-5.51.1.1,0,0,1,0,0c.36-5.2,1.69-10.43-.85-15.46C111.91,107.72,106.52,103.21,101.06,100.49Zm81.68-43.88c-.9-2.64.38-5.51.13-8.29a15.1,15.1,0,0,0-1.41-4.5l-4-9.29,1.45-.06a80,80,0,0,0-6.09-6.13,33.53,33.53,0,0,0-3.95-3.07c-2.88-1.89-6.46-2.43-9.19-4.62-3.52-2.82-7-5.74-10.56-8.47a.43.43,0,0,0-.28-.13.37.37,0,0,0-.26.15,13.49,13.49,0,0,0-2.48,3c-3.09-1.46-4.91-4.37-7.49-6.51C137.79,8,130.19.42,130.12.45c-3.32,1.74-6.31,6.3-10.29,5.31a13.49,13.49,0,0,1-5-3c-.76-.6-3.68-2.16-4-2.92A6.84,6.84,0,0,0,106.54-4c-2.49-1.69-5.15-3.34-7.63-5A73.76,73.76,0,0,1,85.16,7.19c-1.9,1-4.09,1.84-5.43,3.6-.52.18-1.1-.33-1.5-.62-1-1-2.84-1.16-3.48-2.54C69.59,10.91,67.16,17.21,63.89,22,58,29.56,48.7,33.8,42.46,41.25c-5.84,6.58-11.67,15.09-20.2,17.88-1.33,3.3-2.34,7.36-6.25,8.41-3.43,3.84-7.78,6.28-12.14,8.86C6.11,77.86,7.22,92.09,6,93.94c-.61,2-2,3.83-2.76,5.66a29,29,0,0,1,1.1,9.65A89.16,89.16,0,0,0-2,119.76c2.87,5.82,3.44,12.82,5.55,19-1.27,4.13,2,8.22,1.5,12.7,3.33,6.44-.78,11.51,0,17.76,3.82,9.42,7.81,18.91,14.82,26.11.6,2.76-3,9-.07,10.71,2.52,1.75,4.35,4.49,7.39,5.38,1.66,1.11,2.38,3.26,4.31,4.17,2.75,1,3.27,3.79,3.1,6.39,0,.56.16,2-.58,2.29,5,3.42,8.19,1.19,7.74,9,.1,1,0,2,1,2.34,2.82.57,5.52.17,8.29-.16,4.52.8,8.42,8.13,11.76,11.47,4.52-1.39,9.75-2.41,14.41-1.23.71-.29.73.49,1,.85a13.12,13.12,0,0,0,3.45,3.28,107.17,107.17,0,0,0,13.82-3.94c.68-.25,2.81-1.57,3.51-.86.62,2.48,4.27,1.87,6.21,2,6.38,1,13.43,1.39,19.41-1.23,1.15-.54,2.49-1.34,3.73-.79a8.21,8.21,0,0,1,2.49-1.55c-18.3-3.7-5.3-19.75-9.3-32.09-1.14-2.37,1.18-8.53-3.3-7.21-7.62.82-15.17,3.62-22.84,2.53-3.83-1.51-6-6.75-10.44-7.2-19.87,3.39-24.29,9.22-44.35-1.26-16.5-3.22-25.64-21.49-27-37,0,0,0-.05,0-.07,2.77-2.69,6.78,1.31,9.22,2.65,13.09,6.43,37.56,3.18,50.78-2.28a25.49,25.49,0,0,1-3-5.77,64,64,0,0,0-2.69-6.33A27.26,27.26,0,0,0,64.82,147c-3.5-2.5-7.4-4.93-8-9.54.18-7.17,1.74-14.35.16-21.5,3.13-5.32,9.45-8.82,14.84-11.46,10,9.11,5.59-5.68,16.93-14.6,15.37-6.09,25.79,13.34,32,24.63,2.69,11.22-5.21,19.55,3.1,30,2,4.9,5.81,8.38,8.51,12.81,1.11,1.92,3.83,1.85,5.67,1.13,12.6-4.59,20.56-16.77,29.79-25.93,6.1-7.25,8.58-16.38,12-25,2.1-5.28,7.08-8.88,10.19-13.66l.27-.4A16,16,0,0,0,192.14,90a15.84,15.84,0,0,0,.71-4.7c.13-3.72-.81-7.65.07-11.23,1.09-4.5-6.16-11.31-8.64-14.77A11,11,0,0,1,182.74,56.61Z" transform="translate(18.96 14.69)"/><path class="cls-7" d="M77.86,11.85a16.55,16.55,0,0,1-3.32-1.29c-.32-.17-.84-.26-.92.09a1.2,1.2,0,0,0,0,.19c.19,1.73.92,4.74,2.72,5.44,1.45.56,2.52,1.8,3.85,2.6a7.1,7.1,0,0,0,4.15.95,13.84,13.84,0,0,0,3.86-1.1l4.25-1.66c1.79-.71,3.69-1.49,4.77-3.08-2.55-1.77-6.49-3.43-9.59-2.67-1.21.3-2.3.8-3.45,1.13a8.86,8.86,0,0,1-3.73-.09c-.57-.09-1.13-.18-1.69-.3Q78.31,12,77.86,11.85Z" transform="translate(18.96 14.69)"/><path class="cls-7" d="M104.14.14c1,.87,2.24,1.55,3.29,2.42,1.27,1.06,2.31,2.38,3.53,3.51a15,15,0,0,0,3.67,2.48,5,5,0,0,0,3.43.58A6,6,0,0,0,120,8a8.94,8.94,0,0,0-3.82-3,37.7,37.7,0,0,1-4.43-2.15,4.9,4.9,0,0,1-1.51-1.39c-.31-.46-.5-1-.82-1.44a5.9,5.9,0,0,0-1.33-1.26l-2.36-1.83a26.84,26.84,0,0,0-6-3.93c.77,1.06.9,2.38,1.5,3.55A11.75,11.75,0,0,0,104.14.14Z" transform="translate(18.96 14.69)"/><path class="cls-7" d="M82.9,25.89a13.75,13.75,0,0,1-2.73-2.71c-.4-.5-1-.85-1.36-1.34-.2-.24-.6-1.32-.78-1.42,3.12,1.6,6.38,1.65,9.78,2.2A3.65,3.65,0,0,1,89,23a1.32,1.32,0,0,1,.7,1,2,2,0,0,1-.42,1.07c-.47.71-1,1.4-1.48,2.07a1.28,1.28,0,0,1-.51.47,1.22,1.22,0,0,1-.63,0A8.51,8.51,0,0,1,82.9,25.89Z" transform="translate(18.96 14.69)"/><path class="cls-7" d="M133.76,10.52a1.32,1.32,0,0,1,.21.85,5.69,5.69,0,0,1-.26.56,1.63,1.63,0,0,0,.69,1.64c1.72,1.55,4.1,2.23,5.72,3.87a1.29,1.29,0,0,0,.7.46,1.15,1.15,0,0,0,.68-.22l3.32-1.91a78.08,78.08,0,0,1-7.12-5.84c-2.62-2.5-4.89-5.35-7.67-7.67a11.74,11.74,0,0,1,.69,2c.23.52.46,1,.71,1.55C132.2,7.37,133,8.94,133.76,10.52Z" transform="translate(18.96 14.69)"/><path class="cls-7" d="M157.76,22.65c.88.62,1.65,1.4,2.58,2a10.48,10.48,0,0,0,2.2,1c2.75.92,5.75,1.5,7.91,3.43.74.66,1.34,1.45,2.05,2.13A10.12,10.12,0,0,0,175.24,33a13.77,13.77,0,0,0-2.85-3.25,21.52,21.52,0,0,0-6.09-4.4c-1-.4-2-.66-3-1A14,14,0,0,1,160.54,23a34,34,0,0,1-3.88-3,21.31,21.31,0,0,1-3.14-2.87,13.3,13.3,0,0,0-3.59-3.31C151.33,17.94,154.34,20.24,157.76,22.65Z" transform="translate(18.96 14.69)"/><path class="cls-7" d="M185.85,71.4a9.14,9.14,0,0,0-1.17-3c-3.11-5.87-6.77-12.22-13-14.43l6.2-.53c-1.35-3.81.31-8.28-1.38-12a12.46,12.46,0,0,0-3.4-4c-3.14-3.14-7.45-5.54-11.37-7.54-7.48-3.82-15.6-6.2-23.76-8.09a102.11,102.11,0,0,0-10.63-2.35c-1.34-1.31-2.71-2.59-4.13-3.82a3.44,3.44,0,0,0-.9-.62,4.16,4.16,0,0,0-1.92,0,11.49,11.49,0,0,1-2.46-.35,21.29,21.29,0,0,0-5.33-.63l2.12,4a.71.71,0,0,1,.09.28c0,.23-.25.37-.46.46a13.94,13.94,0,0,0-6.95,6.86,17.64,17.64,0,0,0,6,3.47,4.57,4.57,0,0,0,2.58,1.6c1.61.37,3.33.2,4.89.76a9.36,9.36,0,0,0,1.37,6.08,16.42,16.42,0,0,1-2.94.82c-1.35.46-2.59,1.28-4,1.76a24.13,24.13,0,0,1-8.67,1.38,15.74,15.74,0,0,0-3.07.06,10.81,10.81,0,0,0-2.15.7c-4.73,2-9.29,4.1-14.19,5.54L69.61,53a25.14,25.14,0,0,0,1.2,12.28,121.42,121.42,0,0,1,16.64-5.5,49.34,49.34,0,0,0-10.22,8.68l2.56,4.65a12.48,12.48,0,0,1,5.45-1.39,12.88,12.88,0,0,0-5.13,8.58,37.78,37.78,0,0,0,8.32-2.12,1.83,1.83,0,0,0-.29,2.43,43,43,0,0,1,26.75,10.91,132.23,132.23,0,0,1,13.35-10.35c-1.89,3.89-3.61,7.88-5.13,11.94a3.18,3.18,0,0,0-.22,2.46c.43.91,1.58,1.21,2.25,2,1.14,1.31.42,3.34-.34,4.9a119,119,0,0,0,11.46,9.06,21.78,21.78,0,0,1,8.43-7.9,178.25,178.25,0,0,0-4,20.24q5.44.42,10.91.35a1.89,1.89,0,0,0,1.28-.33,1.91,1.91,0,0,0,.46-1.12q.75-4.15,1.48-8.31l2.29,4.07a45.11,45.11,0,0,0,11.84-9.4,5.26,5.26,0,0,0,1.31-2,5.78,5.78,0,0,0,0-2.55q-.92-5.33-1.84-10.65c1,2.29,1.95,4.59,2.92,6.88,0-.09,3.15-4.9,3.4-5.59.81-2.25,1.24-3.62.72-6l-2-9a47.51,47.51,0,0,1,5.81,7.51c3.65-3.06,5-8,6.16-12.61A9.26,9.26,0,0,0,185.85,71.4Z" transform="translate(18.96 14.69)"/><path class="cls-7" d="M86.79,36.52l-.17.27a2.3,2.3,0,0,1-.86.94,2.39,2.39,0,0,1-1.45,0,14.08,14.08,0,0,0-4.93-.11l4.5,2.08a10.08,10.08,0,0,0-3.62,4.39l-4.79-1.57a4.8,4.8,0,0,1-2.38-1.33c-1.81,2.15-3.23,2.42-5.57,3.76S62.74,48.15,60,49.1a34.51,34.51,0,0,0,2.06-5.83,13.11,13.11,0,0,0-3.49-.8c4.45-5.26,9.33-10.07,14.18-15A97.8,97.8,0,0,1,90.55,33C89.52,32.54,87.5,35.44,86.79,36.52Z" transform="translate(18.96 14.69)"/><path class="cls-7" d="M91.38,104.59c1,1.38,1.8,2.82,2.72,4.23s2.31,2.67,3.09,4.37a16.82,16.82,0,0,1,5-3q-1.08,5.09-2.15,10.18a2.15,2.15,0,0,0-.05.94,2.41,2.41,0,0,0,.69,1,20.59,20.59,0,0,1,3.27,4.94,4.32,4.32,0,0,1,1.93-2.14,25.4,25.4,0,0,0,.84,6,1.63,1.63,0,0,1,2.22.14,4.68,4.68,0,0,1,1.11,2.18,20,20,0,0,0,1.21-11.32c-1.06-7-3.05-14.76-9.74-18.35C98.07,101.85,95,103.63,91.38,104.59Z" transform="translate(18.96 14.69)"/><path class="cls-7" d="M236.82,139.68a1.14,1.14,0,0,1-.18,1.6c-1.69,1.81-3.57,3.72-6,4.12-.72-2.11-1.44-4.21-2.17-6.32-.38-1.1-1.18-2.46-2.31-2.17.16,0,1.59-7.64,1.86-8.44.42-1.21,1.53-5.54,3.71-4.68,1.33.52,1.65,5.92,2,7.32A59.52,59.52,0,0,0,236.82,139.68Z" transform="translate(18.96 14.69)"/><path class="cls-7" d="M218.4,156.77a11.73,11.73,0,0,1-1.32,2.14,19.06,19.06,0,0,0-1.92,2.32,4.07,4.07,0,0,0,3.23,6.07q1.53-2.72,3.07-5.43a5.33,5.33,0,0,0,.53-1.17,5.4,5.4,0,0,0,.1-1.45,46.72,46.72,0,0,1,.49-7.84c.47-3.17,2-6.15,2.29-9.33a9.6,9.6,0,0,0-3.15,6.29C221.33,151.25,219.73,154.21,218.4,156.77Z" transform="translate(18.96 14.69)"/><path class="cls-7" d="M38.3,78.69c1.32,1.91,3.17,4,5.45,3.64l-3.12,5.14c2.6,1.66,6.26,1.62,8.25,4,1.38,1.66,1.54,4.07,2.86,5.77,1.59,2.07,4.44,2.61,7,3l-5-6.54a7.28,7.28,0,0,1-1.79-3.51c-.18-1.68.77-3.59-.26-4.93s-2.87-1-4-2.06L54.7,68.81,50.8,71c-2.1,0-4-.79-6.18-.49C50.44,73.28,40.71,77.67,38.3,78.69Z" transform="translate(18.96 14.69)"/><path class="cls-15" d="M223.9,112.91c1.92-8.78-1.7-17.83-6.36-25.51a13.56,13.56,0,0,0-3.63-4.35c-4.29-3-10.25-.09-11.39,4.7-1,4.31.59,11.1,1.95,15.34C206.4,109.1,221.13,125.54,223.9,112.91Z" transform="translate(18.96 14.69)"/><path class="cls-16" d="M201.6,151.76a4.4,4.4,0,0,0,5.32-.31,6.54,6.54,0,0,0,2.15-5.13,13.36,13.36,0,0,0-1.48-5.51,28.8,28.8,0,0,0-4.21-6.53,4.46,4.46,0,0,0-2.3-1.67,3.17,3.17,0,0,0-3.26,1.88C196,138.14,198.31,149.22,201.6,151.76Z" transform="translate(18.96 14.69)"/><path class="cls-17" d="M137.5,197.82c-18.1,4.5-5.91,27.78,7.45,29.42,6.78.84,14.13-3.66,15.54-10.34a14.58,14.58,0,0,0-3.7-12.45,22.14,22.14,0,0,0-11.6-6.43A16.67,16.67,0,0,0,137.5,197.82Z" transform="translate(18.96 14.69)"/><path class="cls-18" d="M43.49,196.07a5.5,5.5,0,0,0,3,.8c1.64-.16,2.82-1.6,3.81-2.93a4.71,4.71,0,0,0,1-2.05,4.42,4.42,0,0,0-.48-2.27,35.19,35.19,0,0,0-11.51-14.49c-2.86-2.1-11.84-8.11-14.64-3.45-2,3.34,2.94,9.87,4.74,12.36A39,39,0,0,0,43.49,196.07Z" transform="translate(18.96 14.69)"/><path class="cls-19" d="M43.22,47.5c3.69-3.67,7.09-7.63,11-11.12,5.68-5.15,12.25-9.2,18.77-13.22a5.17,5.17,0,0,1,2.25-.93q-2.1-4.61-3.93-9.33a25.18,25.18,0,0,0-4.57,7.75c-1,2.8-3.14,4.69-5.46,6.62-1.62,1.35-3.39,2.51-5.06,3.8a61.27,61.27,0,0,0-6.87,6.41C47.25,39.66,45,41.59,43,43.75c-1.88,1.94-3.81,3.78-5.68,5.69-1,1-1.92,1.93-2.91,2.87l-.4.38c-.58.55-2.45,2.88-3.23,2.92C35.8,55.34,39.84,50.88,43.22,47.5Z" transform="translate(18.96 14.69)"/><path class="cls-19" d="M22.9,66.07a4.81,4.81,0,0,0,.44-.57,3.11,3.11,0,0,1,1.86-1.17l-2.28-1.74a1.74,1.74,0,0,1-.71-1,7.4,7.4,0,0,1-.53,2.18A8.81,8.81,0,0,1,20,66.14c-.63.68-1.27,1.35-1.94,2a14.75,14.75,0,0,0,4.2-1.67A3,3,0,0,0,22.9,66.07Z" transform="translate(18.96 14.69)"/><path class="cls-19" d="M122.82,12.47a36.67,36.67,0,0,1,3.82,2.65c.88.66,1.34,1.89,2.27,2.36a6,6,0,0,0,2,.45,31.92,31.92,0,0,1,7.46,1.83,17.6,17.6,0,0,1-8.21-6.93,5.78,5.78,0,0,1,2.28-1.74c-.71.33-2.47-2.77-2.67-3.26s-.6-4-.73-3.92l-2.36,1.35c-1.32.76-7.55,3.9-6.72,5.85C120.26,11.8,122.21,12.13,122.82,12.47Z" transform="translate(18.96 14.69)"/><path class="cls-19" d="M154.75,21.76A39.69,39.69,0,0,1,148.58,14c-1.33,1.67-2.43,3.42-3.69,5.1,2.15.62,4.35,1,6.46,1.86A7,7,0,0,0,154.75,21.76Z" transform="translate(18.96 14.69)"/><path class="cls-19" d="M7.76,93.33c1.16-.37,1.79-1.58,2.37-2.66,2.75-5.14,6.91-9.7,8-15.42-.15.78-4.24,1-4.86,1.1-2.55.36-4.92,1-7.48.23.34,2.84,1.53,5.35,1.85,8.19C7.76,85.66,8.59,93.07,7.76,93.33Z" transform="translate(18.96 14.69)"/><path class="cls-19" d="M104.55,14.55a29.21,29.21,0,0,0-11.25,9.7,24.41,24.41,0,0,1,5.19,2.52,5,5,0,0,0-2.1,2.52,54.85,54.85,0,0,0,18.45,5.34,41.14,41.14,0,0,1-12.21-7.28,49.47,49.47,0,0,1,8.44-10.46,19.64,19.64,0,0,1-6.38-5.18c.73.9,4,.14,5,.18a39.46,39.46,0,0,1,5.72.85l-7-5.11c-1.09-.79-2.18-1.59-3.21-2.46A32.38,32.38,0,0,1,100.5.35c-.67-.83-1.29-1.7-1.88-2.59-.82-1.23-.59-1.54-1.75-.87C95.08-2.09,93.38.74,92,2.28c-.67.75-3.88,5.28-4.75,5.25a21.91,21.91,0,0,1,10,2.91C99.63,11.81,102.66,12.54,104.55,14.55Z" transform="translate(18.96 14.69)"/><path class="cls-19" d="M173.28,110.85c-2.81,4.58-4.91,9.56-7.49,14.26a78.91,78.91,0,0,1-26.68,28.43,5.46,5.46,0,0,1-2.66,1.07,5.09,5.09,0,0,1-3-1.23,24,24,0,0,1-9.29-14.26c-1.56-7.36.41-15.08-.86-22.5-1.86-10.79-10.17-19.15-18.07-26.74a14.46,14.46,0,0,0-3.13-2.5,10.8,10.8,0,0,0-6.21-.85A21.85,21.85,0,0,0,80,96.43c-1.34,2.14-2.86,4.86-5.39,4.79-.83,0-1.62-.36-2.44-.32a5.28,5.28,0,0,0-2.2.83l-8.37,4.66c-2.41,1.35-5,2.82-6.28,5.24-2,3.66-.65,8.13-.41,12.3.21,3.56-.44,7.13-.15,10.69.47,5.8,4.73,10.45,10.06,12.34-3.5-2.5-7.4-4.93-8-9.54.18-7.17,1.74-14.35.16-21.5,3.13-5.32,9.45-8.82,14.84-11.46,10,9.11,5.59-5.68,16.93-14.6,15.37-6.09,25.79,13.34,32,24.63,2.69,11.22-5.21,19.55,3.1,30,2,4.9,5.81,8.38,8.51,12.81,1.11,1.92,3.83,1.85,5.67,1.13,12.6-4.59,20.56-16.77,29.79-25.93,6.1-7.25,8.58-16.38,12-25,2.1-5.28,7.08-8.88,10.19-13.66l.27-.4A54.14,54.14,0,0,0,173.28,110.85Z" transform="translate(18.96 14.69)"/><path class="cls-19" d="M234.33,177.24a27.67,27.67,0,0,1-6.1-10.83,40.9,40.9,0,0,0,4.31-4.61,3.24,3.24,0,0,0,.93-2c0-1.47-.87-2-.15-3.47a21.23,21.23,0,0,1,2.33-3.05c1.42-1.89,3.21-3.56,3.32-6.06-1.22,1.13-2.89,1.25-4.36,2-2,1-3.9,2.08-5.86,3.11a28.71,28.71,0,0,1-2.5-6c-1.38,7.08.13,14.48-1.16,21.58a38.66,38.66,0,0,1-9.93,6.14c-.76-2.8-1.53-5.6-2.29-8.4a16.85,16.85,0,0,0-3.54,7.56,33.87,33.87,0,0,0-.39,5.87l-.18,23.53c3.32-1.64,5.64-4.75,7.56-7.92s3.6-6.53,6.18-9.18c3.6-3.71,8.6-5.66,13.43-7.5C235.35,178.19,234.75,177.7,234.33,177.24Z" transform="translate(18.96 14.69)"/><path class="cls-19" d="M111.92,135.13c-.49,2.38-.2,4.42-1.71,6.56a2.07,2.07,0,0,1-.68.67,2.3,2.3,0,0,1-1.62.09c-7.73-1.67-10.22-9.55-11.45-16.41a17.54,17.54,0,0,0-1.15-4.49A19,19,0,0,0,93,118.24a30.93,30.93,0,0,1-4.14-7c-.33-.8-.79-3.22-1.56-3.86-1.53,7.17,4.83,13.66,6.45,20.47,2.75,7.14,5.21,15.84,12.93,19,2.38,1.54,5.91,2.58,8.31.56a16,16,0,0,0,.28-7,14.72,14.72,0,0,1-1.75-5.22,21.63,21.63,0,0,1-.21-5.51C112.87,131.5,112.31,133.28,111.92,135.13Z" transform="translate(18.96 14.69)"/><path class="cls-19" d="M119.1,235.64c-.71-3.64,0-7.38.42-11.08a66.15,66.15,0,0,0,.1-13.64,2.52,2.52,0,0,0-.6-1.68c-.68-.61-1.74-.34-2.61-.07-4.51,1.38-9.28,1.58-14,1.76-2.54.09-5.26.13-7.37-1.27s-4.8-1.38-7.29-1.76a59.21,59.21,0,0,0-7.26-.78,29.28,29.28,0,0,0-8,.95c-2.31.61-4.57,1.51-6.93,2a36.9,36.9,0,0,1-8.34.27c-3.5-.15-7.39-.33-10.4-2.33-1.58-1.05-3-2.29-4.62-3.3-1.82-1.12-3.63-2.24-5.46-3.34-3.41-2.06-6.94-4.26-9-7.69-1.34-2.25-3.82-3.34-5.32-5.49a37.77,37.77,0,0,1-3.08-5.66c-3.05-6.5-6.1-13.27-6.19-20.45,0-.32.05-.72.36-.82a0,0,0,0,1,0,0s0-.05,0-.07c2.77-2.69,6.78,1.31,9.22,2.65,13.09,6.43,37.56,3.18,50.78-2.28a25.49,25.49,0,0,1-3-5.77c0,1,.1,2,.15,3a.58.58,0,0,1,0,.32.24.24,0,0,1-.09.11c-.41.21-1.58-1.28-2-1.43a9.48,9.48,0,0,0-6.07,0,34.63,34.63,0,0,0-4.93,2.59c-4.9,2.66-10.64,3.36-16.22,3.27-5.21-.09-10.51-.85-15.19-3.14-2.88-1.4-5.46-3.33-8.28-4.86a3.67,3.67,0,0,0-1.56-.53,5.92,5.92,0,0,0-2.06.63c-1.12.43-2.28,1.11-3.25.41a4.17,4.17,0,0,1-1.3-2.58c-1.08-4.66-2.16-9.34-3.23-14a10.11,10.11,0,0,1-.34-2,15.79,15.79,0,0,1,.41-3.12,43.59,43.59,0,0,0,.37-6.05c0-.81.06-1.63.11-2.45l.31.22c1.2.94,1.95,2.31,3.13,3.24,1.65-2.13,2.8-4.94,4.11-7.3.14-.26.37-.56.66-.49s.35.37.41.63a6.6,6.6,0,0,0,2.73,3.9,1.7,1.7,0,0,0,.87.33,1.57,1.57,0,0,0,.89-.37c4.11-3,3.16-9.82,6.84-13.31-.28,1,1.1,1.89,2.13,1.58a4.6,4.6,0,0,0,2.26-2.2L43.28,93.24l-9.3,11a3.78,3.78,0,0,1-1.72,1.36,3.8,3.8,0,0,1-1.86-.11l-4.89-1.13A20.41,20.41,0,0,0,23,113.87a2.16,2.16,0,0,1-.34,1.44,2.16,2.16,0,0,1-.87.5l-5.07,1.86a1.49,1.49,0,0,1-1,.13c-.25-.08-.45-.29-.71-.33s-.65.23-.9.49c-1.16,1.22-2.33,2.44-3.49,3.67l-2.82-3.26c.2-1.34.42-2.67.68-4a31.18,31.18,0,0,1-9.61,5.54,69.31,69.31,0,0,1,5.37,20.83,64.79,64.79,0,0,0,1,7.38C6,151.66,7.62,155,8.68,158.4a9.06,9.06,0,0,1,.51,3.29c-.16,1.83-1.27,3.41-2.17,5A5.1,5.1,0,0,0,6.26,169a5.54,5.54,0,0,0,.45,2,78.8,78.8,0,0,0,14.07,23.63c.94,1.09.67,2.54.22,3.91s-1.13,2.75-.88,4.16,1.47,2.63,2.62,3.63a50.93,50.93,0,0,0,5,4,8.68,8.68,0,0,1,1.69,1.31c.44.5.74,1.1,1.17,1.62.88,1,2.23,1.53,3.3,2.37a6.36,6.36,0,0,1,2.35,4.72c0,.55,0,1.1,0,1.65a3.9,3.9,0,0,0,1.59,2.73c.84.6,1.88.84,2.76,1.38,2.75,1.7,2.72,4.75,2.79,7.59a3.94,3.94,0,0,1,1.57-.22l6.61-.07a3.43,3.43,0,0,1,1.8.33,14,14,0,0,1,3.77,4.07,44.53,44.53,0,0,0,5.91,6.73,53.25,53.25,0,0,0,7.35-.77,13.91,13.91,0,0,1,3-.34,13.18,13.18,0,0,1,2.24.34c1.46.33,4,.35,4.77,1.94.32.72.55,1.61,1.27,1.9a2.37,2.37,0,0,0,1.53-.06c1.69-.46,3.36-.92,5-1.36a42.46,42.46,0,0,0,5.53-1.79c2-.85,4.09-2.05,6.15-1.4.48,1.27,1.68,1.47,3,1.7a65.61,65.61,0,0,0,17.48.58,15.35,15.35,0,0,0,2.6-.44,8.36,8.36,0,0,0,3.14-1.7C122.52,242.6,119.82,239.29,119.1,235.64Zm-40.71-1.56a4.2,4.2,0,0,1-2.26.51c-2.32-.33-3.16-4-5.51-4a4.14,4.14,0,0,0-2.56,1.24l-3.56,2.9q-2.27-5.38-4.55-10.77a1.31,1.31,0,0,0-.38-.59,1.42,1.42,0,0,0-.91-.15c-.91.06-5,.63-5.29-.18-.93-2.51-.32-6.28-2.7-8.31a56.44,56.44,0,0,0,37.12,13.35A36.86,36.86,0,0,1,78.39,234.08Z" transform="translate(18.96 14.69)"/><path class="cls-19" d="M5.37,109a22.57,22.57,0,0,0,2.12-5.25c.36-1.26,1.72-3.51,1.59-4.79-.1-.94,0-.41-.79-.35-.56,0-1.15.26-1.74.31-1,.09-1.58-.11-1.73,1-.18,1.32.68,3.17.72,4.57C5.57,105.51,5.91,108,5.37,109Z" transform="translate(18.96 14.69)"/><path class="cls-10" d="M210.47,70.76c-4.77,2.23-10.42,1.87-15.4.15a2.76,2.76,0,0,0-2.29-.13c-2,1.19-4.23,6.06-3.15,8.2A9,9,0,0,0,191.39,81a10.67,10.67,0,0,1-.91,15c-1.89,1.56-4.76,2.35-6.79,1-3.68,4.77-8,9.91-13.71,11.23a12.24,12.24,0,0,1-1.83.29c-2.83.23-6-.84-7.23-3.42-1.76-3.78.94-10.54,3.4-13.5a7.8,7.8,0,0,1,6.06-3.07c1.89.08,3.85,1.08,5.59.32a4.2,4.2,0,0,0,2.21-3.26,16.64,16.64,0,0,0-.16-4.11,10.45,10.45,0,0,1,.32-4.66c1-2.75,3.9-3.45,6.19-4.73,2.1-1.17,4-3.24,3.9-5.64a10.93,10.93,0,0,1-.09-1.89,4.36,4.36,0,0,1,.72-1.58c1.87-2.92,4.31-5.55,5.29-8.87s-.24-7.66-3.57-8.58a13.67,13.67,0,0,0-2.57-.29c-11-.79-17.59-14.1-14.12-24a4.64,4.64,0,0,0,.43-3c-.61-1.75-3-1.81-4.88-1.7a31.1,31.1,0,0,1-10.34-1.15,11.65,11.65,0,0,1-5.21-2.71,5.31,5.31,0,0,1-1.5-5.41c.8-2.2,3.22-3.4,6-3.79,4.16-.57,9.16.65,10.95,3.09,1.06,1.46,1.71,3.23,3.09,4.37,2.82,2.31,7,.94,10.5.1,5.23-1.24,11.55-.24,16.75.95,2.44.56,5,1.43,6.64,3.3a9.9,9.9,0,0,1,2.1,7.49,29.72,29.72,0,0,1-2.16,7.68,10.81,10.81,0,0,1,8.57,11c-.21,3.06-2.14,6.26-.57,9.16.7,1.3,1.68,2.42,2.28,3.75C219.33,60.17,215.91,68.21,210.47,70.76Z" transform="translate(18.96 14.69)"/><path class="cls-9" d="M211.23,65.69a14.34,14.34,0,0,1-4.48,3.85c-4.36,2-8.07-.85-12.34-1.19a7.64,7.64,0,0,0-6.07,1.93c-2.82,2.87-3.89,9.16-1.3,12.41.83,1.06,2,1.89,2.57,3.11,1.27,2.73-1.1,5.89-3.85,7.13s-5.88,1.39-8.6,2.69-4.9,3.79-6.9,6.17a3.47,3.47,0,0,0-.94,1.7,4.94,4.94,0,0,0,.53,2.09,5.11,5.11,0,0,1,.13,2.63,12.24,12.24,0,0,1-1.83.29c-2.83.23-6-.84-7.23-3.42-1.76-3.78.94-10.54,3.4-13.5a7.8,7.8,0,0,1,6.06-3.07c1.89.08,3.85,1.08,5.59.32a4.2,4.2,0,0,0,2.21-3.26,16.64,16.64,0,0,0-.16-4.11,10.45,10.45,0,0,1,.32-4.66c1-2.75,3.9-3.45,6.19-4.73,2.1-1.17,4-3.24,3.9-5.64a10.93,10.93,0,0,1-.09-1.89,4.36,4.36,0,0,1,.72-1.58c1.87-2.92,4.31-5.55,5.29-8.87s-.24-7.66-3.57-8.58a13.67,13.67,0,0,0-2.57-.29c-11-.79-17.59-14.1-14.12-24a4.64,4.64,0,0,0,.43-3c-.61-1.75-3-1.81-4.88-1.7a31.1,31.1,0,0,1-10.34-1.15,11.65,11.65,0,0,1-5.21-2.71,5.31,5.31,0,0,1-1.5-5.41c.8-2.2,3.22-3.4,6-3.79.1.24.2.49.28.75a11.6,11.6,0,0,0,11,7.74,3.91,3.91,0,0,1,2.7.45,6,6,0,0,1,1.1,2c.82,1.56,2.69,2.36,3.5,3.93,1.05,2,0,4.44-.49,6.67-2.37,10.83,10.46,21.74,20.64,16.78-2.74-2.4-5.52-4.86-7.29-8s-2.36-7.24-.56-10.4a28.56,28.56,0,0,0,16.42,16.75,7.89,7.89,0,0,0-1.44,6.74,23.17,23.17,0,0,0,2.78,6.55A5.32,5.32,0,0,0,204,57.51c-.31,2.09.72,3.64,2.11,5.06C206.55,63.07,210.48,66.54,211.23,65.69Z" transform="translate(18.96 14.69)"/><path class="cls-10" d="M55.27,5.42C53.09,7,50.35,8.27,49.61,10.84a19.05,19.05,0,0,0-.3,3.47c-.36,3.74-3.16,6.8-6.28,8.88s-6.67,3.48-9.74,5.62a2,2,0,0,0-.79.84,2.2,2.2,0,0,0,.33,1.7.47.47,0,0,0,.05.1c1.65,3.44,1,7.64-.71,11C29.88,47,26.46,51.73,21,51.05a8.77,8.77,0,0,1-5.87-3.32,10.5,10.5,0,0,1-2-8.09c.74-4.58,4-8.41,7.73-11.15l-.66-.28a11.55,11.55,0,0,1-3.89-2.94A8.84,8.84,0,0,1,14,18.78a12.26,12.26,0,0,1,7.26-9.7c2.19-1,4.6-1.36,6.85-2.17,6.13-2.19,9-5.48,16-3a1,1,0,0,1,0-.15,7,7,0,0,1,.43-1.43c1.71-4.1,6.89-6.62,11.12-5a5.27,5.27,0,0,1,1.6.9,3.58,3.58,0,0,1,.49.53C59.37.84,57.46,3.87,55.27,5.42Z" transform="translate(18.96 14.69)"/><path class="cls-9" d="M55.27,5.42C53.09,7,50.35,8.27,49.61,10.84a19.05,19.05,0,0,0-.3,3.47c-.36,3.74-3.16,6.8-6.28,8.88s-6.67,3.48-9.74,5.62a2,2,0,0,0-.79.84,2.2,2.2,0,0,0,.33,1.7.47.47,0,0,0,.05.1c1.65,3.44,1,7.64-.71,11C29.88,47,26.46,51.73,21,51.05a8.77,8.77,0,0,1-5.87-3.32,6.62,6.62,0,0,0,1,.13A12.45,12.45,0,0,0,25.5,44.3a12.53,12.53,0,0,0,1.24-15.37,2.58,2.58,0,0,0-.71-.76,2.78,2.78,0,0,0-1.59-.24c-1.44.08-2.87.26-4.3.28a11.55,11.55,0,0,1-3.89-2.94c4.4.08,8.83-.23,12.64-2.33,4.35-2.38,7.22-6.72,9.91-10.9.88,1.39,3.06,1.33,4.36.32A9.24,9.24,0,0,0,45.68,8.2,8.28,8.28,0,0,1,48.3,4.13a6,6,0,0,1-4.15-.38,7,7,0,0,1,.43-1.43l3.8-.06c2,0,4.14-.1,5.91-1.1a9.44,9.44,0,0,0,3-3,3.58,3.58,0,0,1,.49.53C59.37.84,57.46,3.87,55.27,5.42Z" transform="translate(18.96 14.69)"/><path class="cls-10" d="M183.11,202c-3.32,4-7.48,8.15-7.33,13.35.08,2.56,1.26,5,1.14,7.59-.13,3-2,5.64-3.91,8a91.92,91.92,0,0,1-10.83,11.14c-4.37,3.8-9.52,7.31-15.31,7.41-2.53,0-5-.58-7.56-.55s-5.28.9-6.54,3.09c-.55.94-.77,2.06-1.25,3.05-1.42,2.94-4.91,4.3-8.16,4.72-5.66.75-17.89.06-24.85-4.14a10.48,10.48,0,0,1-4.53-4.8c-3.18-7.64,13-16.42,18.83-10.88,1.9,1.82,2.54,4.64,4.35,6.55,1.16,1.22,6.47,3.79,7.81,1.9a3,3,0,0,0,.28-2.3,12.05,12.05,0,0,1-.42-2.36,6.1,6.1,0,0,1,.94-2.77,10.23,10.23,0,0,1,2.66-3.41,4.4,4.4,0,0,1,4.1-.76c-3.7-2.33-5.41-7.19-5.43-11.41a19.5,19.5,0,0,1,3.54-10.63l.16-.23a29.19,29.19,0,0,1,7.36-7.51c1.59-1.11,3.48-2.09,5.38-1.75a6.88,6.88,0,0,1,3.16,1.75,18.49,18.49,0,0,1,6.23,14.76c-.05.87-.07,1.9.64,2.37a.85.85,0,0,0,.25.13,6.38,6.38,0,0,0,1.17.23,2.93,2.93,0,0,1,2.25,2.55,41.63,41.63,0,0,0,8.56-27.93c-.39-5.84-2-11.81-.39-17.44a31.92,31.92,0,0,1,4.55-8.61c.7-1,1.4-2.08,2.15-3.11,3.14-4.34,6.84-8.37,11.92-9.6a5.56,5.56,0,0,1,2.86-.07c1.62.49,2.65,2.08,3.39,3.61C196.15,176.26,191.83,191.53,183.11,202Z" transform="translate(18.96 14.69)"/><path class="cls-9" d="M140,232.05a11.52,11.52,0,0,1,1.34,4.21c.09,4-4.53,6.27-8.35,7.57a4.91,4.91,0,0,0-2,1.07c-1.5,1.56-.43,4.29-1.41,6.23-2.6,1.14-5,2.92-7.78,3.37-3.79.59-7.44-1.36-11.06-2.62s-8.28-1.6-10.73,1.35a14.76,14.76,0,0,0-1.43,2.43,10.48,10.48,0,0,1-4.53-4.8c-3.18-7.64,13-16.42,18.83-10.88,1.9,1.82,2.54,4.64,4.35,6.55,1.16,1.22,6.47,3.79,7.81,1.9a3,3,0,0,0,.28-2.3,12.05,12.05,0,0,1-.42-2.36,6.1,6.1,0,0,1,.94-2.77,10.23,10.23,0,0,1,2.66-3.41,4.4,4.4,0,0,1,4.1-.76c-3.7-2.33-5.41-7.19-5.43-11.41a19.5,19.5,0,0,1,3.54-10.63l.16-.23a16.88,16.88,0,0,0,3.45,8.7c1.27,1.64,2.86,3,3.93,4.82A33.79,33.79,0,0,1,140,232.05Z" transform="translate(18.96 14.69)"/><path class="cls-9" d="M168.26,210a22.15,22.15,0,0,0-1,5.08c-.06,1.73.3,3.44.39,5.17.26,4.82-1.48,9.5-3.2,14a19.16,19.16,0,0,0-12.62,8.48q-.25-3.61-.52-7.23a18.44,18.44,0,0,1,.11-5,30,30,0,0,1,2-5.22q.21-.53.39-1.05a6.38,6.38,0,0,0,1.17.23,2.93,2.93,0,0,1,2.25,2.55,41.63,41.63,0,0,0,8.56-27.93c-.39-5.84-2-11.81-.39-17.44a31.92,31.92,0,0,1,4.55-8.61c.7-1,1.4-2.08,2.15-3.11a32.11,32.11,0,0,0-2,15.91A25.85,25.85,0,0,0,174.37,197C171,200.44,169.56,205.35,168.26,210Z" transform="translate(18.96 14.69)"/><path class="cls-10" d="M254,140.24c.33-4.52.41-9.23-1.38-13.41s-5.9-7.66-10.43-7.37c-1.73.11-3.76.65-5-.6a4,4,0,0,1-.89-2.26c-.85-5.81.87-12,1-17.81a16.93,16.93,0,0,0-2-8.9A7.69,7.69,0,0,0,230.72,86a7.1,7.1,0,0,0-3.6.14,43.68,43.68,0,0,0,2.45,6.71,54.22,54.22,0,0,1,4.6,18.21,44.19,44.19,0,0,0,.87,8,9.75,9.75,0,0,0,4.53,6.35c2.19,1.13,5.19,1.26,6.35,3.42a6.14,6.14,0,0,1,.4,3.53,56,56,0,0,1-2.14,11c-1.16,3.84-2.59,8.42-.06,11.54a9.5,9.5,0,0,0-1.35,3.51,3,3,0,0,0,2.41,1.09,3.94,3.94,0,0,0,1.74-.57l0,.15a1.75,1.75,0,0,0,.2.88,2.05,2.05,0,0,0,1.2,1.2,2,2,0,0,0,1.75,0,1.68,1.68,0,0,0,.73-.47l.36-.46a2.3,2.3,0,0,0,.31-1.15c0-.2-.06-.4-.08-.6a2.26,2.26,0,0,0-.59-1l-.46-.36a1.61,1.61,0,0,0-.84-.27l-.34,0,.19-.27C252.62,151.9,253.52,146,254,140.24Z" transform="translate(18.96 14.69)"/><path class="cls-10" d="M230.52,189.63c-1.22,3.47-3.38,7.4-5.72,9.52-2.7,2.44-7.06,3.3-8.39,6.69-.95,2.43.12,5.22-.46,7.75-.89,3.9-5.13,5.87-8.85,7.3-1.78.68-3.73,1.34-5.52,1a10.19,10.19,0,0,1,1.55-3.38c1.7-2.48,4.11-4.46,5.61-7.07.88-1.55,1.44-3.34,2.68-4.62,1.46-1.48,3.62-2.05,5.21-3.39,3.35-2.81,3.4-8.16,6.44-11.29C225.6,189.49,228.22,188.93,230.52,189.63Z" transform="translate(18.96 14.69)"/><path class="cls-10" d="M89.78,218.06C86.4,220.43,82,221,77.92,220.44a13,13,0,0,1-5.73-1.95,17.31,17.31,0,0,0-3.07-2.12c-2.12-.87-4.55.06-6.46,1.32s-3.62,2.89-5.78,3.63c-6.18,2.14-10.74-2.6-13.36-8.1a27.55,27.55,0,0,1-2.39-7.73c-.27-1.9-.13-3.83-.35-5.73-.49-4.41-2.89-5.84-4.91-9.1-1.81-2.95-1.12-7.31.21-10.29,1.58-3.54,4.31-6.43,7.18-9.05-5.4-3.43-8.15-10-8.34-16.43a28,28,0,0,1,.1-3.31,52.68,52.68,0,0,1,4.16-15.25c2.11-5.18,5.54-11,11.13-11.34a8.07,8.07,0,0,1,2,.11c3.66.68,6.77,3.86,8.19,7.43,1.69,4.19,1.61,8.83,1.71,13.35.11,4.68.44,9.36,1,14,.3,2.5.66,5.07,0,7.51-.57,2.19-1.9,4.13-2.36,6.34-.79,3.69.94,7.42,2.76,10.73,2,3.72,4.31,7.46,7.8,9.84,3.75,2.55,8.42,3.23,12.75,4.62,3.37,1.08,6.83,2.91,8.76,5.74a8.61,8.61,0,0,1,1.25,2.65C95.27,211.29,93.16,215.7,89.78,218.06Z" transform="translate(18.96 14.69)"/><path class="cls-9" d="M89.78,218.06C86.4,220.43,82,221,77.92,220.44a13,13,0,0,1-5.73-1.95,17.31,17.31,0,0,0-3.07-2.12c-2.12-.87-4.55.06-6.46,1.32s-3.62,2.89-5.78,3.63c-6.18,2.14-10.74-2.6-13.36-8.1a27.55,27.55,0,0,1-2.39-7.73c-.27-1.9-.13-3.83-.35-5.73-.49-4.41-2.89-5.84-4.91-9.1-1.81-2.95-1.12-7.31.21-10.29,1.58-3.54,4.31-6.43,7.18-9.05-5.4-3.43-8.15-10-8.34-16.43a28,28,0,0,1,.1-3.31,22.73,22.73,0,0,0,.7,2.18,28.07,28.07,0,0,0,5.45,9c.7.77,7.52,7.14,8.45,6.18-2.32,2.37-3.22,5.77-4,9-.34,1.36-.68,2.73-1,4.1-.88,3.49-1.62,7.58.66,10.35a13.63,13.63,0,0,1,1.71,2c.83,1.54.25,3.41-.05,5.14a15.56,15.56,0,0,0,6.55,15.24,5.38,5.38,0,0,0,2.29,1c4.14.51,6.61-6.44,10.67-5.49,2,.47,3.08,2.74,5,3.6a8,8,0,0,0,3.59.45c4.94-.15,10.34-.47,14-3.83a22.5,22.5,0,0,0,4-5.83,8.61,8.61,0,0,1,1.25,2.65C95.27,211.29,93.16,215.7,89.78,218.06Z" transform="translate(18.96 14.69)"/><path class="cls-10" d="M67.48,78c-1,2.39-2.39,4.74-2.34,7.33,0,1,.28,2.06.39,3.09.27,2.42-1.39,6.8-3.9,10.13s-6.14,5.78-9.39,3.57a4.77,4.77,0,0,1-1.78-4.38,10.59,10.59,0,0,1,1.83-4.56A40.85,40.85,0,0,1,57.38,87c-5.3-3-5.67-8.93-2.64-13.28a12.23,12.23,0,0,1,4.75-4c2.58-1.24,6.09-1.33,7.87.9C69,72.6,68.47,75.56,67.48,78Z" transform="translate(18.96 14.69)"/><path class="cls-9" d="M61.63,98.51c-2.61,3.47-6.14,5.78-9.39,3.57a4.77,4.77,0,0,1-1.78-4.38,10.59,10.59,0,0,1,1.83-4.56A40.85,40.85,0,0,1,57.38,87c-5.3-3-5.67-8.93-2.64-13.28.33,1.45.07,3.26.39,4.58A12.16,12.16,0,0,0,58,83.7c1.12,1.2,2.58,2.39,2.56,4S58.84,90.66,57.67,92a8,8,0,0,0-2,4.91,2.09,2.09,0,0,0,.55,1.8c1.29,1.08,3.19-1.18,4.78-.63A1.5,1.5,0,0,1,61.63,98.51Z" transform="translate(18.96 14.69)"/><path class="cls-10" d="M172.41,246c-2.72-.84-5.74,1-7.61,2.84s-4,4.94-2.49,7.49,5.57,2.09,7.72.64a7.69,7.69,0,0,0,3.13-4.33,1.05,1.05,0,0,1,.11-.07C175.68,250.79,175.58,247,172.41,246Z" transform="translate(18.96 14.69)"/><path class="cls-10" d="M176.07,241.23a1.67,1.67,0,0,0-.36-.65,1.79,1.79,0,0,0-1.64-.37,1.72,1.72,0,0,0-1,.75,2.18,2.18,0,0,0-.19.48l-.11.31a1.43,1.43,0,0,0,1.75,1.74l.31-.1a2.39,2.39,0,0,0,.48-.19,1.72,1.72,0,0,0,.75-1A1.67,1.67,0,0,0,176.07,241.23Z" transform="translate(18.96 14.69)"/><path class="cls-10" d="M159.27,254.65a3.55,3.55,0,0,0-.88-1.51l-.69-.53a3.33,3.33,0,0,0-1.72-.46,2.57,2.57,0,0,0-1.31.29,3,3,0,0,0-1.8,1.8,2.57,2.57,0,0,0-.29,1.31l.12.91a3.45,3.45,0,0,0,.87,1.5l.69.53A3.37,3.37,0,0,0,156,259a2.56,2.56,0,0,0,1.31-.3,3,3,0,0,0,1.8-1.8,2.56,2.56,0,0,0,.3-1.31Z" transform="translate(18.96 14.69)"/><path class="cls-10" d="M.08,194.43c-.91-1.65-2.47-3.37-4.5-3.25-4.25.26-4,6.72-1.35,8.73a5.78,5.78,0,0,0,4.07,2.5,2.38,2.38,0,0,0,3-2.24A10.68,10.68,0,0,0,.08,194.43Z" transform="translate(18.96 14.69)"/><path class="cls-10" d="M7.12,212.77l-.19-.45a1.5,1.5,0,0,0-.48-.52,1.47,1.47,0,0,0-.63-.33.87.87,0,0,0-.28-.05,1.47,1.47,0,0,0-.75,0l-.08,0-.18.05-.43.18a1.31,1.31,0,0,0-.5.46.9.9,0,0,0-.23.4,1.26,1.26,0,0,0-.16.69l.07.48.18.43a1.23,1.23,0,0,0,.46.5,1.4,1.4,0,0,0,.61.33,2.26,2.26,0,0,0,1.29.05l.44-.18a1.53,1.53,0,0,0,.53-.48A.93.93,0,0,0,7,214a1.36,1.36,0,0,0,.16-.72Z" transform="translate(18.96 14.69)"/><path class="cls-10" d="M-9.71,86.22c-.06-1.3-1.39-2.66-2.79-2.12a8.25,8.25,0,0,0-3.67,2.34,5.72,5.72,0,0,0-.95,5.24,2.72,2.72,0,0,0,2.55,1.94l.23,0A2.65,2.65,0,0,0-11.8,91.7c-.15.63.06,0,.16-.35,0-.07,0-.15.05-.23A6.9,6.9,0,0,0-9.71,86.22Z" transform="translate(18.96 14.69)"/><path class="cls-10" d="M66.19-5.58c-.13-.18-.27-.36-.41-.53a1.77,1.77,0,0,0-.8-.52,2.2,2.2,0,0,0-1-.21,2.7,2.7,0,0,0-1.84.76,3,3,0,0,0-.71,1.22,2.83,2.83,0,0,0,0,1.5,2.61,2.61,0,0,0,.65,1.11,1.85,1.85,0,0,0,.81.52,1.93,1.93,0,0,0,1,.22,2.48,2.48,0,0,0,1.27-.35,2.39,2.39,0,0,0,1-1,2.89,2.89,0,0,0,.38-1.38A2.8,2.8,0,0,0,66.19-5.58Z" transform="translate(18.96 14.69)"/><path class="cls-10" d="M9.14,58.61a1.34,1.34,0,0,0-1.89,0,1,1,0,0,0-.28.44,1.13,1.13,0,0,0-.12.51,1.35,1.35,0,0,0,.4.95,1.34,1.34,0,0,0,1.89,0,1.11,1.11,0,0,0,.28-.43,1,1,0,0,0,.11-.52A1.37,1.37,0,0,0,9.14,58.61Z" transform="translate(18.96 14.69)"/><path class="cls-10" d="M229,63.2a3.11,3.11,0,0,0-.23-.28,1.24,1.24,0,0,0-.1-.2l0-.14v0a3.23,3.23,0,0,0-.76-.85,1.47,1.47,0,0,0-.65-.38,1.5,1.5,0,0,0-.75-.2,1.47,1.47,0,0,0-.78,0,2.27,2.27,0,0,0-1.1.35,3.38,3.38,0,0,0-1.52,2.1,4.39,4.39,0,0,0-.13,1,6.94,6.94,0,0,0,.12.9.75.75,0,0,0,0,.16A3.26,3.26,0,0,0,225.31,68,3.14,3.14,0,0,0,227,68a2.39,2.39,0,0,0,1.1-.58,2.54,2.54,0,0,0,.84-.91,3.21,3.21,0,0,0,.44-1.63A3.25,3.25,0,0,0,229,63.2Z" transform="translate(18.96 14.69)"/><path class="cls-10" d="M165.17,115.23a1,1,0,0,0-.13-.49,1.51,1.51,0,0,0-.4-.63l-.4-.3-.46-.2a1.48,1.48,0,0,0-.78,0,1.49,1.49,0,0,0-.73.23l-.43.22a2.12,2.12,0,0,0-1,1.82v0a1.57,1.57,0,0,0,.18.8,1.64,1.64,0,0,0,.43.67l.42.32a2,2,0,0,0,1,.29h0a2.12,2.12,0,0,0,1.82-1c.07-.15.15-.29.22-.43l.2-.47A1.48,1.48,0,0,0,165.17,115.23Z" transform="translate(18.96 14.69)"/><path class="cls-10" d="M248.73,166.88a2.48,2.48,0,0,0-.66-1.6l-.46-.35a2.27,2.27,0,0,0-1.14-.31l-.2,0a2.48,2.48,0,0,0-2.14,1.23,5.6,5.6,0,0,0-.33.8,2.39,2.39,0,0,0,1.66,2.92,2.48,2.48,0,0,0,1.27,0,7.68,7.68,0,0,0,.79-.32,2.5,2.5,0,0,0,.9-.9,2.57,2.57,0,0,0,.34-1.25Z" transform="translate(18.96 14.69)"/><path class="cls-10" d="M196.21,224.81A1.53,1.53,0,0,0,196,224l-.19-.45-.35-.45a1.84,1.84,0,0,0-.73-.47,1.1,1.1,0,0,0-.57-.15,1.69,1.69,0,0,0-.89,0h0a2.23,2.23,0,0,0-1,.58,2.09,2.09,0,0,0-.57,1v0l-.08.6a1.63,1.63,0,0,0,.19.87,1.07,1.07,0,0,0,.29.49,1.67,1.67,0,0,0,.63.58l.45.2.49.21a1.53,1.53,0,0,0,.82,0A1,1,0,0,0,195,227a1.53,1.53,0,0,0,.67-.42l.32-.42.21-.5A1.53,1.53,0,0,0,196.21,224.81Z" transform="translate(18.96 14.69)"/></g><path class="cls-10" d="M178.4,219.43c1.08-5.4,4.9-9.94,9.44-13.06.68-.47,1.45-1,1.53-1.85.22-2.39-2.48-7.32-4.94-7.74a9.77,9.77,0,0,0-2.84.2,11.15,11.15,0,0,1-12-10.06c-.14-2.56,1-5.47,3.41-6.32-1.74-6.06-3.38-12.88-1-18.5a11.85,11.85,0,0,1,.9-1.73c1.57-2.52,4.46-4.56,7.37-4,4.27.87,8.28,7.34,9.25,11.25a8.15,8.15,0,0,1-1.18,7c-1.24,1.54-3.3,2.57-3.74,4.5a4.37,4.37,0,0,0,1.38,3.89,17.26,17.26,0,0,0,3.55,2.42,11.08,11.08,0,0,1,3.73,3.16c1.7,2.54.48,5.42.14,8.16-.32,2.48.25,5.35,2.32,6.77a10.48,10.48,0,0,1,1.64,1.11,4.51,4.51,0,0,1,.9,1.58c1.29,3.38,2,7.07,4.17,9.95s6.6,4.56,9.44,2.33a13.73,13.73,0,0,0,1.83-2c7.48-8.75,22.8-6.05,29,3,.6.88,1.21,1.89,2.24,2.21,1.85.58,3.39-1.42,4.46-3a32.25,32.25,0,0,1,7.38-8,12.29,12.29,0,0,1,5.52-2.71,5.56,5.56,0,0,1,5.48,2.11c1.36,2,.86,4.82-.55,7.41-2.09,3.86-6.24,7.31-9.4,7.3-1.88,0-3.78-.56-5.59-.1-3.7.93-5.12,5.26-6.6,8.77-2.21,5.17-7,9.87-11.2,13.5-2,1.72-4.29,3.29-6.91,3.54a10.3,10.3,0,0,1-7.6-2.88,30.5,30.5,0,0,1-5.12-6.59,11.31,11.31,0,0,1-14.61.37c-2.45-2.08-4-5.68-7.36-6.17-1.52-.21-3.08-.08-4.57-.4C181.81,233.47,177.17,225.59,178.4,219.43Z" transform="translate(18.96 14.69)"/><path class="cls-9" d="M58.6,18.34c-2.18,1.55-4.93,2.85-5.67,5.42a19,19,0,0,0-.3,3.46C52.27,31,49.47,34,46.35,36.11s-6.67,3.48-9.74,5.62a1.94,1.94,0,0,0-.79.84,2.16,2.16,0,0,0,.34,1.7l0,.1c1.65,3.44,1,7.64-.71,11-2.29,4.47-5.71,9.23-11.2,8.56a8.83,8.83,0,0,1-5.88-3.32,6.62,6.62,0,0,0,1,.13,12.43,12.43,0,0,0,9.39-3.56,12.55,12.55,0,0,0,1.25-15.37,2.61,2.61,0,0,0-.72-.76,2.7,2.7,0,0,0-1.59-.24c-1.44.08-2.87.26-4.3.28a11.68,11.68,0,0,1-3.89-2.94c4.4.08,8.83-.23,12.64-2.33,4.36-2.38,7.22-6.72,9.91-10.9.88,1.39,3.07,1.33,4.37.32A9.32,9.32,0,0,0,49,21.12a8.28,8.28,0,0,1,2.62-4.07,6,6,0,0,1-4.15-.38,7.63,7.63,0,0,1,.43-1.43l3.8-.06c2,0,4.15-.1,5.91-1.1a9.34,9.34,0,0,0,3-3,3,3,0,0,1,.49.52C62.69,13.76,60.78,16.79,58.6,18.34Z" transform="translate(18.96 14.69)"/><path class="cls-10" d="M195.14,70.49c-5,2.34-10.91,2-16.12.16a2.87,2.87,0,0,0-2.39-.13c-2.06,1.24-4.42,6.33-3.3,8.57a9.68,9.68,0,0,0,1.85,2.16,11.16,11.16,0,0,1-1,15.66c-2,1.63-5,2.46-7.11,1-3.85,5-8.36,10.37-14.33,11.75a13.7,13.7,0,0,1-1.92.3c-3,.24-6.32-.88-7.57-3.58-1.83-4,1-11,3.56-14.12a8.16,8.16,0,0,1,6.35-3.21c2,.09,4,1.13,5.84.34A4.4,4.4,0,0,0,161.36,86a17.61,17.61,0,0,0-.16-4.29,11,11,0,0,1,.32-4.88c1-2.87,4.08-3.61,6.49-5,2.18-1.22,4.16-3.38,4.07-5.9a10.88,10.88,0,0,1-.09-2,4.46,4.46,0,0,1,.75-1.66c1.95-3,4.51-5.8,5.53-9.27s-.25-8-3.73-9a13.35,13.35,0,0,0-2.69-.29C160.38,43,153.46,29,157.08,18.69a4.86,4.86,0,0,0,.45-3.11c-.64-1.83-3.16-1.89-5.11-1.78a32.11,32.11,0,0,1-10.81-1.2,12.35,12.35,0,0,1-5.45-2.83,5.57,5.57,0,0,1-1.56-5.66c.83-2.3,3.37-3.56,6.29-4,4.35-.61,9.59.68,11.46,3.23,1.11,1.52,1.79,3.37,3.23,4.56,2.94,2.43,7.27,1,11,.11,5.47-1.3,12.08-.25,17.51,1,2.56.59,5.19,1.5,7,3.46a10.36,10.36,0,0,1,2.2,7.83,31.12,31.12,0,0,1-2.26,8,11.31,11.31,0,0,1,9,11.54c-.23,3.21-2.24,6.55-.6,9.59.73,1.35,1.76,2.52,2.38,3.92C204.41,59.42,200.82,67.83,195.14,70.49Z" transform="translate(18.96 14.69)"/><path class="cls-20" d="M349.12,210.16l-.09,0c-1.58.58-3.19-.86-4.86-.86-2.37,0-3.69,2.71-4.28,5-1.51,6-1.9,12.42-5.1,17.69s-8.9,8.69-14.91,10-12.31.63-18.26-.92a23.17,23.17,0,0,0-5.68-1.08,6.34,6.34,0,0,0-5.15,2.16,18.62,18.62,0,0,0-1.51,2.75,31.62,31.62,0,0,1-15-20.4,35.28,35.28,0,0,1-.19-14,33.39,33.39,0,0,0,2.65,7.27c1.34,2.69,3.47,5.43,6.46,5.75,3.72.39,4.29-1.82,5.87-4.3a24.35,24.35,0,0,1,8.27-7.62,5.38,5.38,0,0,1,3.92-.94c2.46.66,3.17,4.08,5.52,5.08,1.8.75,4-.29,5.08-1.9a11.2,11.2,0,0,0,1.55-5.59,56.56,56.56,0,0,0-.57-13.63,32.67,32.67,0,0,1,4.48,18.07c-.19,3.76-1.2,7.75-4.05,10.19s-7.95,2.42-9.87-.81c-.93-1.56-1.23-3.81-2.94-4.43-2-.72-3.82,1.54-4.34,3.6a14.6,14.6,0,0,0,4.11,13.62A18.84,18.84,0,0,0,313.81,240a26.91,26.91,0,0,0,13.95-4.64c7.31-4.78,6.4-13.07,5.78-20.86a65.33,65.33,0,0,0-6.47-24.16,51.69,51.69,0,0,0-19.25-21c-6-3.59-12.18-6.19-19.3-4.84A33.64,33.64,0,0,0,276,170.12a67,67,0,0,1-6.66,4.44,11.77,11.77,0,0,1-7.72,1.44c-2.53-.54-4.64-2.19-6.8-3.61A42.17,42.17,0,0,0,236,165.65c-6.38-.66-13.16-1.74-18.73-5.14-4-2.45-7.35-6.51-8.26-11.19-.44-2.23.11-4.2.19-6.38.09-2.93-.32-6-.5-9A88.83,88.83,0,0,0,186,80.28C179.5,73.09,171.44,66.83,162,64.81c-6.33-1.32-12.22.07-17.72,3.1a19.07,19.07,0,0,0-5.73,4.66c-.91,1.16-3.65,4.31-3.65,5.94-.19-1.83-.72-4-.5-5.8a25.53,25.53,0,0,1,1.71-5.08c.25-.69.51-1.36.77-2h0c4.24-2.92,8.43-5.44,14.16-6.66,9.27-2,20.64-.74,28.81,4.32,5.27,3.25,8.77,8.65,12.1,13.86,9.92,15.59,20.2,32.35,19.89,50.82C211.58,140.79,209,158,226.07,160c5.16.6,10.48,0,15.51,1.32,5.64,1.46,10.42,5.19,15.91,7.16,6.32,2.27,10.27.08,15.92-2.3,5.35-2.26,11.48-4.73,17.21-5.79a27.19,27.19,0,0,1,24.5,8.3c3.41,3.76,5.74,8.47,9.51,11.84,4.71,4.19,13,5.39,14.33-2C344.23,188.34,347.09,199.19,349.12,210.16Z" transform="translate(18.96 14.69)"/></g></g></g></svg>